G04 #@! TF.GenerationSoftware,KiCad,Pcbnew,5.1.5+dfsg1-2build2*
G04 #@! TF.CreationDate,2021-07-08T11:40:41+02:00*
G04 #@! TF.ProjectId,GraphixCard,47726170-6869-4784-9361-72642e6b6963,rev?*
G04 #@! TF.SameCoordinates,Original*
G04 #@! TF.FileFunction,Legend,Top*
G04 #@! TF.FilePolarity,Positive*
%FSLAX46Y46*%
G04 Gerber Fmt 4.6, Leading zero omitted, Abs format (unit mm)*
G04 Created by KiCad (PCBNEW 5.1.5+dfsg1-2build2) date 2021-07-08 11:40:41*
%MOMM*%
%LPD*%
G04 APERTURE LIST*
%ADD10C,0.127000*%
%ADD11C,0.150000*%
%ADD12C,0.250000*%
%ADD13C,0.120000*%
G04 APERTURE END LIST*
D10*
X122349285Y-69927042D02*
X122301666Y-69974661D01*
X122158809Y-70022280D01*
X122063571Y-70022280D01*
X121920714Y-69974661D01*
X121825476Y-69879423D01*
X121777857Y-69784185D01*
X121730238Y-69593709D01*
X121730238Y-69450852D01*
X121777857Y-69260376D01*
X121825476Y-69165138D01*
X121920714Y-69069900D01*
X122063571Y-69022280D01*
X122158809Y-69022280D01*
X122301666Y-69069900D01*
X122349285Y-69117519D01*
X123301666Y-69069900D02*
X123206428Y-69022280D01*
X123063571Y-69022280D01*
X122920714Y-69069900D01*
X122825476Y-69165138D01*
X122777857Y-69260376D01*
X122730238Y-69450852D01*
X122730238Y-69593709D01*
X122777857Y-69784185D01*
X122825476Y-69879423D01*
X122920714Y-69974661D01*
X123063571Y-70022280D01*
X123158809Y-70022280D01*
X123301666Y-69974661D01*
X123349285Y-69927042D01*
X123349285Y-69593709D01*
X123158809Y-69593709D01*
X124158809Y-69974661D02*
X124063571Y-70022280D01*
X123873095Y-70022280D01*
X123777857Y-69974661D01*
X123730238Y-69879423D01*
X123730238Y-69498471D01*
X123777857Y-69403233D01*
X123873095Y-69355614D01*
X124063571Y-69355614D01*
X124158809Y-69403233D01*
X124206428Y-69498471D01*
X124206428Y-69593709D01*
X123730238Y-69688947D01*
X124635000Y-69355614D02*
X124635000Y-70022280D01*
X124635000Y-69450852D02*
X124682619Y-69403233D01*
X124777857Y-69355614D01*
X124920714Y-69355614D01*
X125015952Y-69403233D01*
X125063571Y-69498471D01*
X125063571Y-70022280D01*
X126301666Y-70022280D02*
X126301666Y-69022280D01*
X126635000Y-69736566D01*
X126968333Y-69022280D01*
X126968333Y-70022280D01*
X127444523Y-70022280D02*
X127444523Y-69355614D01*
X127444523Y-69022280D02*
X127396904Y-69069900D01*
X127444523Y-69117519D01*
X127492142Y-69069900D01*
X127444523Y-69022280D01*
X127444523Y-69117519D01*
X127825476Y-70022280D02*
X128349285Y-69355614D01*
X127825476Y-69355614D02*
X128349285Y-70022280D01*
X129825476Y-69498471D02*
X129968333Y-69546090D01*
X130015952Y-69593709D01*
X130063571Y-69688947D01*
X130063571Y-69831804D01*
X130015952Y-69927042D01*
X129968333Y-69974661D01*
X129873095Y-70022280D01*
X129492142Y-70022280D01*
X129492142Y-69022280D01*
X129825476Y-69022280D01*
X129920714Y-69069900D01*
X129968333Y-69117519D01*
X130015952Y-69212757D01*
X130015952Y-69307995D01*
X129968333Y-69403233D01*
X129920714Y-69450852D01*
X129825476Y-69498471D01*
X129492142Y-69498471D01*
X130492142Y-70022280D02*
X130492142Y-69355614D01*
X130492142Y-69546090D02*
X130539761Y-69450852D01*
X130587380Y-69403233D01*
X130682619Y-69355614D01*
X130777857Y-69355614D01*
X131111190Y-70022280D02*
X131111190Y-69355614D01*
X131111190Y-69022280D02*
X131063571Y-69069900D01*
X131111190Y-69117519D01*
X131158809Y-69069900D01*
X131111190Y-69022280D01*
X131111190Y-69117519D01*
X132015952Y-69355614D02*
X132015952Y-70165138D01*
X131968333Y-70260376D01*
X131920714Y-70307995D01*
X131825476Y-70355614D01*
X131682619Y-70355614D01*
X131587380Y-70307995D01*
X132015952Y-69974661D02*
X131920714Y-70022280D01*
X131730238Y-70022280D01*
X131635000Y-69974661D01*
X131587380Y-69927042D01*
X131539761Y-69831804D01*
X131539761Y-69546090D01*
X131587380Y-69450852D01*
X131635000Y-69403233D01*
X131730238Y-69355614D01*
X131920714Y-69355614D01*
X132015952Y-69403233D01*
X132492142Y-70022280D02*
X132492142Y-69022280D01*
X132920714Y-70022280D02*
X132920714Y-69498471D01*
X132873095Y-69403233D01*
X132777857Y-69355614D01*
X132635000Y-69355614D01*
X132539761Y-69403233D01*
X132492142Y-69450852D01*
X133254047Y-69355614D02*
X133635000Y-69355614D01*
X133396904Y-69022280D02*
X133396904Y-69879423D01*
X133444523Y-69974661D01*
X133539761Y-70022280D01*
X133635000Y-70022280D01*
X124135000Y-71554042D02*
X124087380Y-71601661D01*
X123944523Y-71649280D01*
X123849285Y-71649280D01*
X123706428Y-71601661D01*
X123611190Y-71506423D01*
X123563571Y-71411185D01*
X123515952Y-71220709D01*
X123515952Y-71077852D01*
X123563571Y-70887376D01*
X123611190Y-70792138D01*
X123706428Y-70696900D01*
X123849285Y-70649280D01*
X123944523Y-70649280D01*
X124087380Y-70696900D01*
X124135000Y-70744519D01*
X124515952Y-71363566D02*
X124992142Y-71363566D01*
X124420714Y-71649280D02*
X124754047Y-70649280D01*
X125087380Y-71649280D01*
X125420714Y-71649280D02*
X125420714Y-70982614D01*
X125420714Y-71077852D02*
X125468333Y-71030233D01*
X125563571Y-70982614D01*
X125706428Y-70982614D01*
X125801666Y-71030233D01*
X125849285Y-71125471D01*
X125849285Y-71649280D01*
X125849285Y-71125471D02*
X125896904Y-71030233D01*
X125992142Y-70982614D01*
X126135000Y-70982614D01*
X126230238Y-71030233D01*
X126277857Y-71125471D01*
X126277857Y-71649280D01*
X126754047Y-70982614D02*
X126754047Y-71982614D01*
X126754047Y-71030233D02*
X126849285Y-70982614D01*
X127039761Y-70982614D01*
X127135000Y-71030233D01*
X127182619Y-71077852D01*
X127230238Y-71173090D01*
X127230238Y-71458804D01*
X127182619Y-71554042D01*
X127135000Y-71601661D01*
X127039761Y-71649280D01*
X126849285Y-71649280D01*
X126754047Y-71601661D01*
X128944523Y-70696900D02*
X128849285Y-70649280D01*
X128706428Y-70649280D01*
X128563571Y-70696900D01*
X128468333Y-70792138D01*
X128420714Y-70887376D01*
X128373095Y-71077852D01*
X128373095Y-71220709D01*
X128420714Y-71411185D01*
X128468333Y-71506423D01*
X128563571Y-71601661D01*
X128706428Y-71649280D01*
X128801666Y-71649280D01*
X128944523Y-71601661D01*
X128992142Y-71554042D01*
X128992142Y-71220709D01*
X128801666Y-71220709D01*
X129944523Y-70696900D02*
X129849285Y-70649280D01*
X129706428Y-70649280D01*
X129563571Y-70696900D01*
X129468333Y-70792138D01*
X129420714Y-70887376D01*
X129373095Y-71077852D01*
X129373095Y-71220709D01*
X129420714Y-71411185D01*
X129468333Y-71506423D01*
X129563571Y-71601661D01*
X129706428Y-71649280D01*
X129801666Y-71649280D01*
X129944523Y-71601661D01*
X129992142Y-71554042D01*
X129992142Y-71220709D01*
X129801666Y-71220709D01*
X130801666Y-71601661D02*
X130706428Y-71649280D01*
X130515952Y-71649280D01*
X130420714Y-71601661D01*
X130373095Y-71506423D01*
X130373095Y-71125471D01*
X130420714Y-71030233D01*
X130515952Y-70982614D01*
X130706428Y-70982614D01*
X130801666Y-71030233D01*
X130849285Y-71125471D01*
X130849285Y-71220709D01*
X130373095Y-71315947D01*
X131277857Y-70982614D02*
X131277857Y-71649280D01*
X131277857Y-71077852D02*
X131325476Y-71030233D01*
X131420714Y-70982614D01*
X131563571Y-70982614D01*
X131658809Y-71030233D01*
X131706428Y-71125471D01*
X131706428Y-71649280D01*
D11*
X106839714Y-121554761D02*
X106839714Y-119554761D01*
X106839714Y-120316666D02*
X107030190Y-120221428D01*
X107411142Y-120221428D01*
X107601619Y-120316666D01*
X107696857Y-120411904D01*
X107792095Y-120602380D01*
X107792095Y-121173809D01*
X107696857Y-121364285D01*
X107601619Y-121459523D01*
X107411142Y-121554761D01*
X107030190Y-121554761D01*
X106839714Y-121459523D01*
X108458761Y-120221428D02*
X108934952Y-121554761D01*
X109411142Y-120221428D02*
X108934952Y-121554761D01*
X108744476Y-122030952D01*
X108649238Y-122126190D01*
X108458761Y-122221428D01*
X112363523Y-120507142D02*
X111696857Y-120507142D01*
X111696857Y-121554761D02*
X111696857Y-119554761D01*
X112649238Y-119554761D01*
X113696857Y-121554761D02*
X113506380Y-121459523D01*
X113411142Y-121269047D01*
X113411142Y-119554761D01*
X114744476Y-121554761D02*
X114554000Y-121459523D01*
X114458761Y-121364285D01*
X114363523Y-121173809D01*
X114363523Y-120602380D01*
X114458761Y-120411904D01*
X114554000Y-120316666D01*
X114744476Y-120221428D01*
X115030190Y-120221428D01*
X115220666Y-120316666D01*
X115315904Y-120411904D01*
X115411142Y-120602380D01*
X115411142Y-121173809D01*
X115315904Y-121364285D01*
X115220666Y-121459523D01*
X115030190Y-121554761D01*
X114744476Y-121554761D01*
X115982571Y-120221428D02*
X116744476Y-120221428D01*
X116268285Y-121554761D02*
X116268285Y-119840476D01*
X116363523Y-119650000D01*
X116554000Y-119554761D01*
X116744476Y-119554761D01*
X117411142Y-121554761D02*
X117411142Y-120221428D01*
X117411142Y-120602380D02*
X117506380Y-120411904D01*
X117601619Y-120316666D01*
X117792095Y-120221428D01*
X117982571Y-120221428D01*
X118934952Y-121554761D02*
X118744476Y-121459523D01*
X118649238Y-121364285D01*
X118554000Y-121173809D01*
X118554000Y-120602380D01*
X118649238Y-120411904D01*
X118744476Y-120316666D01*
X118934952Y-120221428D01*
X119220666Y-120221428D01*
X119411142Y-120316666D01*
X119506380Y-120411904D01*
X119601619Y-120602380D01*
X119601619Y-121173809D01*
X119506380Y-121364285D01*
X119411142Y-121459523D01*
X119220666Y-121554761D01*
X118934952Y-121554761D01*
X120363523Y-121459523D02*
X120554000Y-121554761D01*
X120934952Y-121554761D01*
X121125428Y-121459523D01*
X121220666Y-121269047D01*
X121220666Y-121173809D01*
X121125428Y-120983333D01*
X120934952Y-120888095D01*
X120649238Y-120888095D01*
X120458761Y-120792857D01*
X120363523Y-120602380D01*
X120363523Y-120507142D01*
X120458761Y-120316666D01*
X120649238Y-120221428D01*
X120934952Y-120221428D01*
X121125428Y-120316666D01*
X121792095Y-120221428D02*
X122554000Y-120221428D01*
X122077809Y-119554761D02*
X122077809Y-121269047D01*
X122173047Y-121459523D01*
X122363523Y-121554761D01*
X122554000Y-121554761D01*
D12*
X95029857Y-113951000D02*
X94648904Y-113760523D01*
X94077476Y-113760523D01*
X93506047Y-113951000D01*
X93125095Y-114331952D01*
X92934619Y-114712904D01*
X92744142Y-115474809D01*
X92744142Y-116046238D01*
X92934619Y-116808142D01*
X93125095Y-117189095D01*
X93506047Y-117570047D01*
X94077476Y-117760523D01*
X94458428Y-117760523D01*
X95029857Y-117570047D01*
X95220333Y-117379571D01*
X95220333Y-116046238D01*
X94458428Y-116046238D01*
X96934619Y-117760523D02*
X96934619Y-115093857D01*
X96934619Y-115855761D02*
X97125095Y-115474809D01*
X97315571Y-115284333D01*
X97696523Y-115093857D01*
X98077476Y-115093857D01*
X101125095Y-117760523D02*
X101125095Y-115665285D01*
X100934619Y-115284333D01*
X100553666Y-115093857D01*
X99791761Y-115093857D01*
X99410809Y-115284333D01*
X101125095Y-117570047D02*
X100744142Y-117760523D01*
X99791761Y-117760523D01*
X99410809Y-117570047D01*
X99220333Y-117189095D01*
X99220333Y-116808142D01*
X99410809Y-116427190D01*
X99791761Y-116236714D01*
X100744142Y-116236714D01*
X101125095Y-116046238D01*
X103029857Y-115093857D02*
X103029857Y-119093857D01*
X103029857Y-115284333D02*
X103410809Y-115093857D01*
X104172714Y-115093857D01*
X104553666Y-115284333D01*
X104744142Y-115474809D01*
X104934619Y-115855761D01*
X104934619Y-116998619D01*
X104744142Y-117379571D01*
X104553666Y-117570047D01*
X104172714Y-117760523D01*
X103410809Y-117760523D01*
X103029857Y-117570047D01*
X106648904Y-117760523D02*
X106648904Y-113760523D01*
X108363190Y-117760523D02*
X108363190Y-115665285D01*
X108172714Y-115284333D01*
X107791761Y-115093857D01*
X107220333Y-115093857D01*
X106839380Y-115284333D01*
X106648904Y-115474809D01*
X110267952Y-117760523D02*
X110267952Y-115093857D01*
X110267952Y-113760523D02*
X110077476Y-113951000D01*
X110267952Y-114141476D01*
X110458428Y-113951000D01*
X110267952Y-113760523D01*
X110267952Y-114141476D01*
X111791761Y-113760523D02*
X114458428Y-117760523D01*
X114458428Y-113760523D02*
X111791761Y-117760523D01*
X121315571Y-117379571D02*
X121125095Y-117570047D01*
X120553666Y-117760523D01*
X120172714Y-117760523D01*
X119601285Y-117570047D01*
X119220333Y-117189095D01*
X119029857Y-116808142D01*
X118839380Y-116046238D01*
X118839380Y-115474809D01*
X119029857Y-114712904D01*
X119220333Y-114331952D01*
X119601285Y-113951000D01*
X120172714Y-113760523D01*
X120553666Y-113760523D01*
X121125095Y-113951000D01*
X121315571Y-114141476D01*
X124744142Y-117760523D02*
X124744142Y-115665285D01*
X124553666Y-115284333D01*
X124172714Y-115093857D01*
X123410809Y-115093857D01*
X123029857Y-115284333D01*
X124744142Y-117570047D02*
X124363190Y-117760523D01*
X123410809Y-117760523D01*
X123029857Y-117570047D01*
X122839380Y-117189095D01*
X122839380Y-116808142D01*
X123029857Y-116427190D01*
X123410809Y-116236714D01*
X124363190Y-116236714D01*
X124744142Y-116046238D01*
X126648904Y-117760523D02*
X126648904Y-115093857D01*
X126648904Y-115855761D02*
X126839380Y-115474809D01*
X127029857Y-115284333D01*
X127410809Y-115093857D01*
X127791761Y-115093857D01*
X130839380Y-117760523D02*
X130839380Y-113760523D01*
X130839380Y-117570047D02*
X130458428Y-117760523D01*
X129696523Y-117760523D01*
X129315571Y-117570047D01*
X129125095Y-117379571D01*
X128934619Y-116998619D01*
X128934619Y-115855761D01*
X129125095Y-115474809D01*
X129315571Y-115284333D01*
X129696523Y-115093857D01*
X130458428Y-115093857D01*
X130839380Y-115284333D01*
D13*
X136017000Y-55626000D02*
X143637000Y-55626000D01*
X136017000Y-67691000D02*
X136017000Y-55626000D01*
X143637000Y-67691000D02*
X136017000Y-67691000D01*
X143637000Y-55626000D02*
X143637000Y-67691000D01*
X66437000Y-99755000D02*
G75*
G02X68437000Y-99755000I1000000J0D01*
G01*
X68437000Y-99755000D02*
X70087000Y-99755000D01*
X70087000Y-99755000D02*
X70087000Y-81855000D01*
X70087000Y-81855000D02*
X64787000Y-81855000D01*
X64787000Y-81855000D02*
X64787000Y-99755000D01*
X64787000Y-99755000D02*
X66437000Y-99755000D01*
X96202500Y-123698000D02*
X96202500Y-131826000D01*
X96202500Y-123698000D02*
X98742500Y-123698000D01*
X93408500Y-131826000D02*
X96202500Y-123698000D01*
X92138500Y-131826000D02*
X93408500Y-131826000D01*
X93408500Y-123698000D02*
X92138500Y-123698000D01*
X96202500Y-131826000D02*
X93408500Y-123698000D01*
X98742500Y-131826000D02*
X96202500Y-131826000D01*
X147002500Y-123698000D02*
X147002500Y-131826000D01*
X147002500Y-123698000D02*
X144462500Y-123698000D01*
X149796500Y-131826000D02*
X147002500Y-123698000D01*
X151066500Y-131826000D02*
X149796500Y-131826000D01*
X149796500Y-123698000D02*
X151066500Y-123698000D01*
X147002500Y-131826000D02*
X149796500Y-123698000D01*
X144462500Y-131826000D02*
X147002500Y-131826000D01*
X147002500Y-126238000D02*
X147002500Y-129286000D01*
X144462500Y-131826000D02*
X98742500Y-131826000D01*
X96202500Y-129286000D02*
X96202500Y-126238000D01*
X98742500Y-123698000D02*
X144462500Y-123698000D01*
X147002500Y-129286000D02*
G75*
G02X144462500Y-131826000I-2540000J0D01*
G01*
X144462500Y-123698000D02*
G75*
G02X147002500Y-126238000I0J-2540000D01*
G01*
X96202500Y-126238000D02*
G75*
G02X98742500Y-123698000I2540000J0D01*
G01*
X98742500Y-131826000D02*
G75*
G02X96202500Y-129286000I0J2540000D01*
G01*
X143875000Y-68393000D02*
G75*
G02X141875000Y-68393000I-1000000J0D01*
G01*
X141875000Y-68393000D02*
X136415000Y-68393000D01*
X136415000Y-68393000D02*
X136415000Y-119313000D01*
X136415000Y-119313000D02*
X149335000Y-119313000D01*
X149335000Y-119313000D02*
X149335000Y-68393000D01*
X149335000Y-68393000D02*
X143875000Y-68393000D01*
X112451000Y-93728000D02*
X111521000Y-93728000D01*
X109291000Y-93728000D02*
X110221000Y-93728000D01*
X109291000Y-93728000D02*
X109291000Y-95888000D01*
X112451000Y-93728000D02*
X112451000Y-95188000D01*
X102373000Y-99791000D02*
X102373000Y-101631000D01*
X102373000Y-101631000D02*
X105653000Y-101631000D01*
X105653000Y-101631000D02*
X105653000Y-99791000D01*
X105653000Y-99791000D02*
X102373000Y-99791000D01*
X101193000Y-100711000D02*
X102373000Y-100711000D01*
X106833000Y-100711000D02*
X105653000Y-100711000D01*
X102949000Y-99791000D02*
X102949000Y-101631000D01*
X103069000Y-99791000D02*
X103069000Y-101631000D01*
X102829000Y-99791000D02*
X102829000Y-101631000D01*
X110113578Y-104215000D02*
X109596422Y-104215000D01*
X110113578Y-102795000D02*
X109596422Y-102795000D01*
X66877000Y-113415578D02*
X66877000Y-112898422D01*
X65457000Y-113415578D02*
X65457000Y-112898422D01*
X85790000Y-98314000D02*
G75*
G02X86490000Y-99014000I0J-700000D01*
G01*
X86490000Y-99614000D02*
G75*
G02X85790000Y-100314000I-700000J0D01*
G01*
X84390000Y-100314000D02*
G75*
G02X83690000Y-99614000I0J700000D01*
G01*
X83690000Y-99014000D02*
G75*
G02X84390000Y-98314000I700000J0D01*
G01*
X83690000Y-99614000D02*
X83690000Y-99014000D01*
X85790000Y-100314000D02*
X84390000Y-100314000D01*
X86490000Y-99014000D02*
X86490000Y-99614000D01*
X84390000Y-98314000D02*
X85790000Y-98314000D01*
X68702422Y-116026000D02*
X69219578Y-116026000D01*
X68702422Y-114606000D02*
X69219578Y-114606000D01*
X68702422Y-113486000D02*
X69219578Y-113486000D01*
X68702422Y-112066000D02*
X69219578Y-112066000D01*
X104977000Y-79116422D02*
X104977000Y-79633578D01*
X103557000Y-79116422D02*
X103557000Y-79633578D01*
X113046000Y-101787000D02*
G75*
G02X115046000Y-101787000I1000000J0D01*
G01*
X115046000Y-101787000D02*
X116696000Y-101787000D01*
X116696000Y-101787000D02*
X116696000Y-96587000D01*
X116696000Y-96587000D02*
X111396000Y-96587000D01*
X111396000Y-96587000D02*
X111396000Y-101787000D01*
X111396000Y-101787000D02*
X113046000Y-101787000D01*
X85917000Y-81169000D02*
G75*
G02X86617000Y-81869000I0J-700000D01*
G01*
X86617000Y-82469000D02*
G75*
G02X85917000Y-83169000I-700000J0D01*
G01*
X84517000Y-83169000D02*
G75*
G02X83817000Y-82469000I0J700000D01*
G01*
X83817000Y-81869000D02*
G75*
G02X84517000Y-81169000I700000J0D01*
G01*
X83817000Y-82469000D02*
X83817000Y-81869000D01*
X85917000Y-83169000D02*
X84517000Y-83169000D01*
X86617000Y-81869000D02*
X86617000Y-82469000D01*
X84517000Y-81169000D02*
X85917000Y-81169000D01*
X78977000Y-106343000D02*
X77327000Y-106343000D01*
X78977000Y-124243000D02*
X78977000Y-106343000D01*
X73677000Y-124243000D02*
X78977000Y-124243000D01*
X73677000Y-106343000D02*
X73677000Y-124243000D01*
X75327000Y-106343000D02*
X73677000Y-106343000D01*
X77327000Y-106343000D02*
G75*
G02X75327000Y-106343000I-1000000J0D01*
G01*
X132875000Y-96473000D02*
G75*
G03X127475000Y-96473000I-2700000J0D01*
G01*
X132875000Y-101473000D02*
G75*
G02X127475000Y-101473000I-2700000J0D01*
G01*
X132875000Y-101473000D02*
X132875000Y-96473000D01*
X127475000Y-101473000D02*
X127475000Y-96473000D01*
X119386726Y-62517799D02*
G75*
G02X114347000Y-66247000I-5039726J1540799D01*
G01*
X110310379Y-57588525D02*
G75*
G02X119461000Y-59703000I4036621J-3388475D01*
G01*
X109232609Y-62251881D02*
G75*
G02X109173000Y-59971000I5114391J1274881D01*
G01*
X114439030Y-66246357D02*
G75*
G02X110556000Y-64638000I-92030J5269357D01*
G01*
X85775000Y-95647000D02*
G75*
G02X86475000Y-96347000I0J-700000D01*
G01*
X86475000Y-96947000D02*
G75*
G02X85775000Y-97647000I-700000J0D01*
G01*
X84375000Y-97647000D02*
G75*
G02X83675000Y-96947000I0J700000D01*
G01*
X83675000Y-96347000D02*
G75*
G02X84375000Y-95647000I700000J0D01*
G01*
X83675000Y-96947000D02*
X83675000Y-96347000D01*
X85775000Y-97647000D02*
X84375000Y-97647000D01*
X86475000Y-96347000D02*
X86475000Y-96947000D01*
X84375000Y-95647000D02*
X85775000Y-95647000D01*
X79105000Y-81855000D02*
G75*
G02X77105000Y-81855000I-1000000J0D01*
G01*
X77105000Y-81855000D02*
X75455000Y-81855000D01*
X75455000Y-81855000D02*
X75455000Y-99755000D01*
X75455000Y-99755000D02*
X80755000Y-99755000D01*
X80755000Y-99755000D02*
X80755000Y-81855000D01*
X80755000Y-81855000D02*
X79105000Y-81855000D01*
X106178726Y-62517799D02*
G75*
G02X101139000Y-66247000I-5039726J1540799D01*
G01*
X97102379Y-57588525D02*
G75*
G02X106253000Y-59703000I4036621J-3388475D01*
G01*
X96024609Y-62251881D02*
G75*
G02X95965000Y-59971000I5114391J1274881D01*
G01*
X101231030Y-66246357D02*
G75*
G02X97348000Y-64638000I-92030J5269357D01*
G01*
X133610726Y-62517799D02*
G75*
G02X128571000Y-66247000I-5039726J1540799D01*
G01*
X124534379Y-57588525D02*
G75*
G02X133685000Y-59703000I4036621J-3388475D01*
G01*
X123456609Y-62251881D02*
G75*
G02X123397000Y-59971000I5114391J1274881D01*
G01*
X128663030Y-66246357D02*
G75*
G02X124780000Y-64638000I-92030J5269357D01*
G01*
X103437000Y-95558000D02*
X103437000Y-95958000D01*
X104537000Y-94158000D02*
X107437000Y-94158000D01*
X107437000Y-94158000D02*
X107437000Y-94758000D01*
X104537000Y-97358000D02*
X107437000Y-97358000D01*
X107437000Y-97358000D02*
X107437000Y-96758000D01*
X103637000Y-93958000D02*
X102937000Y-93958000D01*
X102937000Y-93958000D02*
X102937000Y-94658000D01*
X85805000Y-72787000D02*
G75*
G02X86505000Y-73487000I0J-700000D01*
G01*
X86505000Y-74087000D02*
G75*
G02X85805000Y-74787000I-700000J0D01*
G01*
X84405000Y-74787000D02*
G75*
G02X83705000Y-74087000I0J700000D01*
G01*
X83705000Y-73487000D02*
G75*
G02X84405000Y-72787000I700000J0D01*
G01*
X83705000Y-74087000D02*
X83705000Y-73487000D01*
X85805000Y-74787000D02*
X84405000Y-74787000D01*
X86505000Y-73487000D02*
X86505000Y-74087000D01*
X84405000Y-72787000D02*
X85805000Y-72787000D01*
X62199225Y-102034000D02*
X62199225Y-102534000D01*
X61949225Y-102284000D02*
X62449225Y-102284000D01*
X67355000Y-103475000D02*
X67355000Y-104043000D01*
X67315000Y-103241000D02*
X67315000Y-104277000D01*
X67275000Y-103082000D02*
X67275000Y-104436000D01*
X67235000Y-102954000D02*
X67235000Y-104564000D01*
X67195000Y-102844000D02*
X67195000Y-104674000D01*
X67155000Y-102748000D02*
X67155000Y-104770000D01*
X67115000Y-102661000D02*
X67115000Y-104857000D01*
X67075000Y-102581000D02*
X67075000Y-104937000D01*
X67035000Y-102508000D02*
X67035000Y-105010000D01*
X66995000Y-102440000D02*
X66995000Y-105078000D01*
X66955000Y-102376000D02*
X66955000Y-105142000D01*
X66915000Y-102316000D02*
X66915000Y-105202000D01*
X66875000Y-102259000D02*
X66875000Y-105259000D01*
X66835000Y-102205000D02*
X66835000Y-105313000D01*
X66795000Y-102154000D02*
X66795000Y-105364000D01*
X66755000Y-104799000D02*
X66755000Y-105412000D01*
X66755000Y-102106000D02*
X66755000Y-102719000D01*
X66715000Y-104799000D02*
X66715000Y-105458000D01*
X66715000Y-102060000D02*
X66715000Y-102719000D01*
X66675000Y-104799000D02*
X66675000Y-105502000D01*
X66675000Y-102016000D02*
X66675000Y-102719000D01*
X66635000Y-104799000D02*
X66635000Y-105544000D01*
X66635000Y-101974000D02*
X66635000Y-102719000D01*
X66595000Y-104799000D02*
X66595000Y-105585000D01*
X66595000Y-101933000D02*
X66595000Y-102719000D01*
X66555000Y-104799000D02*
X66555000Y-105623000D01*
X66555000Y-101895000D02*
X66555000Y-102719000D01*
X66515000Y-104799000D02*
X66515000Y-105660000D01*
X66515000Y-101858000D02*
X66515000Y-102719000D01*
X66475000Y-104799000D02*
X66475000Y-105696000D01*
X66475000Y-101822000D02*
X66475000Y-102719000D01*
X66435000Y-104799000D02*
X66435000Y-105730000D01*
X66435000Y-101788000D02*
X66435000Y-102719000D01*
X66395000Y-104799000D02*
X66395000Y-105763000D01*
X66395000Y-101755000D02*
X66395000Y-102719000D01*
X66355000Y-104799000D02*
X66355000Y-105794000D01*
X66355000Y-101724000D02*
X66355000Y-102719000D01*
X66315000Y-104799000D02*
X66315000Y-105824000D01*
X66315000Y-101694000D02*
X66315000Y-102719000D01*
X66275000Y-104799000D02*
X66275000Y-105854000D01*
X66275000Y-101664000D02*
X66275000Y-102719000D01*
X66235000Y-104799000D02*
X66235000Y-105881000D01*
X66235000Y-101637000D02*
X66235000Y-102719000D01*
X66195000Y-104799000D02*
X66195000Y-105908000D01*
X66195000Y-101610000D02*
X66195000Y-102719000D01*
X66155000Y-104799000D02*
X66155000Y-105934000D01*
X66155000Y-101584000D02*
X66155000Y-102719000D01*
X66115000Y-104799000D02*
X66115000Y-105959000D01*
X66115000Y-101559000D02*
X66115000Y-102719000D01*
X66075000Y-104799000D02*
X66075000Y-105983000D01*
X66075000Y-101535000D02*
X66075000Y-102719000D01*
X66035000Y-104799000D02*
X66035000Y-106006000D01*
X66035000Y-101512000D02*
X66035000Y-102719000D01*
X65995000Y-104799000D02*
X65995000Y-106027000D01*
X65995000Y-101491000D02*
X65995000Y-102719000D01*
X65955000Y-104799000D02*
X65955000Y-106049000D01*
X65955000Y-101469000D02*
X65955000Y-102719000D01*
X65915000Y-104799000D02*
X65915000Y-106069000D01*
X65915000Y-101449000D02*
X65915000Y-102719000D01*
X65875000Y-104799000D02*
X65875000Y-106088000D01*
X65875000Y-101430000D02*
X65875000Y-102719000D01*
X65835000Y-104799000D02*
X65835000Y-106107000D01*
X65835000Y-101411000D02*
X65835000Y-102719000D01*
X65795000Y-104799000D02*
X65795000Y-106124000D01*
X65795000Y-101394000D02*
X65795000Y-102719000D01*
X65755000Y-104799000D02*
X65755000Y-106141000D01*
X65755000Y-101377000D02*
X65755000Y-102719000D01*
X65715000Y-104799000D02*
X65715000Y-106157000D01*
X65715000Y-101361000D02*
X65715000Y-102719000D01*
X65675000Y-104799000D02*
X65675000Y-106173000D01*
X65675000Y-101345000D02*
X65675000Y-102719000D01*
X65635000Y-104799000D02*
X65635000Y-106187000D01*
X65635000Y-101331000D02*
X65635000Y-102719000D01*
X65595000Y-104799000D02*
X65595000Y-106201000D01*
X65595000Y-101317000D02*
X65595000Y-102719000D01*
X65555000Y-104799000D02*
X65555000Y-106214000D01*
X65555000Y-101304000D02*
X65555000Y-102719000D01*
X65515000Y-104799000D02*
X65515000Y-106227000D01*
X65515000Y-101291000D02*
X65515000Y-102719000D01*
X65475000Y-104799000D02*
X65475000Y-106239000D01*
X65475000Y-101279000D02*
X65475000Y-102719000D01*
X65434000Y-104799000D02*
X65434000Y-106250000D01*
X65434000Y-101268000D02*
X65434000Y-102719000D01*
X65394000Y-104799000D02*
X65394000Y-106260000D01*
X65394000Y-101258000D02*
X65394000Y-102719000D01*
X65354000Y-104799000D02*
X65354000Y-106270000D01*
X65354000Y-101248000D02*
X65354000Y-102719000D01*
X65314000Y-104799000D02*
X65314000Y-106279000D01*
X65314000Y-101239000D02*
X65314000Y-102719000D01*
X65274000Y-104799000D02*
X65274000Y-106287000D01*
X65274000Y-101231000D02*
X65274000Y-102719000D01*
X65234000Y-104799000D02*
X65234000Y-106295000D01*
X65234000Y-101223000D02*
X65234000Y-102719000D01*
X65194000Y-104799000D02*
X65194000Y-106302000D01*
X65194000Y-101216000D02*
X65194000Y-102719000D01*
X65154000Y-104799000D02*
X65154000Y-106309000D01*
X65154000Y-101209000D02*
X65154000Y-102719000D01*
X65114000Y-104799000D02*
X65114000Y-106315000D01*
X65114000Y-101203000D02*
X65114000Y-102719000D01*
X65074000Y-104799000D02*
X65074000Y-106320000D01*
X65074000Y-101198000D02*
X65074000Y-102719000D01*
X65034000Y-104799000D02*
X65034000Y-106324000D01*
X65034000Y-101194000D02*
X65034000Y-102719000D01*
X64994000Y-104799000D02*
X64994000Y-106328000D01*
X64994000Y-101190000D02*
X64994000Y-102719000D01*
X64954000Y-104799000D02*
X64954000Y-106332000D01*
X64954000Y-101186000D02*
X64954000Y-102719000D01*
X64914000Y-104799000D02*
X64914000Y-106335000D01*
X64914000Y-101183000D02*
X64914000Y-102719000D01*
X64874000Y-104799000D02*
X64874000Y-106337000D01*
X64874000Y-101181000D02*
X64874000Y-102719000D01*
X64834000Y-104799000D02*
X64834000Y-106338000D01*
X64834000Y-101180000D02*
X64834000Y-102719000D01*
X64794000Y-101179000D02*
X64794000Y-102719000D01*
X64794000Y-104799000D02*
X64794000Y-106339000D01*
X64754000Y-101179000D02*
X64754000Y-102719000D01*
X64754000Y-104799000D02*
X64754000Y-106339000D01*
X67374000Y-103759000D02*
G75*
G03X67374000Y-103759000I-2620000J0D01*
G01*
X76585578Y-125020000D02*
X76068422Y-125020000D01*
X76585578Y-126440000D02*
X76068422Y-126440000D01*
X66877000Y-120273578D02*
X66877000Y-119756422D01*
X65457000Y-120273578D02*
X65457000Y-119756422D01*
X66877000Y-116844578D02*
X66877000Y-116327422D01*
X65457000Y-116844578D02*
X65457000Y-116327422D01*
X85142000Y-110358422D02*
X85142000Y-110875578D01*
X86562000Y-110358422D02*
X86562000Y-110875578D01*
X101057000Y-102893000D02*
X101057000Y-110133000D01*
X97317000Y-102893000D02*
X97317000Y-110133000D01*
X101057000Y-102893000D02*
X97317000Y-102893000D01*
X101057000Y-110133000D02*
X97317000Y-110133000D01*
X85790000Y-100981000D02*
G75*
G02X86490000Y-101681000I0J-700000D01*
G01*
X86490000Y-102281000D02*
G75*
G02X85790000Y-102981000I-700000J0D01*
G01*
X84390000Y-102981000D02*
G75*
G02X83690000Y-102281000I0J700000D01*
G01*
X83690000Y-101681000D02*
G75*
G02X84390000Y-100981000I700000J0D01*
G01*
X83690000Y-102281000D02*
X83690000Y-101681000D01*
X85790000Y-102981000D02*
X84390000Y-102981000D01*
X86490000Y-101681000D02*
X86490000Y-102281000D01*
X84390000Y-100981000D02*
X85790000Y-100981000D01*
X85917000Y-78629000D02*
G75*
G02X86617000Y-79329000I0J-700000D01*
G01*
X86617000Y-79929000D02*
G75*
G02X85917000Y-80629000I-700000J0D01*
G01*
X84517000Y-80629000D02*
G75*
G02X83817000Y-79929000I0J700000D01*
G01*
X83817000Y-79329000D02*
G75*
G02X84517000Y-78629000I700000J0D01*
G01*
X83817000Y-79929000D02*
X83817000Y-79329000D01*
X85917000Y-80629000D02*
X84517000Y-80629000D01*
X86617000Y-79329000D02*
X86617000Y-79929000D01*
X84517000Y-78629000D02*
X85917000Y-78629000D01*
X124474000Y-95473000D02*
X123216000Y-95473000D01*
X124474000Y-97313000D02*
X123216000Y-97313000D01*
X124474000Y-100553000D02*
X123216000Y-100553000D01*
X124474000Y-102393000D02*
X123216000Y-102393000D01*
X100509000Y-97921578D02*
X100509000Y-97404422D01*
X101929000Y-97921578D02*
X101929000Y-97404422D01*
X83316578Y-109526000D02*
X82799422Y-109526000D01*
X83316578Y-110946000D02*
X82799422Y-110946000D01*
X83316578Y-112066000D02*
X82799422Y-112066000D01*
X83316578Y-113486000D02*
X82799422Y-113486000D01*
X83365078Y-114606000D02*
X82847922Y-114606000D01*
X83365078Y-116026000D02*
X82847922Y-116026000D01*
X106178726Y-73693799D02*
G75*
G02X101139000Y-77423000I-5039726J1540799D01*
G01*
X97102379Y-68764525D02*
G75*
G02X106253000Y-70879000I4036621J-3388475D01*
G01*
X96024609Y-73427881D02*
G75*
G02X95965000Y-71147000I5114391J1274881D01*
G01*
X101231030Y-77422357D02*
G75*
G02X97348000Y-75814000I-92030J5269357D01*
G01*
X129667000Y-79629000D02*
X129667000Y-74549000D01*
X127127000Y-79629000D02*
X129667000Y-79629000D01*
X127127000Y-82169000D02*
X127127000Y-79629000D01*
X124587000Y-82169000D02*
X127127000Y-82169000D01*
X124587000Y-79629000D02*
X124587000Y-82169000D01*
X129667000Y-82169000D02*
X128397000Y-82169000D01*
X129667000Y-80899000D02*
X129667000Y-82169000D01*
X124587000Y-79629000D02*
X124587000Y-74549000D01*
X129667000Y-74549000D02*
X124587000Y-74549000D01*
X106803000Y-112259000D02*
X106803000Y-105419000D01*
X114043000Y-112259000D02*
X114043000Y-105419000D01*
X109713000Y-105419000D02*
X106803000Y-105419000D01*
X114043000Y-105419000D02*
X111013000Y-105419000D01*
X109713000Y-112259000D02*
X106803000Y-112259000D01*
X114043000Y-112259000D02*
X111013000Y-112259000D01*
X98759000Y-99044000D02*
G75*
G03X98759000Y-99044000I-2620000J0D01*
G01*
X95099000Y-99044000D02*
X93559000Y-99044000D01*
X98719000Y-99044000D02*
X97179000Y-99044000D01*
X95099000Y-99084000D02*
X93559000Y-99084000D01*
X98719000Y-99084000D02*
X97179000Y-99084000D01*
X98718000Y-99124000D02*
X97179000Y-99124000D01*
X95099000Y-99124000D02*
X93560000Y-99124000D01*
X98717000Y-99164000D02*
X97179000Y-99164000D01*
X95099000Y-99164000D02*
X93561000Y-99164000D01*
X98715000Y-99204000D02*
X97179000Y-99204000D01*
X95099000Y-99204000D02*
X93563000Y-99204000D01*
X98712000Y-99244000D02*
X97179000Y-99244000D01*
X95099000Y-99244000D02*
X93566000Y-99244000D01*
X98708000Y-99284000D02*
X97179000Y-99284000D01*
X95099000Y-99284000D02*
X93570000Y-99284000D01*
X98704000Y-99324000D02*
X97179000Y-99324000D01*
X95099000Y-99324000D02*
X93574000Y-99324000D01*
X98700000Y-99364000D02*
X97179000Y-99364000D01*
X95099000Y-99364000D02*
X93578000Y-99364000D01*
X98695000Y-99404000D02*
X97179000Y-99404000D01*
X95099000Y-99404000D02*
X93583000Y-99404000D01*
X98689000Y-99444000D02*
X97179000Y-99444000D01*
X95099000Y-99444000D02*
X93589000Y-99444000D01*
X98682000Y-99484000D02*
X97179000Y-99484000D01*
X95099000Y-99484000D02*
X93596000Y-99484000D01*
X98675000Y-99524000D02*
X97179000Y-99524000D01*
X95099000Y-99524000D02*
X93603000Y-99524000D01*
X98667000Y-99564000D02*
X97179000Y-99564000D01*
X95099000Y-99564000D02*
X93611000Y-99564000D01*
X98659000Y-99604000D02*
X97179000Y-99604000D01*
X95099000Y-99604000D02*
X93619000Y-99604000D01*
X98650000Y-99644000D02*
X97179000Y-99644000D01*
X95099000Y-99644000D02*
X93628000Y-99644000D01*
X98640000Y-99684000D02*
X97179000Y-99684000D01*
X95099000Y-99684000D02*
X93638000Y-99684000D01*
X98630000Y-99724000D02*
X97179000Y-99724000D01*
X95099000Y-99724000D02*
X93648000Y-99724000D01*
X98619000Y-99765000D02*
X97179000Y-99765000D01*
X95099000Y-99765000D02*
X93659000Y-99765000D01*
X98607000Y-99805000D02*
X97179000Y-99805000D01*
X95099000Y-99805000D02*
X93671000Y-99805000D01*
X98594000Y-99845000D02*
X97179000Y-99845000D01*
X95099000Y-99845000D02*
X93684000Y-99845000D01*
X98581000Y-99885000D02*
X97179000Y-99885000D01*
X95099000Y-99885000D02*
X93697000Y-99885000D01*
X98567000Y-99925000D02*
X97179000Y-99925000D01*
X95099000Y-99925000D02*
X93711000Y-99925000D01*
X98553000Y-99965000D02*
X97179000Y-99965000D01*
X95099000Y-99965000D02*
X93725000Y-99965000D01*
X98537000Y-100005000D02*
X97179000Y-100005000D01*
X95099000Y-100005000D02*
X93741000Y-100005000D01*
X98521000Y-100045000D02*
X97179000Y-100045000D01*
X95099000Y-100045000D02*
X93757000Y-100045000D01*
X98504000Y-100085000D02*
X97179000Y-100085000D01*
X95099000Y-100085000D02*
X93774000Y-100085000D01*
X98487000Y-100125000D02*
X97179000Y-100125000D01*
X95099000Y-100125000D02*
X93791000Y-100125000D01*
X98468000Y-100165000D02*
X97179000Y-100165000D01*
X95099000Y-100165000D02*
X93810000Y-100165000D01*
X98449000Y-100205000D02*
X97179000Y-100205000D01*
X95099000Y-100205000D02*
X93829000Y-100205000D01*
X98429000Y-100245000D02*
X97179000Y-100245000D01*
X95099000Y-100245000D02*
X93849000Y-100245000D01*
X98407000Y-100285000D02*
X97179000Y-100285000D01*
X95099000Y-100285000D02*
X93871000Y-100285000D01*
X98386000Y-100325000D02*
X97179000Y-100325000D01*
X95099000Y-100325000D02*
X93892000Y-100325000D01*
X98363000Y-100365000D02*
X97179000Y-100365000D01*
X95099000Y-100365000D02*
X93915000Y-100365000D01*
X98339000Y-100405000D02*
X97179000Y-100405000D01*
X95099000Y-100405000D02*
X93939000Y-100405000D01*
X98314000Y-100445000D02*
X97179000Y-100445000D01*
X95099000Y-100445000D02*
X93964000Y-100445000D01*
X98288000Y-100485000D02*
X97179000Y-100485000D01*
X95099000Y-100485000D02*
X93990000Y-100485000D01*
X98261000Y-100525000D02*
X97179000Y-100525000D01*
X95099000Y-100525000D02*
X94017000Y-100525000D01*
X98234000Y-100565000D02*
X97179000Y-100565000D01*
X95099000Y-100565000D02*
X94044000Y-100565000D01*
X98204000Y-100605000D02*
X97179000Y-100605000D01*
X95099000Y-100605000D02*
X94074000Y-100605000D01*
X98174000Y-100645000D02*
X97179000Y-100645000D01*
X95099000Y-100645000D02*
X94104000Y-100645000D01*
X98143000Y-100685000D02*
X97179000Y-100685000D01*
X95099000Y-100685000D02*
X94135000Y-100685000D01*
X98110000Y-100725000D02*
X97179000Y-100725000D01*
X95099000Y-100725000D02*
X94168000Y-100725000D01*
X98076000Y-100765000D02*
X97179000Y-100765000D01*
X95099000Y-100765000D02*
X94202000Y-100765000D01*
X98040000Y-100805000D02*
X97179000Y-100805000D01*
X95099000Y-100805000D02*
X94238000Y-100805000D01*
X98003000Y-100845000D02*
X97179000Y-100845000D01*
X95099000Y-100845000D02*
X94275000Y-100845000D01*
X97965000Y-100885000D02*
X97179000Y-100885000D01*
X95099000Y-100885000D02*
X94313000Y-100885000D01*
X97924000Y-100925000D02*
X97179000Y-100925000D01*
X95099000Y-100925000D02*
X94354000Y-100925000D01*
X97882000Y-100965000D02*
X97179000Y-100965000D01*
X95099000Y-100965000D02*
X94396000Y-100965000D01*
X97838000Y-101005000D02*
X97179000Y-101005000D01*
X95099000Y-101005000D02*
X94440000Y-101005000D01*
X97792000Y-101045000D02*
X97179000Y-101045000D01*
X95099000Y-101045000D02*
X94486000Y-101045000D01*
X97744000Y-101085000D02*
X94534000Y-101085000D01*
X97693000Y-101125000D02*
X94585000Y-101125000D01*
X97639000Y-101165000D02*
X94639000Y-101165000D01*
X97582000Y-101205000D02*
X94696000Y-101205000D01*
X97522000Y-101245000D02*
X94756000Y-101245000D01*
X97458000Y-101285000D02*
X94820000Y-101285000D01*
X97390000Y-101325000D02*
X94888000Y-101325000D01*
X97317000Y-101365000D02*
X94961000Y-101365000D01*
X97237000Y-101405000D02*
X95041000Y-101405000D01*
X97150000Y-101445000D02*
X95128000Y-101445000D01*
X97054000Y-101485000D02*
X95224000Y-101485000D01*
X96944000Y-101525000D02*
X95334000Y-101525000D01*
X96816000Y-101565000D02*
X95462000Y-101565000D01*
X96657000Y-101605000D02*
X95621000Y-101605000D01*
X96423000Y-101645000D02*
X95855000Y-101645000D01*
X97614000Y-96239225D02*
X97614000Y-96739225D01*
X97864000Y-96489225D02*
X97364000Y-96489225D01*
X85775000Y-92345000D02*
G75*
G02X86475000Y-93045000I0J-700000D01*
G01*
X86475000Y-93645000D02*
G75*
G02X85775000Y-94345000I-700000J0D01*
G01*
X84375000Y-94345000D02*
G75*
G02X83675000Y-93645000I0J700000D01*
G01*
X83675000Y-93045000D02*
G75*
G02X84375000Y-92345000I700000J0D01*
G01*
X83675000Y-93645000D02*
X83675000Y-93045000D01*
X85775000Y-94345000D02*
X84375000Y-94345000D01*
X86475000Y-93045000D02*
X86475000Y-93645000D01*
X84375000Y-92345000D02*
X85775000Y-92345000D01*
X83365078Y-117146000D02*
X82847922Y-117146000D01*
X83365078Y-118566000D02*
X82847922Y-118566000D01*
X68702422Y-121106000D02*
X69219578Y-121106000D01*
X68702422Y-119686000D02*
X69219578Y-119686000D01*
X68702422Y-118566000D02*
X69219578Y-118566000D01*
X68702422Y-117146000D02*
X69219578Y-117146000D01*
X126032000Y-91840000D02*
X127532000Y-91840000D01*
X130032000Y-90590000D02*
X130032000Y-86090000D01*
X127532000Y-84840000D02*
X126032000Y-84840000D01*
X123532000Y-86090000D02*
X123532000Y-90590000D01*
X85805000Y-68469000D02*
G75*
G02X86505000Y-69169000I0J-700000D01*
G01*
X86505000Y-69769000D02*
G75*
G02X85805000Y-70469000I-700000J0D01*
G01*
X84405000Y-70469000D02*
G75*
G02X83705000Y-69769000I0J700000D01*
G01*
X83705000Y-69169000D02*
G75*
G02X84405000Y-68469000I700000J0D01*
G01*
X83705000Y-69769000D02*
X83705000Y-69169000D01*
X85805000Y-70469000D02*
X84405000Y-70469000D01*
X86505000Y-69169000D02*
X86505000Y-69769000D01*
X84405000Y-68469000D02*
X85805000Y-68469000D01*
X91507000Y-84979000D02*
G75*
G02X91507000Y-86979000I0J-1000000D01*
G01*
X91507000Y-86979000D02*
X91507000Y-88629000D01*
X91507000Y-88629000D02*
X117027000Y-88629000D01*
X117027000Y-88629000D02*
X117027000Y-83329000D01*
X117027000Y-83329000D02*
X91507000Y-83329000D01*
X91507000Y-83329000D02*
X91507000Y-84979000D01*
X150589275Y-66558500D02*
X150589275Y-66058500D01*
X150839275Y-66308500D02*
X150339275Y-66308500D01*
X145433500Y-65117500D02*
X145433500Y-64549500D01*
X145473500Y-65351500D02*
X145473500Y-64315500D01*
X145513500Y-65510500D02*
X145513500Y-64156500D01*
X145553500Y-65638500D02*
X145553500Y-64028500D01*
X145593500Y-65748500D02*
X145593500Y-63918500D01*
X145633500Y-65844500D02*
X145633500Y-63822500D01*
X145673500Y-65931500D02*
X145673500Y-63735500D01*
X145713500Y-66011500D02*
X145713500Y-63655500D01*
X145753500Y-66084500D02*
X145753500Y-63582500D01*
X145793500Y-66152500D02*
X145793500Y-63514500D01*
X145833500Y-66216500D02*
X145833500Y-63450500D01*
X145873500Y-66276500D02*
X145873500Y-63390500D01*
X145913500Y-66333500D02*
X145913500Y-63333500D01*
X145953500Y-66387500D02*
X145953500Y-63279500D01*
X145993500Y-66438500D02*
X145993500Y-63228500D01*
X146033500Y-63793500D02*
X146033500Y-63180500D01*
X146033500Y-66486500D02*
X146033500Y-65873500D01*
X146073500Y-63793500D02*
X146073500Y-63134500D01*
X146073500Y-66532500D02*
X146073500Y-65873500D01*
X146113500Y-63793500D02*
X146113500Y-63090500D01*
X146113500Y-66576500D02*
X146113500Y-65873500D01*
X146153500Y-63793500D02*
X146153500Y-63048500D01*
X146153500Y-66618500D02*
X146153500Y-65873500D01*
X146193500Y-63793500D02*
X146193500Y-63007500D01*
X146193500Y-66659500D02*
X146193500Y-65873500D01*
X146233500Y-63793500D02*
X146233500Y-62969500D01*
X146233500Y-66697500D02*
X146233500Y-65873500D01*
X146273500Y-63793500D02*
X146273500Y-62932500D01*
X146273500Y-66734500D02*
X146273500Y-65873500D01*
X146313500Y-63793500D02*
X146313500Y-62896500D01*
X146313500Y-66770500D02*
X146313500Y-65873500D01*
X146353500Y-63793500D02*
X146353500Y-62862500D01*
X146353500Y-66804500D02*
X146353500Y-65873500D01*
X146393500Y-63793500D02*
X146393500Y-62829500D01*
X146393500Y-66837500D02*
X146393500Y-65873500D01*
X146433500Y-63793500D02*
X146433500Y-62798500D01*
X146433500Y-66868500D02*
X146433500Y-65873500D01*
X146473500Y-63793500D02*
X146473500Y-62768500D01*
X146473500Y-66898500D02*
X146473500Y-65873500D01*
X146513500Y-63793500D02*
X146513500Y-62738500D01*
X146513500Y-66928500D02*
X146513500Y-65873500D01*
X146553500Y-63793500D02*
X146553500Y-62711500D01*
X146553500Y-66955500D02*
X146553500Y-65873500D01*
X146593500Y-63793500D02*
X146593500Y-62684500D01*
X146593500Y-66982500D02*
X146593500Y-65873500D01*
X146633500Y-63793500D02*
X146633500Y-62658500D01*
X146633500Y-67008500D02*
X146633500Y-65873500D01*
X146673500Y-63793500D02*
X146673500Y-62633500D01*
X146673500Y-67033500D02*
X146673500Y-65873500D01*
X146713500Y-63793500D02*
X146713500Y-62609500D01*
X146713500Y-67057500D02*
X146713500Y-65873500D01*
X146753500Y-63793500D02*
X146753500Y-62586500D01*
X146753500Y-67080500D02*
X146753500Y-65873500D01*
X146793500Y-63793500D02*
X146793500Y-62565500D01*
X146793500Y-67101500D02*
X146793500Y-65873500D01*
X146833500Y-63793500D02*
X146833500Y-62543500D01*
X146833500Y-67123500D02*
X146833500Y-65873500D01*
X146873500Y-63793500D02*
X146873500Y-62523500D01*
X146873500Y-67143500D02*
X146873500Y-65873500D01*
X146913500Y-63793500D02*
X146913500Y-62504500D01*
X146913500Y-67162500D02*
X146913500Y-65873500D01*
X146953500Y-63793500D02*
X146953500Y-62485500D01*
X146953500Y-67181500D02*
X146953500Y-65873500D01*
X146993500Y-63793500D02*
X146993500Y-62468500D01*
X146993500Y-67198500D02*
X146993500Y-65873500D01*
X147033500Y-63793500D02*
X147033500Y-62451500D01*
X147033500Y-67215500D02*
X147033500Y-65873500D01*
X147073500Y-63793500D02*
X147073500Y-62435500D01*
X147073500Y-67231500D02*
X147073500Y-65873500D01*
X147113500Y-63793500D02*
X147113500Y-62419500D01*
X147113500Y-67247500D02*
X147113500Y-65873500D01*
X147153500Y-63793500D02*
X147153500Y-62405500D01*
X147153500Y-67261500D02*
X147153500Y-65873500D01*
X147193500Y-63793500D02*
X147193500Y-62391500D01*
X147193500Y-67275500D02*
X147193500Y-65873500D01*
X147233500Y-63793500D02*
X147233500Y-62378500D01*
X147233500Y-67288500D02*
X147233500Y-65873500D01*
X147273500Y-63793500D02*
X147273500Y-62365500D01*
X147273500Y-67301500D02*
X147273500Y-65873500D01*
X147313500Y-63793500D02*
X147313500Y-62353500D01*
X147313500Y-67313500D02*
X147313500Y-65873500D01*
X147354500Y-63793500D02*
X147354500Y-62342500D01*
X147354500Y-67324500D02*
X147354500Y-65873500D01*
X147394500Y-63793500D02*
X147394500Y-62332500D01*
X147394500Y-67334500D02*
X147394500Y-65873500D01*
X147434500Y-63793500D02*
X147434500Y-62322500D01*
X147434500Y-67344500D02*
X147434500Y-65873500D01*
X147474500Y-63793500D02*
X147474500Y-62313500D01*
X147474500Y-67353500D02*
X147474500Y-65873500D01*
X147514500Y-63793500D02*
X147514500Y-62305500D01*
X147514500Y-67361500D02*
X147514500Y-65873500D01*
X147554500Y-63793500D02*
X147554500Y-62297500D01*
X147554500Y-67369500D02*
X147554500Y-65873500D01*
X147594500Y-63793500D02*
X147594500Y-62290500D01*
X147594500Y-67376500D02*
X147594500Y-65873500D01*
X147634500Y-63793500D02*
X147634500Y-62283500D01*
X147634500Y-67383500D02*
X147634500Y-65873500D01*
X147674500Y-63793500D02*
X147674500Y-62277500D01*
X147674500Y-67389500D02*
X147674500Y-65873500D01*
X147714500Y-63793500D02*
X147714500Y-62272500D01*
X147714500Y-67394500D02*
X147714500Y-65873500D01*
X147754500Y-63793500D02*
X147754500Y-62268500D01*
X147754500Y-67398500D02*
X147754500Y-65873500D01*
X147794500Y-63793500D02*
X147794500Y-62264500D01*
X147794500Y-67402500D02*
X147794500Y-65873500D01*
X147834500Y-63793500D02*
X147834500Y-62260500D01*
X147834500Y-67406500D02*
X147834500Y-65873500D01*
X147874500Y-63793500D02*
X147874500Y-62257500D01*
X147874500Y-67409500D02*
X147874500Y-65873500D01*
X147914500Y-63793500D02*
X147914500Y-62255500D01*
X147914500Y-67411500D02*
X147914500Y-65873500D01*
X147954500Y-63793500D02*
X147954500Y-62254500D01*
X147954500Y-67412500D02*
X147954500Y-65873500D01*
X147994500Y-67413500D02*
X147994500Y-65873500D01*
X147994500Y-63793500D02*
X147994500Y-62253500D01*
X148034500Y-67413500D02*
X148034500Y-65873500D01*
X148034500Y-63793500D02*
X148034500Y-62253500D01*
X150654500Y-64833500D02*
G75*
G03X150654500Y-64833500I-2620000J0D01*
G01*
X92324422Y-70537000D02*
X92841578Y-70537000D01*
X92324422Y-71957000D02*
X92841578Y-71957000D01*
X85142000Y-113787422D02*
X85142000Y-114304578D01*
X86562000Y-113787422D02*
X86562000Y-114304578D01*
X85142000Y-117216422D02*
X85142000Y-117733578D01*
X86562000Y-117216422D02*
X86562000Y-117733578D01*
X94519000Y-60692000D02*
X94519000Y-61950000D01*
X92679000Y-60692000D02*
X92679000Y-61950000D01*
X64075000Y-74565000D02*
G75*
G02X64075000Y-76565000I0J-1000000D01*
G01*
X64075000Y-76565000D02*
X64075000Y-78215000D01*
X64075000Y-78215000D02*
X81975000Y-78215000D01*
X81975000Y-78215000D02*
X81975000Y-72915000D01*
X81975000Y-72915000D02*
X64075000Y-72915000D01*
X64075000Y-72915000D02*
X64075000Y-74565000D01*
X81975000Y-64627000D02*
G75*
G02X81975000Y-62627000I0J1000000D01*
G01*
X81975000Y-62627000D02*
X81975000Y-60977000D01*
X81975000Y-60977000D02*
X64075000Y-60977000D01*
X64075000Y-60977000D02*
X64075000Y-66277000D01*
X64075000Y-66277000D02*
X81975000Y-66277000D01*
X81975000Y-66277000D02*
X81975000Y-64627000D01*
X119386726Y-73693799D02*
G75*
G02X114347000Y-77423000I-5039726J1540799D01*
G01*
X110310379Y-68764525D02*
G75*
G02X119461000Y-70879000I4036621J-3388475D01*
G01*
X109232609Y-73427881D02*
G75*
G02X109173000Y-71147000I5114391J1274881D01*
G01*
X114439030Y-77422357D02*
G75*
G02X110556000Y-75814000I-92030J5269357D01*
G01*
D11*
X139644380Y-65817190D02*
X138644380Y-65817190D01*
X138644380Y-65436238D01*
X138692000Y-65341000D01*
X138739619Y-65293380D01*
X138834857Y-65245761D01*
X138977714Y-65245761D01*
X139072952Y-65293380D01*
X139120571Y-65341000D01*
X139168190Y-65436238D01*
X139168190Y-65817190D01*
X139358666Y-64864809D02*
X139358666Y-64388619D01*
X139644380Y-64960047D02*
X138644380Y-64626714D01*
X139644380Y-64293380D01*
X139644380Y-63483857D02*
X139644380Y-63960047D01*
X138644380Y-63960047D01*
X139263428Y-63150523D02*
X139263428Y-62388619D01*
X139644380Y-62769571D02*
X138882476Y-62769571D01*
X139596761Y-61960047D02*
X139644380Y-61817190D01*
X139644380Y-61579095D01*
X139596761Y-61483857D01*
X139549142Y-61436238D01*
X139453904Y-61388619D01*
X139358666Y-61388619D01*
X139263428Y-61436238D01*
X139215809Y-61483857D01*
X139168190Y-61579095D01*
X139120571Y-61769571D01*
X139072952Y-61864809D01*
X139025333Y-61912428D01*
X138930095Y-61960047D01*
X138834857Y-61960047D01*
X138739619Y-61912428D01*
X138692000Y-61864809D01*
X138644380Y-61769571D01*
X138644380Y-61531476D01*
X138692000Y-61388619D01*
X139644380Y-60817190D02*
X139596761Y-60912428D01*
X139549142Y-60960047D01*
X139453904Y-61007666D01*
X139168190Y-61007666D01*
X139072952Y-60960047D01*
X139025333Y-60912428D01*
X138977714Y-60817190D01*
X138977714Y-60674333D01*
X139025333Y-60579095D01*
X139072952Y-60531476D01*
X139168190Y-60483857D01*
X139453904Y-60483857D01*
X139549142Y-60531476D01*
X139596761Y-60579095D01*
X139644380Y-60674333D01*
X139644380Y-60817190D01*
X138977714Y-59626714D02*
X139644380Y-59626714D01*
X138977714Y-60055285D02*
X139501523Y-60055285D01*
X139596761Y-60007666D01*
X139644380Y-59912428D01*
X139644380Y-59769571D01*
X139596761Y-59674333D01*
X139549142Y-59626714D01*
X138977714Y-59150523D02*
X139644380Y-59150523D01*
X139072952Y-59150523D02*
X139025333Y-59102904D01*
X138977714Y-59007666D01*
X138977714Y-58864809D01*
X139025333Y-58769571D01*
X139120571Y-58721952D01*
X139644380Y-58721952D01*
X139644380Y-57817190D02*
X138644380Y-57817190D01*
X139596761Y-57817190D02*
X139644380Y-57912428D01*
X139644380Y-58102904D01*
X139596761Y-58198142D01*
X139549142Y-58245761D01*
X139453904Y-58293380D01*
X139168190Y-58293380D01*
X139072952Y-58245761D01*
X139025333Y-58198142D01*
X138977714Y-58102904D01*
X138977714Y-57912428D01*
X139025333Y-57817190D01*
X138644380Y-57150523D02*
X138644380Y-57055285D01*
X138692000Y-56960047D01*
X138739619Y-56912428D01*
X138834857Y-56864809D01*
X139025333Y-56817190D01*
X139263428Y-56817190D01*
X139453904Y-56864809D01*
X139549142Y-56912428D01*
X139596761Y-56960047D01*
X139644380Y-57055285D01*
X139644380Y-57150523D01*
X139596761Y-57245761D01*
X139549142Y-57293380D01*
X139453904Y-57341000D01*
X139263428Y-57388619D01*
X139025333Y-57388619D01*
X138834857Y-57341000D01*
X138739619Y-57293380D01*
X138692000Y-57245761D01*
X138644380Y-57150523D01*
X66675095Y-96861380D02*
X66675095Y-97670904D01*
X66722714Y-97766142D01*
X66770333Y-97813761D01*
X66865571Y-97861380D01*
X67056047Y-97861380D01*
X67151285Y-97813761D01*
X67198904Y-97766142D01*
X67246523Y-97670904D01*
X67246523Y-96861380D01*
X68151285Y-96861380D02*
X67960809Y-96861380D01*
X67865571Y-96909000D01*
X67817952Y-96956619D01*
X67722714Y-97099476D01*
X67675095Y-97289952D01*
X67675095Y-97670904D01*
X67722714Y-97766142D01*
X67770333Y-97813761D01*
X67865571Y-97861380D01*
X68056047Y-97861380D01*
X68151285Y-97813761D01*
X68198904Y-97766142D01*
X68246523Y-97670904D01*
X68246523Y-97432809D01*
X68198904Y-97337571D01*
X68151285Y-97289952D01*
X68056047Y-97242333D01*
X67865571Y-97242333D01*
X67770333Y-97289952D01*
X67722714Y-97337571D01*
X67675095Y-97432809D01*
X98409166Y-127341380D02*
X98409166Y-128055666D01*
X98361547Y-128198523D01*
X98266309Y-128293761D01*
X98123452Y-128341380D01*
X98028214Y-128341380D01*
X99409166Y-128341380D02*
X98837738Y-128341380D01*
X99123452Y-128341380D02*
X99123452Y-127341380D01*
X99028214Y-127484238D01*
X98932976Y-127579476D01*
X98837738Y-127627095D01*
X83836142Y-62571380D02*
X84502809Y-63571380D01*
X84502809Y-62571380D02*
X83836142Y-63571380D01*
X84883761Y-63571380D02*
X84883761Y-62571380D01*
X85264714Y-62571380D01*
X85359952Y-62619000D01*
X85407571Y-62666619D01*
X85455190Y-62761857D01*
X85455190Y-62904714D01*
X85407571Y-62999952D01*
X85359952Y-63047571D01*
X85264714Y-63095190D01*
X84883761Y-63095190D01*
X85836142Y-63285666D02*
X86312333Y-63285666D01*
X85740904Y-63571380D02*
X86074238Y-62571380D01*
X86407571Y-63571380D01*
X87217095Y-63571380D02*
X86740904Y-63571380D01*
X86740904Y-62571380D01*
X87740904Y-62571380D02*
X87836142Y-62571380D01*
X87931380Y-62619000D01*
X87979000Y-62666619D01*
X88026619Y-62761857D01*
X88074238Y-62952333D01*
X88074238Y-63190428D01*
X88026619Y-63380904D01*
X87979000Y-63476142D01*
X87931380Y-63523761D01*
X87836142Y-63571380D01*
X87740904Y-63571380D01*
X87645666Y-63523761D01*
X87598047Y-63476142D01*
X87550428Y-63380904D01*
X87502809Y-63190428D01*
X87502809Y-62952333D01*
X87550428Y-62761857D01*
X87598047Y-62666619D01*
X87645666Y-62619000D01*
X87740904Y-62571380D01*
X141636904Y-70239000D02*
X141541666Y-70191380D01*
X141398809Y-70191380D01*
X141255952Y-70239000D01*
X141160714Y-70334238D01*
X141113095Y-70429476D01*
X141065476Y-70619952D01*
X141065476Y-70762809D01*
X141113095Y-70953285D01*
X141160714Y-71048523D01*
X141255952Y-71143761D01*
X141398809Y-71191380D01*
X141494047Y-71191380D01*
X141636904Y-71143761D01*
X141684523Y-71096142D01*
X141684523Y-70762809D01*
X141494047Y-70762809D01*
X142113095Y-71191380D02*
X142113095Y-70191380D01*
X142494047Y-70191380D01*
X142589285Y-70239000D01*
X142636904Y-70286619D01*
X142684523Y-70381857D01*
X142684523Y-70524714D01*
X142636904Y-70619952D01*
X142589285Y-70667571D01*
X142494047Y-70715190D01*
X142113095Y-70715190D01*
X143113095Y-70191380D02*
X143113095Y-71000904D01*
X143160714Y-71096142D01*
X143208333Y-71143761D01*
X143303571Y-71191380D01*
X143494047Y-71191380D01*
X143589285Y-71143761D01*
X143636904Y-71096142D01*
X143684523Y-71000904D01*
X143684523Y-70191380D01*
X144351190Y-70191380D02*
X144446428Y-70191380D01*
X144541666Y-70239000D01*
X144589285Y-70286619D01*
X144636904Y-70381857D01*
X144684523Y-70572333D01*
X144684523Y-70810428D01*
X144636904Y-71000904D01*
X144589285Y-71096142D01*
X144541666Y-71143761D01*
X144446428Y-71191380D01*
X144351190Y-71191380D01*
X144255952Y-71143761D01*
X144208333Y-71096142D01*
X144160714Y-71000904D01*
X144113095Y-70810428D01*
X144113095Y-70572333D01*
X144160714Y-70381857D01*
X144208333Y-70286619D01*
X144255952Y-70239000D01*
X144351190Y-70191380D01*
X110775761Y-95162619D02*
X110680523Y-95115000D01*
X110585285Y-95019761D01*
X110442428Y-94876904D01*
X110347190Y-94829285D01*
X110251952Y-94829285D01*
X110299571Y-95067380D02*
X110204333Y-95019761D01*
X110109095Y-94924523D01*
X110061476Y-94734047D01*
X110061476Y-94400714D01*
X110109095Y-94210238D01*
X110204333Y-94115000D01*
X110299571Y-94067380D01*
X110490047Y-94067380D01*
X110585285Y-94115000D01*
X110680523Y-94210238D01*
X110728142Y-94400714D01*
X110728142Y-94734047D01*
X110680523Y-94924523D01*
X110585285Y-95019761D01*
X110490047Y-95067380D01*
X110299571Y-95067380D01*
X111061476Y-94067380D02*
X111680523Y-94067380D01*
X111347190Y-94448333D01*
X111490047Y-94448333D01*
X111585285Y-94495952D01*
X111632904Y-94543571D01*
X111680523Y-94638809D01*
X111680523Y-94876904D01*
X111632904Y-94972142D01*
X111585285Y-95019761D01*
X111490047Y-95067380D01*
X111204333Y-95067380D01*
X111109095Y-95019761D01*
X111061476Y-94972142D01*
X102282833Y-102877880D02*
X102282833Y-101877880D01*
X102520928Y-101877880D01*
X102663785Y-101925500D01*
X102759023Y-102020738D01*
X102806642Y-102115976D01*
X102854261Y-102306452D01*
X102854261Y-102449309D01*
X102806642Y-102639785D01*
X102759023Y-102735023D01*
X102663785Y-102830261D01*
X102520928Y-102877880D01*
X102282833Y-102877880D01*
X103235214Y-102592166D02*
X103711404Y-102592166D01*
X103139976Y-102877880D02*
X103473309Y-101877880D01*
X103806642Y-102877880D01*
X104139976Y-102877880D02*
X104139976Y-101877880D01*
X104378071Y-101877880D01*
X104520928Y-101925500D01*
X104616166Y-102020738D01*
X104663785Y-102115976D01*
X104711404Y-102306452D01*
X104711404Y-102449309D01*
X104663785Y-102639785D01*
X104616166Y-102735023D01*
X104520928Y-102830261D01*
X104378071Y-102877880D01*
X104139976Y-102877880D01*
X105330452Y-101877880D02*
X105425690Y-101877880D01*
X105520928Y-101925500D01*
X105568547Y-101973119D01*
X105616166Y-102068357D01*
X105663785Y-102258833D01*
X105663785Y-102496928D01*
X105616166Y-102687404D01*
X105568547Y-102782642D01*
X105520928Y-102830261D01*
X105425690Y-102877880D01*
X105330452Y-102877880D01*
X105235214Y-102830261D01*
X105187595Y-102782642D01*
X105139976Y-102687404D01*
X105092357Y-102496928D01*
X105092357Y-102258833D01*
X105139976Y-102068357D01*
X105187595Y-101973119D01*
X105235214Y-101925500D01*
X105330452Y-101877880D01*
X112450833Y-105163880D02*
X112117500Y-104687690D01*
X111879404Y-105163880D02*
X111879404Y-104163880D01*
X112260357Y-104163880D01*
X112355595Y-104211500D01*
X112403214Y-104259119D01*
X112450833Y-104354357D01*
X112450833Y-104497214D01*
X112403214Y-104592452D01*
X112355595Y-104640071D01*
X112260357Y-104687690D01*
X111879404Y-104687690D01*
X112736547Y-104163880D02*
X113069880Y-105163880D01*
X113403214Y-104163880D01*
X114260357Y-105163880D02*
X113688928Y-105163880D01*
X113974642Y-105163880D02*
X113974642Y-104163880D01*
X113879404Y-104306738D01*
X113784166Y-104401976D01*
X113688928Y-104449595D01*
X114593690Y-104497214D02*
X114831785Y-105163880D01*
X115069880Y-104497214D01*
X115593690Y-105163880D02*
X115498452Y-105116261D01*
X115450833Y-105068642D01*
X115403214Y-104973404D01*
X115403214Y-104687690D01*
X115450833Y-104592452D01*
X115498452Y-104544833D01*
X115593690Y-104497214D01*
X115736547Y-104497214D01*
X115831785Y-104544833D01*
X115879404Y-104592452D01*
X115927023Y-104687690D01*
X115927023Y-104973404D01*
X115879404Y-105068642D01*
X115831785Y-105116261D01*
X115736547Y-105163880D01*
X115593690Y-105163880D01*
X116498452Y-105163880D02*
X116403214Y-105116261D01*
X116355595Y-105021023D01*
X116355595Y-104163880D01*
X117069880Y-104163880D02*
X117165119Y-104163880D01*
X117260357Y-104211500D01*
X117307976Y-104259119D01*
X117355595Y-104354357D01*
X117403214Y-104544833D01*
X117403214Y-104782928D01*
X117355595Y-104973404D01*
X117307976Y-105068642D01*
X117260357Y-105116261D01*
X117165119Y-105163880D01*
X117069880Y-105163880D01*
X116974642Y-105116261D01*
X116927023Y-105068642D01*
X116879404Y-104973404D01*
X116831785Y-104782928D01*
X116831785Y-104544833D01*
X116879404Y-104354357D01*
X116927023Y-104259119D01*
X116974642Y-104211500D01*
X117069880Y-104163880D01*
X64969380Y-114752238D02*
X64493190Y-115085571D01*
X64969380Y-115323666D02*
X63969380Y-115323666D01*
X63969380Y-114942714D01*
X64017000Y-114847476D01*
X64064619Y-114799857D01*
X64159857Y-114752238D01*
X64302714Y-114752238D01*
X64397952Y-114799857D01*
X64445571Y-114847476D01*
X64493190Y-114942714D01*
X64493190Y-115323666D01*
X64969380Y-114323666D02*
X63969380Y-114323666D01*
X63969380Y-114085571D01*
X64017000Y-113942714D01*
X64112238Y-113847476D01*
X64207476Y-113799857D01*
X64397952Y-113752238D01*
X64540809Y-113752238D01*
X64731285Y-113799857D01*
X64826523Y-113847476D01*
X64921761Y-113942714D01*
X64969380Y-114085571D01*
X64969380Y-114323666D01*
X64683666Y-113371285D02*
X64683666Y-112895095D01*
X64969380Y-113466523D02*
X63969380Y-113133190D01*
X64969380Y-112799857D01*
X64874142Y-111895095D02*
X64921761Y-111942714D01*
X64969380Y-112085571D01*
X64969380Y-112180809D01*
X64921761Y-112323666D01*
X64826523Y-112418904D01*
X64731285Y-112466523D01*
X64540809Y-112514142D01*
X64397952Y-112514142D01*
X64207476Y-112466523D01*
X64112238Y-112418904D01*
X64017000Y-112323666D01*
X63969380Y-112180809D01*
X63969380Y-112085571D01*
X64017000Y-111942714D01*
X64064619Y-111895095D01*
X63969380Y-111276047D02*
X63969380Y-111180809D01*
X64017000Y-111085571D01*
X64064619Y-111037952D01*
X64159857Y-110990333D01*
X64350333Y-110942714D01*
X64588428Y-110942714D01*
X64778904Y-110990333D01*
X64874142Y-111037952D01*
X64921761Y-111085571D01*
X64969380Y-111180809D01*
X64969380Y-111276047D01*
X64921761Y-111371285D01*
X64874142Y-111418904D01*
X64778904Y-111466523D01*
X64588428Y-111514142D01*
X64350333Y-111514142D01*
X64159857Y-111466523D01*
X64064619Y-111418904D01*
X64017000Y-111371285D01*
X63969380Y-111276047D01*
X87304666Y-98766380D02*
X87304666Y-99480666D01*
X87257047Y-99623523D01*
X87161809Y-99718761D01*
X87018952Y-99766380D01*
X86923714Y-99766380D01*
X87780857Y-99766380D02*
X87780857Y-98766380D01*
X88161809Y-98766380D01*
X88257047Y-98814000D01*
X88304666Y-98861619D01*
X88352285Y-98956857D01*
X88352285Y-99099714D01*
X88304666Y-99194952D01*
X88257047Y-99242571D01*
X88161809Y-99290190D01*
X87780857Y-99290190D01*
X88923714Y-99194952D02*
X88828476Y-99147333D01*
X88780857Y-99099714D01*
X88733238Y-99004476D01*
X88733238Y-98956857D01*
X88780857Y-98861619D01*
X88828476Y-98814000D01*
X88923714Y-98766380D01*
X89114190Y-98766380D01*
X89209428Y-98814000D01*
X89257047Y-98861619D01*
X89304666Y-98956857D01*
X89304666Y-99004476D01*
X89257047Y-99099714D01*
X89209428Y-99147333D01*
X89114190Y-99194952D01*
X88923714Y-99194952D01*
X88828476Y-99242571D01*
X88780857Y-99290190D01*
X88733238Y-99385428D01*
X88733238Y-99575904D01*
X88780857Y-99671142D01*
X88828476Y-99718761D01*
X88923714Y-99766380D01*
X89114190Y-99766380D01*
X89209428Y-99718761D01*
X89257047Y-99671142D01*
X89304666Y-99575904D01*
X89304666Y-99385428D01*
X89257047Y-99290190D01*
X89209428Y-99242571D01*
X89114190Y-99194952D01*
X66635571Y-109164380D02*
X66302238Y-108688190D01*
X66064142Y-109164380D02*
X66064142Y-108164380D01*
X66445095Y-108164380D01*
X66540333Y-108212000D01*
X66587952Y-108259619D01*
X66635571Y-108354857D01*
X66635571Y-108497714D01*
X66587952Y-108592952D01*
X66540333Y-108640571D01*
X66445095Y-108688190D01*
X66064142Y-108688190D01*
X67016523Y-108259619D02*
X67064142Y-108212000D01*
X67159380Y-108164380D01*
X67397476Y-108164380D01*
X67492714Y-108212000D01*
X67540333Y-108259619D01*
X67587952Y-108354857D01*
X67587952Y-108450095D01*
X67540333Y-108592952D01*
X66968904Y-109164380D01*
X67587952Y-109164380D01*
X68016523Y-109164380D02*
X68016523Y-108164380D01*
X68254619Y-108164380D01*
X68397476Y-108212000D01*
X68492714Y-108307238D01*
X68540333Y-108402476D01*
X68587952Y-108592952D01*
X68587952Y-108735809D01*
X68540333Y-108926285D01*
X68492714Y-109021523D01*
X68397476Y-109116761D01*
X68254619Y-109164380D01*
X68016523Y-109164380D01*
X68968904Y-108878666D02*
X69445095Y-108878666D01*
X68873666Y-109164380D02*
X69207000Y-108164380D01*
X69540333Y-109164380D01*
X70445095Y-109069142D02*
X70397476Y-109116761D01*
X70254619Y-109164380D01*
X70159380Y-109164380D01*
X70016523Y-109116761D01*
X69921285Y-109021523D01*
X69873666Y-108926285D01*
X69826047Y-108735809D01*
X69826047Y-108592952D01*
X69873666Y-108402476D01*
X69921285Y-108307238D01*
X70016523Y-108212000D01*
X70159380Y-108164380D01*
X70254619Y-108164380D01*
X70397476Y-108212000D01*
X70445095Y-108259619D01*
X70826047Y-108259619D02*
X70873666Y-108212000D01*
X70968904Y-108164380D01*
X71207000Y-108164380D01*
X71302238Y-108212000D01*
X71349857Y-108259619D01*
X71397476Y-108354857D01*
X71397476Y-108450095D01*
X71349857Y-108592952D01*
X70778428Y-109164380D01*
X71397476Y-109164380D01*
X66635571Y-107767380D02*
X66302238Y-107291190D01*
X66064142Y-107767380D02*
X66064142Y-106767380D01*
X66445095Y-106767380D01*
X66540333Y-106815000D01*
X66587952Y-106862619D01*
X66635571Y-106957857D01*
X66635571Y-107100714D01*
X66587952Y-107195952D01*
X66540333Y-107243571D01*
X66445095Y-107291190D01*
X66064142Y-107291190D01*
X67016523Y-106862619D02*
X67064142Y-106815000D01*
X67159380Y-106767380D01*
X67397476Y-106767380D01*
X67492714Y-106815000D01*
X67540333Y-106862619D01*
X67587952Y-106957857D01*
X67587952Y-107053095D01*
X67540333Y-107195952D01*
X66968904Y-107767380D01*
X67587952Y-107767380D01*
X68016523Y-107767380D02*
X68016523Y-106767380D01*
X68254619Y-106767380D01*
X68397476Y-106815000D01*
X68492714Y-106910238D01*
X68540333Y-107005476D01*
X68587952Y-107195952D01*
X68587952Y-107338809D01*
X68540333Y-107529285D01*
X68492714Y-107624523D01*
X68397476Y-107719761D01*
X68254619Y-107767380D01*
X68016523Y-107767380D01*
X68968904Y-107481666D02*
X69445095Y-107481666D01*
X68873666Y-107767380D02*
X69207000Y-106767380D01*
X69540333Y-107767380D01*
X70445095Y-107672142D02*
X70397476Y-107719761D01*
X70254619Y-107767380D01*
X70159380Y-107767380D01*
X70016523Y-107719761D01*
X69921285Y-107624523D01*
X69873666Y-107529285D01*
X69826047Y-107338809D01*
X69826047Y-107195952D01*
X69873666Y-107005476D01*
X69921285Y-106910238D01*
X70016523Y-106815000D01*
X70159380Y-106767380D01*
X70254619Y-106767380D01*
X70397476Y-106815000D01*
X70445095Y-106862619D01*
X71064142Y-106767380D02*
X71159380Y-106767380D01*
X71254619Y-106815000D01*
X71302238Y-106862619D01*
X71349857Y-106957857D01*
X71397476Y-107148333D01*
X71397476Y-107386428D01*
X71349857Y-107576904D01*
X71302238Y-107672142D01*
X71254619Y-107719761D01*
X71159380Y-107767380D01*
X71064142Y-107767380D01*
X70968904Y-107719761D01*
X70921285Y-107672142D01*
X70873666Y-107576904D01*
X70826047Y-107386428D01*
X70826047Y-107148333D01*
X70873666Y-106957857D01*
X70921285Y-106862619D01*
X70968904Y-106815000D01*
X71064142Y-106767380D01*
X106243380Y-80009857D02*
X105767190Y-80343190D01*
X106243380Y-80581285D02*
X105243380Y-80581285D01*
X105243380Y-80200333D01*
X105291000Y-80105095D01*
X105338619Y-80057476D01*
X105433857Y-80009857D01*
X105576714Y-80009857D01*
X105671952Y-80057476D01*
X105719571Y-80105095D01*
X105767190Y-80200333D01*
X105767190Y-80581285D01*
X106195761Y-79628904D02*
X106243380Y-79486047D01*
X106243380Y-79247952D01*
X106195761Y-79152714D01*
X106148142Y-79105095D01*
X106052904Y-79057476D01*
X105957666Y-79057476D01*
X105862428Y-79105095D01*
X105814809Y-79152714D01*
X105767190Y-79247952D01*
X105719571Y-79438428D01*
X105671952Y-79533666D01*
X105624333Y-79581285D01*
X105529095Y-79628904D01*
X105433857Y-79628904D01*
X105338619Y-79581285D01*
X105291000Y-79533666D01*
X105243380Y-79438428D01*
X105243380Y-79200333D01*
X105291000Y-79057476D01*
X106148142Y-78057476D02*
X106195761Y-78105095D01*
X106243380Y-78247952D01*
X106243380Y-78343190D01*
X106195761Y-78486047D01*
X106100523Y-78581285D01*
X106005285Y-78628904D01*
X105814809Y-78676523D01*
X105671952Y-78676523D01*
X105481476Y-78628904D01*
X105386238Y-78581285D01*
X105291000Y-78486047D01*
X105243380Y-78343190D01*
X105243380Y-78247952D01*
X105291000Y-78105095D01*
X105338619Y-78057476D01*
X106243380Y-77105095D02*
X106243380Y-77676523D01*
X106243380Y-77390809D02*
X105243380Y-77390809D01*
X105386238Y-77486047D01*
X105481476Y-77581285D01*
X105529095Y-77676523D01*
X112998404Y-98766380D02*
X112998404Y-99575904D01*
X113046023Y-99671142D01*
X113093642Y-99718761D01*
X113188880Y-99766380D01*
X113379357Y-99766380D01*
X113474595Y-99718761D01*
X113522214Y-99671142D01*
X113569833Y-99575904D01*
X113569833Y-98766380D01*
X114569833Y-99766380D02*
X113998404Y-99766380D01*
X114284119Y-99766380D02*
X114284119Y-98766380D01*
X114188880Y-98909238D01*
X114093642Y-99004476D01*
X113998404Y-99052095D01*
X115522214Y-99766380D02*
X114950785Y-99766380D01*
X115236500Y-99766380D02*
X115236500Y-98766380D01*
X115141261Y-98909238D01*
X115046023Y-99004476D01*
X114950785Y-99052095D01*
X87431666Y-81621380D02*
X87431666Y-82335666D01*
X87384047Y-82478523D01*
X87288809Y-82573761D01*
X87145952Y-82621380D01*
X87050714Y-82621380D01*
X87907857Y-82621380D02*
X87907857Y-81621380D01*
X88288809Y-81621380D01*
X88384047Y-81669000D01*
X88431666Y-81716619D01*
X88479285Y-81811857D01*
X88479285Y-81954714D01*
X88431666Y-82049952D01*
X88384047Y-82097571D01*
X88288809Y-82145190D01*
X87907857Y-82145190D01*
X88812619Y-81621380D02*
X89479285Y-81621380D01*
X89050714Y-82621380D01*
X75565095Y-104795380D02*
X75565095Y-105604904D01*
X75612714Y-105700142D01*
X75660333Y-105747761D01*
X75755571Y-105795380D01*
X75946047Y-105795380D01*
X76041285Y-105747761D01*
X76088904Y-105700142D01*
X76136523Y-105604904D01*
X76136523Y-104795380D01*
X76755571Y-105223952D02*
X76660333Y-105176333D01*
X76612714Y-105128714D01*
X76565095Y-105033476D01*
X76565095Y-104985857D01*
X76612714Y-104890619D01*
X76660333Y-104843000D01*
X76755571Y-104795380D01*
X76946047Y-104795380D01*
X77041285Y-104843000D01*
X77088904Y-104890619D01*
X77136523Y-104985857D01*
X77136523Y-105033476D01*
X77088904Y-105128714D01*
X77041285Y-105176333D01*
X76946047Y-105223952D01*
X76755571Y-105223952D01*
X76660333Y-105271571D01*
X76612714Y-105319190D01*
X76565095Y-105414428D01*
X76565095Y-105604904D01*
X76612714Y-105700142D01*
X76660333Y-105747761D01*
X76755571Y-105795380D01*
X76946047Y-105795380D01*
X77041285Y-105747761D01*
X77088904Y-105700142D01*
X77136523Y-105604904D01*
X77136523Y-105414428D01*
X77088904Y-105319190D01*
X77041285Y-105271571D01*
X76946047Y-105223952D01*
X129627380Y-99742523D02*
X130627380Y-99075857D01*
X129627380Y-99075857D02*
X130627380Y-99742523D01*
X129627380Y-98504428D02*
X129627380Y-98409190D01*
X129675000Y-98313952D01*
X129722619Y-98266333D01*
X129817857Y-98218714D01*
X130008333Y-98171095D01*
X130246428Y-98171095D01*
X130436904Y-98218714D01*
X130532142Y-98266333D01*
X130579761Y-98313952D01*
X130627380Y-98409190D01*
X130627380Y-98504428D01*
X130579761Y-98599666D01*
X130532142Y-98647285D01*
X130436904Y-98694904D01*
X130246428Y-98742523D01*
X130008333Y-98742523D01*
X129817857Y-98694904D01*
X129722619Y-98647285D01*
X129675000Y-98599666D01*
X129627380Y-98504428D01*
X112815833Y-61729880D02*
X112482500Y-61253690D01*
X112244404Y-61729880D02*
X112244404Y-60729880D01*
X112625357Y-60729880D01*
X112720595Y-60777500D01*
X112768214Y-60825119D01*
X112815833Y-60920357D01*
X112815833Y-61063214D01*
X112768214Y-61158452D01*
X112720595Y-61206071D01*
X112625357Y-61253690D01*
X112244404Y-61253690D01*
X113244404Y-61729880D02*
X113244404Y-60729880D01*
X113577738Y-61444166D01*
X113911071Y-60729880D01*
X113911071Y-61729880D01*
X114244404Y-60729880D02*
X114577738Y-61729880D01*
X114911071Y-60729880D01*
X115434880Y-60729880D02*
X115530119Y-60729880D01*
X115625357Y-60777500D01*
X115672976Y-60825119D01*
X115720595Y-60920357D01*
X115768214Y-61110833D01*
X115768214Y-61348928D01*
X115720595Y-61539404D01*
X115672976Y-61634642D01*
X115625357Y-61682261D01*
X115530119Y-61729880D01*
X115434880Y-61729880D01*
X115339642Y-61682261D01*
X115292023Y-61634642D01*
X115244404Y-61539404D01*
X115196785Y-61348928D01*
X115196785Y-61110833D01*
X115244404Y-60920357D01*
X115292023Y-60825119D01*
X115339642Y-60777500D01*
X115434880Y-60729880D01*
X87289666Y-96099380D02*
X87289666Y-96813666D01*
X87242047Y-96956523D01*
X87146809Y-97051761D01*
X87003952Y-97099380D01*
X86908714Y-97099380D01*
X87765857Y-97099380D02*
X87765857Y-96099380D01*
X88146809Y-96099380D01*
X88242047Y-96147000D01*
X88289666Y-96194619D01*
X88337285Y-96289857D01*
X88337285Y-96432714D01*
X88289666Y-96527952D01*
X88242047Y-96575571D01*
X88146809Y-96623190D01*
X87765857Y-96623190D01*
X89194428Y-96432714D02*
X89194428Y-97099380D01*
X88956333Y-96051761D02*
X88718238Y-96766047D01*
X89337285Y-96766047D01*
X77343095Y-83526380D02*
X77343095Y-84335904D01*
X77390714Y-84431142D01*
X77438333Y-84478761D01*
X77533571Y-84526380D01*
X77724047Y-84526380D01*
X77819285Y-84478761D01*
X77866904Y-84431142D01*
X77914523Y-84335904D01*
X77914523Y-83526380D01*
X78866904Y-83526380D02*
X78390714Y-83526380D01*
X78343095Y-84002571D01*
X78390714Y-83954952D01*
X78485952Y-83907333D01*
X78724047Y-83907333D01*
X78819285Y-83954952D01*
X78866904Y-84002571D01*
X78914523Y-84097809D01*
X78914523Y-84335904D01*
X78866904Y-84431142D01*
X78819285Y-84478761D01*
X78724047Y-84526380D01*
X78485952Y-84526380D01*
X78390714Y-84478761D01*
X78343095Y-84431142D01*
X99171333Y-61793380D02*
X98838000Y-61317190D01*
X98599904Y-61793380D02*
X98599904Y-60793380D01*
X98980857Y-60793380D01*
X99076095Y-60841000D01*
X99123714Y-60888619D01*
X99171333Y-60983857D01*
X99171333Y-61126714D01*
X99123714Y-61221952D01*
X99076095Y-61269571D01*
X98980857Y-61317190D01*
X98599904Y-61317190D01*
X99599904Y-61793380D02*
X99599904Y-60793380D01*
X99980857Y-60793380D01*
X100076095Y-60841000D01*
X100123714Y-60888619D01*
X100171333Y-60983857D01*
X100171333Y-61126714D01*
X100123714Y-61221952D01*
X100076095Y-61269571D01*
X99980857Y-61317190D01*
X99599904Y-61317190D01*
X100599904Y-60793380D02*
X100599904Y-61602904D01*
X100647523Y-61698142D01*
X100695142Y-61745761D01*
X100790380Y-61793380D01*
X100980857Y-61793380D01*
X101076095Y-61745761D01*
X101123714Y-61698142D01*
X101171333Y-61602904D01*
X101171333Y-60793380D01*
X101599904Y-61745761D02*
X101742761Y-61793380D01*
X101980857Y-61793380D01*
X102076095Y-61745761D01*
X102123714Y-61698142D01*
X102171333Y-61602904D01*
X102171333Y-61507666D01*
X102123714Y-61412428D01*
X102076095Y-61364809D01*
X101980857Y-61317190D01*
X101790380Y-61269571D01*
X101695142Y-61221952D01*
X101647523Y-61174333D01*
X101599904Y-61079095D01*
X101599904Y-60983857D01*
X101647523Y-60888619D01*
X101695142Y-60841000D01*
X101790380Y-60793380D01*
X102028476Y-60793380D01*
X102171333Y-60841000D01*
X102790380Y-60793380D02*
X102885619Y-60793380D01*
X102980857Y-60841000D01*
X103028476Y-60888619D01*
X103076095Y-60983857D01*
X103123714Y-61174333D01*
X103123714Y-61412428D01*
X103076095Y-61602904D01*
X103028476Y-61698142D01*
X102980857Y-61745761D01*
X102885619Y-61793380D01*
X102790380Y-61793380D01*
X102695142Y-61745761D01*
X102647523Y-61698142D01*
X102599904Y-61602904D01*
X102552285Y-61412428D01*
X102552285Y-61174333D01*
X102599904Y-60983857D01*
X102647523Y-60888619D01*
X102695142Y-60841000D01*
X102790380Y-60793380D01*
X127420833Y-61539380D02*
X127087500Y-61063190D01*
X126849404Y-61539380D02*
X126849404Y-60539380D01*
X127230357Y-60539380D01*
X127325595Y-60587000D01*
X127373214Y-60634619D01*
X127420833Y-60729857D01*
X127420833Y-60872714D01*
X127373214Y-60967952D01*
X127325595Y-61015571D01*
X127230357Y-61063190D01*
X126849404Y-61063190D01*
X127849404Y-61539380D02*
X127849404Y-60539380D01*
X128182738Y-61253666D01*
X128516071Y-60539380D01*
X128516071Y-61539380D01*
X128849404Y-60539380D02*
X129182738Y-61539380D01*
X129516071Y-60539380D01*
X129801785Y-60634619D02*
X129849404Y-60587000D01*
X129944642Y-60539380D01*
X130182738Y-60539380D01*
X130277976Y-60587000D01*
X130325595Y-60634619D01*
X130373214Y-60729857D01*
X130373214Y-60825095D01*
X130325595Y-60967952D01*
X129754166Y-61539380D01*
X130373214Y-61539380D01*
X104346523Y-93710380D02*
X104013190Y-93234190D01*
X103775095Y-93710380D02*
X103775095Y-92710380D01*
X104156047Y-92710380D01*
X104251285Y-92758000D01*
X104298904Y-92805619D01*
X104346523Y-92900857D01*
X104346523Y-93043714D01*
X104298904Y-93138952D01*
X104251285Y-93186571D01*
X104156047Y-93234190D01*
X103775095Y-93234190D01*
X104965571Y-92710380D02*
X105156047Y-92710380D01*
X105251285Y-92758000D01*
X105346523Y-92853238D01*
X105394142Y-93043714D01*
X105394142Y-93377047D01*
X105346523Y-93567523D01*
X105251285Y-93662761D01*
X105156047Y-93710380D01*
X104965571Y-93710380D01*
X104870333Y-93662761D01*
X104775095Y-93567523D01*
X104727476Y-93377047D01*
X104727476Y-93043714D01*
X104775095Y-92853238D01*
X104870333Y-92758000D01*
X104965571Y-92710380D01*
X106394142Y-93615142D02*
X106346523Y-93662761D01*
X106203666Y-93710380D01*
X106108428Y-93710380D01*
X105965571Y-93662761D01*
X105870333Y-93567523D01*
X105822714Y-93472285D01*
X105775095Y-93281809D01*
X105775095Y-93138952D01*
X105822714Y-92948476D01*
X105870333Y-92853238D01*
X105965571Y-92758000D01*
X106108428Y-92710380D01*
X106203666Y-92710380D01*
X106346523Y-92758000D01*
X106394142Y-92805619D01*
X107346523Y-93710380D02*
X106775095Y-93710380D01*
X107060809Y-93710380D02*
X107060809Y-92710380D01*
X106965571Y-92853238D01*
X106870333Y-92948476D01*
X106775095Y-92996095D01*
X87431666Y-73239380D02*
X87431666Y-73953666D01*
X87384047Y-74096523D01*
X87288809Y-74191761D01*
X87145952Y-74239380D01*
X87050714Y-74239380D01*
X87907857Y-74239380D02*
X87907857Y-73239380D01*
X88288809Y-73239380D01*
X88384047Y-73287000D01*
X88431666Y-73334619D01*
X88479285Y-73429857D01*
X88479285Y-73572714D01*
X88431666Y-73667952D01*
X88384047Y-73715571D01*
X88288809Y-73763190D01*
X87907857Y-73763190D01*
X88860238Y-73334619D02*
X88907857Y-73287000D01*
X89003095Y-73239380D01*
X89241190Y-73239380D01*
X89336428Y-73287000D01*
X89384047Y-73334619D01*
X89431666Y-73429857D01*
X89431666Y-73525095D01*
X89384047Y-73667952D01*
X88812619Y-74239380D01*
X89431666Y-74239380D01*
X68595952Y-104624142D02*
X68548333Y-104671761D01*
X68405476Y-104719380D01*
X68310238Y-104719380D01*
X68167380Y-104671761D01*
X68072142Y-104576523D01*
X68024523Y-104481285D01*
X67976904Y-104290809D01*
X67976904Y-104147952D01*
X68024523Y-103957476D01*
X68072142Y-103862238D01*
X68167380Y-103767000D01*
X68310238Y-103719380D01*
X68405476Y-103719380D01*
X68548333Y-103767000D01*
X68595952Y-103814619D01*
X69024523Y-104195571D02*
X69357857Y-104195571D01*
X69500714Y-104719380D02*
X69024523Y-104719380D01*
X69024523Y-103719380D01*
X69500714Y-103719380D01*
X70453095Y-104719380D02*
X69881666Y-104719380D01*
X70167380Y-104719380D02*
X70167380Y-103719380D01*
X70072142Y-103862238D01*
X69976904Y-103957476D01*
X69881666Y-104005095D01*
X74731761Y-127832380D02*
X74398428Y-127356190D01*
X74160333Y-127832380D02*
X74160333Y-126832380D01*
X74541285Y-126832380D01*
X74636523Y-126880000D01*
X74684142Y-126927619D01*
X74731761Y-127022857D01*
X74731761Y-127165714D01*
X74684142Y-127260952D01*
X74636523Y-127308571D01*
X74541285Y-127356190D01*
X74160333Y-127356190D01*
X75160333Y-127832380D02*
X75160333Y-126832380D01*
X75398428Y-126832380D01*
X75541285Y-126880000D01*
X75636523Y-126975238D01*
X75684142Y-127070476D01*
X75731761Y-127260952D01*
X75731761Y-127403809D01*
X75684142Y-127594285D01*
X75636523Y-127689523D01*
X75541285Y-127784761D01*
X75398428Y-127832380D01*
X75160333Y-127832380D01*
X76112714Y-127546666D02*
X76588904Y-127546666D01*
X76017476Y-127832380D02*
X76350809Y-126832380D01*
X76684142Y-127832380D01*
X77588904Y-127737142D02*
X77541285Y-127784761D01*
X77398428Y-127832380D01*
X77303190Y-127832380D01*
X77160333Y-127784761D01*
X77065095Y-127689523D01*
X77017476Y-127594285D01*
X76969857Y-127403809D01*
X76969857Y-127260952D01*
X77017476Y-127070476D01*
X77065095Y-126975238D01*
X77160333Y-126880000D01*
X77303190Y-126832380D01*
X77398428Y-126832380D01*
X77541285Y-126880000D01*
X77588904Y-126927619D01*
X77922238Y-126832380D02*
X78541285Y-126832380D01*
X78207952Y-127213333D01*
X78350809Y-127213333D01*
X78446047Y-127260952D01*
X78493666Y-127308571D01*
X78541285Y-127403809D01*
X78541285Y-127641904D01*
X78493666Y-127737142D01*
X78446047Y-127784761D01*
X78350809Y-127832380D01*
X78065095Y-127832380D01*
X77969857Y-127784761D01*
X77922238Y-127737142D01*
X64969380Y-121610238D02*
X64493190Y-121943571D01*
X64969380Y-122181666D02*
X63969380Y-122181666D01*
X63969380Y-121800714D01*
X64017000Y-121705476D01*
X64064619Y-121657857D01*
X64159857Y-121610238D01*
X64302714Y-121610238D01*
X64397952Y-121657857D01*
X64445571Y-121705476D01*
X64493190Y-121800714D01*
X64493190Y-122181666D01*
X64969380Y-121181666D02*
X63969380Y-121181666D01*
X63969380Y-120943571D01*
X64017000Y-120800714D01*
X64112238Y-120705476D01*
X64207476Y-120657857D01*
X64397952Y-120610238D01*
X64540809Y-120610238D01*
X64731285Y-120657857D01*
X64826523Y-120705476D01*
X64921761Y-120800714D01*
X64969380Y-120943571D01*
X64969380Y-121181666D01*
X64683666Y-120229285D02*
X64683666Y-119753095D01*
X64969380Y-120324523D02*
X63969380Y-119991190D01*
X64969380Y-119657857D01*
X64874142Y-118753095D02*
X64921761Y-118800714D01*
X64969380Y-118943571D01*
X64969380Y-119038809D01*
X64921761Y-119181666D01*
X64826523Y-119276904D01*
X64731285Y-119324523D01*
X64540809Y-119372142D01*
X64397952Y-119372142D01*
X64207476Y-119324523D01*
X64112238Y-119276904D01*
X64017000Y-119181666D01*
X63969380Y-119038809D01*
X63969380Y-118943571D01*
X64017000Y-118800714D01*
X64064619Y-118753095D01*
X64064619Y-118372142D02*
X64017000Y-118324523D01*
X63969380Y-118229285D01*
X63969380Y-117991190D01*
X64017000Y-117895952D01*
X64064619Y-117848333D01*
X64159857Y-117800714D01*
X64255095Y-117800714D01*
X64397952Y-117848333D01*
X64969380Y-118419761D01*
X64969380Y-117800714D01*
X63698380Y-118181238D02*
X63222190Y-118514571D01*
X63698380Y-118752666D02*
X62698380Y-118752666D01*
X62698380Y-118371714D01*
X62746000Y-118276476D01*
X62793619Y-118228857D01*
X62888857Y-118181238D01*
X63031714Y-118181238D01*
X63126952Y-118228857D01*
X63174571Y-118276476D01*
X63222190Y-118371714D01*
X63222190Y-118752666D01*
X63698380Y-117752666D02*
X62698380Y-117752666D01*
X62698380Y-117514571D01*
X62746000Y-117371714D01*
X62841238Y-117276476D01*
X62936476Y-117228857D01*
X63126952Y-117181238D01*
X63269809Y-117181238D01*
X63460285Y-117228857D01*
X63555523Y-117276476D01*
X63650761Y-117371714D01*
X63698380Y-117514571D01*
X63698380Y-117752666D01*
X63412666Y-116800285D02*
X63412666Y-116324095D01*
X63698380Y-116895523D02*
X62698380Y-116562190D01*
X63698380Y-116228857D01*
X63603142Y-115324095D02*
X63650761Y-115371714D01*
X63698380Y-115514571D01*
X63698380Y-115609809D01*
X63650761Y-115752666D01*
X63555523Y-115847904D01*
X63460285Y-115895523D01*
X63269809Y-115943142D01*
X63126952Y-115943142D01*
X62936476Y-115895523D01*
X62841238Y-115847904D01*
X62746000Y-115752666D01*
X62698380Y-115609809D01*
X62698380Y-115514571D01*
X62746000Y-115371714D01*
X62793619Y-115324095D01*
X63698380Y-114371714D02*
X63698380Y-114943142D01*
X63698380Y-114657428D02*
X62698380Y-114657428D01*
X62841238Y-114752666D01*
X62936476Y-114847904D01*
X62984095Y-114943142D01*
X87954380Y-112212238D02*
X87478190Y-112545571D01*
X87954380Y-112783666D02*
X86954380Y-112783666D01*
X86954380Y-112402714D01*
X87002000Y-112307476D01*
X87049619Y-112259857D01*
X87144857Y-112212238D01*
X87287714Y-112212238D01*
X87382952Y-112259857D01*
X87430571Y-112307476D01*
X87478190Y-112402714D01*
X87478190Y-112783666D01*
X87954380Y-111783666D02*
X86954380Y-111783666D01*
X86954380Y-111545571D01*
X87002000Y-111402714D01*
X87097238Y-111307476D01*
X87192476Y-111259857D01*
X87382952Y-111212238D01*
X87525809Y-111212238D01*
X87716285Y-111259857D01*
X87811523Y-111307476D01*
X87906761Y-111402714D01*
X87954380Y-111545571D01*
X87954380Y-111783666D01*
X87668666Y-110831285D02*
X87668666Y-110355095D01*
X87954380Y-110926523D02*
X86954380Y-110593190D01*
X87954380Y-110259857D01*
X87859142Y-109355095D02*
X87906761Y-109402714D01*
X87954380Y-109545571D01*
X87954380Y-109640809D01*
X87906761Y-109783666D01*
X87811523Y-109878904D01*
X87716285Y-109926523D01*
X87525809Y-109974142D01*
X87382952Y-109974142D01*
X87192476Y-109926523D01*
X87097238Y-109878904D01*
X87002000Y-109783666D01*
X86954380Y-109640809D01*
X86954380Y-109545571D01*
X87002000Y-109402714D01*
X87049619Y-109355095D01*
X86954380Y-108497952D02*
X86954380Y-108688428D01*
X87002000Y-108783666D01*
X87049619Y-108831285D01*
X87192476Y-108926523D01*
X87382952Y-108974142D01*
X87763904Y-108974142D01*
X87859142Y-108926523D01*
X87906761Y-108878904D01*
X87954380Y-108783666D01*
X87954380Y-108593190D01*
X87906761Y-108497952D01*
X87859142Y-108450333D01*
X87763904Y-108402714D01*
X87525809Y-108402714D01*
X87430571Y-108450333D01*
X87382952Y-108497952D01*
X87335333Y-108593190D01*
X87335333Y-108783666D01*
X87382952Y-108878904D01*
X87430571Y-108926523D01*
X87525809Y-108974142D01*
X99544142Y-106957761D02*
X99591761Y-107005380D01*
X99639380Y-107148238D01*
X99639380Y-107243476D01*
X99591761Y-107386333D01*
X99496523Y-107481571D01*
X99401285Y-107529190D01*
X99210809Y-107576809D01*
X99067952Y-107576809D01*
X98877476Y-107529190D01*
X98782238Y-107481571D01*
X98687000Y-107386333D01*
X98639380Y-107243476D01*
X98639380Y-107148238D01*
X98687000Y-107005380D01*
X98734619Y-106957761D01*
X99639380Y-106529190D02*
X98639380Y-106529190D01*
X98639380Y-105862523D02*
X98639380Y-105767285D01*
X98687000Y-105672047D01*
X98734619Y-105624428D01*
X98829857Y-105576809D01*
X99020333Y-105529190D01*
X99258428Y-105529190D01*
X99448904Y-105576809D01*
X99544142Y-105624428D01*
X99591761Y-105672047D01*
X99639380Y-105767285D01*
X99639380Y-105862523D01*
X99591761Y-105957761D01*
X99544142Y-106005380D01*
X99448904Y-106053000D01*
X99258428Y-106100619D01*
X99020333Y-106100619D01*
X98829857Y-106053000D01*
X98734619Y-106005380D01*
X98687000Y-105957761D01*
X98639380Y-105862523D01*
X87192666Y-101433380D02*
X87192666Y-102147666D01*
X87145047Y-102290523D01*
X87049809Y-102385761D01*
X86906952Y-102433380D01*
X86811714Y-102433380D01*
X87668857Y-102433380D02*
X87668857Y-101433380D01*
X88049809Y-101433380D01*
X88145047Y-101481000D01*
X88192666Y-101528619D01*
X88240285Y-101623857D01*
X88240285Y-101766714D01*
X88192666Y-101861952D01*
X88145047Y-101909571D01*
X88049809Y-101957190D01*
X87668857Y-101957190D01*
X89145047Y-101433380D02*
X88668857Y-101433380D01*
X88621238Y-101909571D01*
X88668857Y-101861952D01*
X88764095Y-101814333D01*
X89002190Y-101814333D01*
X89097428Y-101861952D01*
X89145047Y-101909571D01*
X89192666Y-102004809D01*
X89192666Y-102242904D01*
X89145047Y-102338142D01*
X89097428Y-102385761D01*
X89002190Y-102433380D01*
X88764095Y-102433380D01*
X88668857Y-102385761D01*
X88621238Y-102338142D01*
X87431666Y-79081380D02*
X87431666Y-79795666D01*
X87384047Y-79938523D01*
X87288809Y-80033761D01*
X87145952Y-80081380D01*
X87050714Y-80081380D01*
X87907857Y-80081380D02*
X87907857Y-79081380D01*
X88288809Y-79081380D01*
X88384047Y-79129000D01*
X88431666Y-79176619D01*
X88479285Y-79271857D01*
X88479285Y-79414714D01*
X88431666Y-79509952D01*
X88384047Y-79557571D01*
X88288809Y-79605190D01*
X87907857Y-79605190D01*
X89336428Y-79081380D02*
X89145952Y-79081380D01*
X89050714Y-79129000D01*
X89003095Y-79176619D01*
X88907857Y-79319476D01*
X88860238Y-79509952D01*
X88860238Y-79890904D01*
X88907857Y-79986142D01*
X88955476Y-80033761D01*
X89050714Y-80081380D01*
X89241190Y-80081380D01*
X89336428Y-80033761D01*
X89384047Y-79986142D01*
X89431666Y-79890904D01*
X89431666Y-79652809D01*
X89384047Y-79557571D01*
X89336428Y-79509952D01*
X89241190Y-79462333D01*
X89050714Y-79462333D01*
X88955476Y-79509952D01*
X88907857Y-79557571D01*
X88860238Y-79652809D01*
X123178333Y-98800142D02*
X123130714Y-98847761D01*
X122987857Y-98895380D01*
X122892619Y-98895380D01*
X122749761Y-98847761D01*
X122654523Y-98752523D01*
X122606904Y-98657285D01*
X122559285Y-98466809D01*
X122559285Y-98323952D01*
X122606904Y-98133476D01*
X122654523Y-98038238D01*
X122749761Y-97943000D01*
X122892619Y-97895380D01*
X122987857Y-97895380D01*
X123130714Y-97943000D01*
X123178333Y-97990619D01*
X124178333Y-98800142D02*
X124130714Y-98847761D01*
X123987857Y-98895380D01*
X123892619Y-98895380D01*
X123749761Y-98847761D01*
X123654523Y-98752523D01*
X123606904Y-98657285D01*
X123559285Y-98466809D01*
X123559285Y-98323952D01*
X123606904Y-98133476D01*
X123654523Y-98038238D01*
X123749761Y-97943000D01*
X123892619Y-97895380D01*
X123987857Y-97895380D01*
X124130714Y-97943000D01*
X124178333Y-97990619D01*
X124559285Y-97990619D02*
X124606904Y-97943000D01*
X124702142Y-97895380D01*
X124940238Y-97895380D01*
X125035476Y-97943000D01*
X125083095Y-97990619D01*
X125130714Y-98085857D01*
X125130714Y-98181095D01*
X125083095Y-98323952D01*
X124511666Y-98895380D01*
X125130714Y-98895380D01*
X123178333Y-103880142D02*
X123130714Y-103927761D01*
X122987857Y-103975380D01*
X122892619Y-103975380D01*
X122749761Y-103927761D01*
X122654523Y-103832523D01*
X122606904Y-103737285D01*
X122559285Y-103546809D01*
X122559285Y-103403952D01*
X122606904Y-103213476D01*
X122654523Y-103118238D01*
X122749761Y-103023000D01*
X122892619Y-102975380D01*
X122987857Y-102975380D01*
X123130714Y-103023000D01*
X123178333Y-103070619D01*
X124178333Y-103880142D02*
X124130714Y-103927761D01*
X123987857Y-103975380D01*
X123892619Y-103975380D01*
X123749761Y-103927761D01*
X123654523Y-103832523D01*
X123606904Y-103737285D01*
X123559285Y-103546809D01*
X123559285Y-103403952D01*
X123606904Y-103213476D01*
X123654523Y-103118238D01*
X123749761Y-103023000D01*
X123892619Y-102975380D01*
X123987857Y-102975380D01*
X124130714Y-103023000D01*
X124178333Y-103070619D01*
X125130714Y-103975380D02*
X124559285Y-103975380D01*
X124845000Y-103975380D02*
X124845000Y-102975380D01*
X124749761Y-103118238D01*
X124654523Y-103213476D01*
X124559285Y-103261095D01*
X101798380Y-95297476D02*
X101322190Y-95630809D01*
X101798380Y-95868904D02*
X100798380Y-95868904D01*
X100798380Y-95487952D01*
X100846000Y-95392714D01*
X100893619Y-95345095D01*
X100988857Y-95297476D01*
X101131714Y-95297476D01*
X101226952Y-95345095D01*
X101274571Y-95392714D01*
X101322190Y-95487952D01*
X101322190Y-95868904D01*
X100798380Y-94678428D02*
X100798380Y-94487952D01*
X100846000Y-94392714D01*
X100941238Y-94297476D01*
X101131714Y-94249857D01*
X101465047Y-94249857D01*
X101655523Y-94297476D01*
X101750761Y-94392714D01*
X101798380Y-94487952D01*
X101798380Y-94678428D01*
X101750761Y-94773666D01*
X101655523Y-94868904D01*
X101465047Y-94916523D01*
X101131714Y-94916523D01*
X100941238Y-94868904D01*
X100846000Y-94773666D01*
X100798380Y-94678428D01*
X101703142Y-93249857D02*
X101750761Y-93297476D01*
X101798380Y-93440333D01*
X101798380Y-93535571D01*
X101750761Y-93678428D01*
X101655523Y-93773666D01*
X101560285Y-93821285D01*
X101369809Y-93868904D01*
X101226952Y-93868904D01*
X101036476Y-93821285D01*
X100941238Y-93773666D01*
X100846000Y-93678428D01*
X100798380Y-93535571D01*
X100798380Y-93440333D01*
X100846000Y-93297476D01*
X100893619Y-93249857D01*
X100893619Y-92868904D02*
X100846000Y-92821285D01*
X100798380Y-92726047D01*
X100798380Y-92487952D01*
X100846000Y-92392714D01*
X100893619Y-92345095D01*
X100988857Y-92297476D01*
X101084095Y-92297476D01*
X101226952Y-92345095D01*
X101798380Y-92916523D01*
X101798380Y-92297476D01*
X81748571Y-119959380D02*
X81415238Y-119483190D01*
X81177142Y-119959380D02*
X81177142Y-118959380D01*
X81558095Y-118959380D01*
X81653333Y-119007000D01*
X81700952Y-119054619D01*
X81748571Y-119149857D01*
X81748571Y-119292714D01*
X81700952Y-119387952D01*
X81653333Y-119435571D01*
X81558095Y-119483190D01*
X81177142Y-119483190D01*
X82129523Y-119054619D02*
X82177142Y-119007000D01*
X82272380Y-118959380D01*
X82510476Y-118959380D01*
X82605714Y-119007000D01*
X82653333Y-119054619D01*
X82700952Y-119149857D01*
X82700952Y-119245095D01*
X82653333Y-119387952D01*
X82081904Y-119959380D01*
X82700952Y-119959380D01*
X83129523Y-119959380D02*
X83129523Y-118959380D01*
X83367619Y-118959380D01*
X83510476Y-119007000D01*
X83605714Y-119102238D01*
X83653333Y-119197476D01*
X83700952Y-119387952D01*
X83700952Y-119530809D01*
X83653333Y-119721285D01*
X83605714Y-119816523D01*
X83510476Y-119911761D01*
X83367619Y-119959380D01*
X83129523Y-119959380D01*
X84081904Y-119673666D02*
X84558095Y-119673666D01*
X83986666Y-119959380D02*
X84320000Y-118959380D01*
X84653333Y-119959380D01*
X85558095Y-119864142D02*
X85510476Y-119911761D01*
X85367619Y-119959380D01*
X85272380Y-119959380D01*
X85129523Y-119911761D01*
X85034285Y-119816523D01*
X84986666Y-119721285D01*
X84939047Y-119530809D01*
X84939047Y-119387952D01*
X84986666Y-119197476D01*
X85034285Y-119102238D01*
X85129523Y-119007000D01*
X85272380Y-118959380D01*
X85367619Y-118959380D01*
X85510476Y-119007000D01*
X85558095Y-119054619D01*
X86129523Y-119387952D02*
X86034285Y-119340333D01*
X85986666Y-119292714D01*
X85939047Y-119197476D01*
X85939047Y-119149857D01*
X85986666Y-119054619D01*
X86034285Y-119007000D01*
X86129523Y-118959380D01*
X86320000Y-118959380D01*
X86415238Y-119007000D01*
X86462857Y-119054619D01*
X86510476Y-119149857D01*
X86510476Y-119197476D01*
X86462857Y-119292714D01*
X86415238Y-119340333D01*
X86320000Y-119387952D01*
X86129523Y-119387952D01*
X86034285Y-119435571D01*
X85986666Y-119483190D01*
X85939047Y-119578428D01*
X85939047Y-119768904D01*
X85986666Y-119864142D01*
X86034285Y-119911761D01*
X86129523Y-119959380D01*
X86320000Y-119959380D01*
X86415238Y-119911761D01*
X86462857Y-119864142D01*
X86510476Y-119768904D01*
X86510476Y-119578428D01*
X86462857Y-119483190D01*
X86415238Y-119435571D01*
X86320000Y-119387952D01*
X81748571Y-121102380D02*
X81415238Y-120626190D01*
X81177142Y-121102380D02*
X81177142Y-120102380D01*
X81558095Y-120102380D01*
X81653333Y-120150000D01*
X81700952Y-120197619D01*
X81748571Y-120292857D01*
X81748571Y-120435714D01*
X81700952Y-120530952D01*
X81653333Y-120578571D01*
X81558095Y-120626190D01*
X81177142Y-120626190D01*
X82129523Y-120197619D02*
X82177142Y-120150000D01*
X82272380Y-120102380D01*
X82510476Y-120102380D01*
X82605714Y-120150000D01*
X82653333Y-120197619D01*
X82700952Y-120292857D01*
X82700952Y-120388095D01*
X82653333Y-120530952D01*
X82081904Y-121102380D01*
X82700952Y-121102380D01*
X83129523Y-121102380D02*
X83129523Y-120102380D01*
X83367619Y-120102380D01*
X83510476Y-120150000D01*
X83605714Y-120245238D01*
X83653333Y-120340476D01*
X83700952Y-120530952D01*
X83700952Y-120673809D01*
X83653333Y-120864285D01*
X83605714Y-120959523D01*
X83510476Y-121054761D01*
X83367619Y-121102380D01*
X83129523Y-121102380D01*
X84081904Y-120816666D02*
X84558095Y-120816666D01*
X83986666Y-121102380D02*
X84320000Y-120102380D01*
X84653333Y-121102380D01*
X85558095Y-121007142D02*
X85510476Y-121054761D01*
X85367619Y-121102380D01*
X85272380Y-121102380D01*
X85129523Y-121054761D01*
X85034285Y-120959523D01*
X84986666Y-120864285D01*
X84939047Y-120673809D01*
X84939047Y-120530952D01*
X84986666Y-120340476D01*
X85034285Y-120245238D01*
X85129523Y-120150000D01*
X85272380Y-120102380D01*
X85367619Y-120102380D01*
X85510476Y-120150000D01*
X85558095Y-120197619D01*
X85891428Y-120102380D02*
X86558095Y-120102380D01*
X86129523Y-121102380D01*
X81748571Y-122245380D02*
X81415238Y-121769190D01*
X81177142Y-122245380D02*
X81177142Y-121245380D01*
X81558095Y-121245380D01*
X81653333Y-121293000D01*
X81700952Y-121340619D01*
X81748571Y-121435857D01*
X81748571Y-121578714D01*
X81700952Y-121673952D01*
X81653333Y-121721571D01*
X81558095Y-121769190D01*
X81177142Y-121769190D01*
X82129523Y-121340619D02*
X82177142Y-121293000D01*
X82272380Y-121245380D01*
X82510476Y-121245380D01*
X82605714Y-121293000D01*
X82653333Y-121340619D01*
X82700952Y-121435857D01*
X82700952Y-121531095D01*
X82653333Y-121673952D01*
X82081904Y-122245380D01*
X82700952Y-122245380D01*
X83129523Y-122245380D02*
X83129523Y-121245380D01*
X83367619Y-121245380D01*
X83510476Y-121293000D01*
X83605714Y-121388238D01*
X83653333Y-121483476D01*
X83700952Y-121673952D01*
X83700952Y-121816809D01*
X83653333Y-122007285D01*
X83605714Y-122102523D01*
X83510476Y-122197761D01*
X83367619Y-122245380D01*
X83129523Y-122245380D01*
X84081904Y-121959666D02*
X84558095Y-121959666D01*
X83986666Y-122245380D02*
X84320000Y-121245380D01*
X84653333Y-122245380D01*
X85558095Y-122150142D02*
X85510476Y-122197761D01*
X85367619Y-122245380D01*
X85272380Y-122245380D01*
X85129523Y-122197761D01*
X85034285Y-122102523D01*
X84986666Y-122007285D01*
X84939047Y-121816809D01*
X84939047Y-121673952D01*
X84986666Y-121483476D01*
X85034285Y-121388238D01*
X85129523Y-121293000D01*
X85272380Y-121245380D01*
X85367619Y-121245380D01*
X85510476Y-121293000D01*
X85558095Y-121340619D01*
X86415238Y-121245380D02*
X86224761Y-121245380D01*
X86129523Y-121293000D01*
X86081904Y-121340619D01*
X85986666Y-121483476D01*
X85939047Y-121673952D01*
X85939047Y-122054904D01*
X85986666Y-122150142D01*
X86034285Y-122197761D01*
X86129523Y-122245380D01*
X86320000Y-122245380D01*
X86415238Y-122197761D01*
X86462857Y-122150142D01*
X86510476Y-122054904D01*
X86510476Y-121816809D01*
X86462857Y-121721571D01*
X86415238Y-121673952D01*
X86320000Y-121626333D01*
X86129523Y-121626333D01*
X86034285Y-121673952D01*
X85986666Y-121721571D01*
X85939047Y-121816809D01*
X99885642Y-72778880D02*
X99552309Y-72302690D01*
X99314214Y-72778880D02*
X99314214Y-71778880D01*
X99695166Y-71778880D01*
X99790404Y-71826500D01*
X99838023Y-71874119D01*
X99885642Y-71969357D01*
X99885642Y-72112214D01*
X99838023Y-72207452D01*
X99790404Y-72255071D01*
X99695166Y-72302690D01*
X99314214Y-72302690D01*
X100266595Y-72731261D02*
X100409452Y-72778880D01*
X100647547Y-72778880D01*
X100742785Y-72731261D01*
X100790404Y-72683642D01*
X100838023Y-72588404D01*
X100838023Y-72493166D01*
X100790404Y-72397928D01*
X100742785Y-72350309D01*
X100647547Y-72302690D01*
X100457071Y-72255071D01*
X100361833Y-72207452D01*
X100314214Y-72159833D01*
X100266595Y-72064595D01*
X100266595Y-71969357D01*
X100314214Y-71874119D01*
X100361833Y-71826500D01*
X100457071Y-71778880D01*
X100695166Y-71778880D01*
X100838023Y-71826500D01*
X101838023Y-72683642D02*
X101790404Y-72731261D01*
X101647547Y-72778880D01*
X101552309Y-72778880D01*
X101409452Y-72731261D01*
X101314214Y-72636023D01*
X101266595Y-72540785D01*
X101218976Y-72350309D01*
X101218976Y-72207452D01*
X101266595Y-72016976D01*
X101314214Y-71921738D01*
X101409452Y-71826500D01*
X101552309Y-71778880D01*
X101647547Y-71778880D01*
X101790404Y-71826500D01*
X101838023Y-71874119D01*
X102218976Y-71874119D02*
X102266595Y-71826500D01*
X102361833Y-71778880D01*
X102599928Y-71778880D01*
X102695166Y-71826500D01*
X102742785Y-71874119D01*
X102790404Y-71969357D01*
X102790404Y-72064595D01*
X102742785Y-72207452D01*
X102171357Y-72778880D01*
X102790404Y-72778880D01*
X130849666Y-82763761D02*
X130849666Y-82287571D01*
X131135380Y-82859000D02*
X130135380Y-82525666D01*
X131135380Y-82192333D01*
X130135380Y-82001857D02*
X131135380Y-81668523D01*
X130135380Y-81335190D01*
X131135380Y-80430428D02*
X130659190Y-80763761D01*
X131135380Y-81001857D02*
X130135380Y-81001857D01*
X130135380Y-80620904D01*
X130183000Y-80525666D01*
X130230619Y-80478047D01*
X130325857Y-80430428D01*
X130468714Y-80430428D01*
X130563952Y-80478047D01*
X130611571Y-80525666D01*
X130659190Y-80620904D01*
X130659190Y-81001857D01*
X131135380Y-80001857D02*
X130135380Y-80001857D01*
X131087761Y-79573285D02*
X131135380Y-79430428D01*
X131135380Y-79192333D01*
X131087761Y-79097095D01*
X131040142Y-79049476D01*
X130944904Y-79001857D01*
X130849666Y-79001857D01*
X130754428Y-79049476D01*
X130706809Y-79097095D01*
X130659190Y-79192333D01*
X130611571Y-79382809D01*
X130563952Y-79478047D01*
X130516333Y-79525666D01*
X130421095Y-79573285D01*
X130325857Y-79573285D01*
X130230619Y-79525666D01*
X130183000Y-79478047D01*
X130135380Y-79382809D01*
X130135380Y-79144714D01*
X130183000Y-79001857D01*
X131135380Y-78573285D02*
X130135380Y-78573285D01*
X130135380Y-78192333D01*
X130183000Y-78097095D01*
X130230619Y-78049476D01*
X130325857Y-78001857D01*
X130468714Y-78001857D01*
X130563952Y-78049476D01*
X130611571Y-78097095D01*
X130659190Y-78192333D01*
X130659190Y-78573285D01*
X131135380Y-77573285D02*
X130135380Y-77573285D01*
X130849666Y-77239952D01*
X130135380Y-76906619D01*
X131135380Y-76906619D01*
X131135380Y-76430428D02*
X130135380Y-76430428D01*
X131135380Y-75859000D02*
X130563952Y-76287571D01*
X130135380Y-75859000D02*
X130706809Y-76430428D01*
X131135380Y-75430428D02*
X130135380Y-75430428D01*
X131135380Y-74954238D02*
X130135380Y-74954238D01*
X130135380Y-74287571D02*
X130135380Y-74192333D01*
X130183000Y-74097095D01*
X130230619Y-74049476D01*
X130325857Y-74001857D01*
X130516333Y-73954238D01*
X130754428Y-73954238D01*
X130944904Y-74001857D01*
X131040142Y-74049476D01*
X131087761Y-74097095D01*
X131135380Y-74192333D01*
X131135380Y-74287571D01*
X131087761Y-74382809D01*
X131040142Y-74430428D01*
X130944904Y-74478047D01*
X130754428Y-74525666D01*
X130516333Y-74525666D01*
X130325857Y-74478047D01*
X130230619Y-74430428D01*
X130183000Y-74382809D01*
X130135380Y-74287571D01*
X109688428Y-109354880D02*
X109355095Y-108878690D01*
X109117000Y-109354880D02*
X109117000Y-108354880D01*
X109497952Y-108354880D01*
X109593190Y-108402500D01*
X109640809Y-108450119D01*
X109688428Y-108545357D01*
X109688428Y-108688214D01*
X109640809Y-108783452D01*
X109593190Y-108831071D01*
X109497952Y-108878690D01*
X109117000Y-108878690D01*
X110117000Y-109354880D02*
X110117000Y-108354880D01*
X110783666Y-108354880D02*
X110974142Y-108354880D01*
X111069380Y-108402500D01*
X111164619Y-108497738D01*
X111212238Y-108688214D01*
X111212238Y-109021547D01*
X111164619Y-109212023D01*
X111069380Y-109307261D01*
X110974142Y-109354880D01*
X110783666Y-109354880D01*
X110688428Y-109307261D01*
X110593190Y-109212023D01*
X110545571Y-109021547D01*
X110545571Y-108688214D01*
X110593190Y-108497738D01*
X110688428Y-108402500D01*
X110783666Y-108354880D01*
X111831285Y-108354880D02*
X111926523Y-108354880D01*
X112021761Y-108402500D01*
X112069380Y-108450119D01*
X112117000Y-108545357D01*
X112164619Y-108735833D01*
X112164619Y-108973928D01*
X112117000Y-109164404D01*
X112069380Y-109259642D01*
X112021761Y-109307261D01*
X111926523Y-109354880D01*
X111831285Y-109354880D01*
X111736047Y-109307261D01*
X111688428Y-109259642D01*
X111640809Y-109164404D01*
X111593190Y-108973928D01*
X111593190Y-108735833D01*
X111640809Y-108545357D01*
X111688428Y-108450119D01*
X111736047Y-108402500D01*
X111831285Y-108354880D01*
X93067142Y-99901238D02*
X93114761Y-99948857D01*
X93162380Y-100091714D01*
X93162380Y-100186952D01*
X93114761Y-100329809D01*
X93019523Y-100425047D01*
X92924285Y-100472666D01*
X92733809Y-100520285D01*
X92590952Y-100520285D01*
X92400476Y-100472666D01*
X92305238Y-100425047D01*
X92210000Y-100329809D01*
X92162380Y-100186952D01*
X92162380Y-100091714D01*
X92210000Y-99948857D01*
X92257619Y-99901238D01*
X92876666Y-99520285D02*
X92876666Y-99044095D01*
X93162380Y-99615523D02*
X92162380Y-99282190D01*
X93162380Y-98948857D01*
X93162380Y-98615523D02*
X92162380Y-98615523D01*
X92162380Y-98377428D01*
X92210000Y-98234571D01*
X92305238Y-98139333D01*
X92400476Y-98091714D01*
X92590952Y-98044095D01*
X92733809Y-98044095D01*
X92924285Y-98091714D01*
X93019523Y-98139333D01*
X93114761Y-98234571D01*
X93162380Y-98377428D01*
X93162380Y-98615523D01*
X92162380Y-97425047D02*
X92162380Y-97329809D01*
X92210000Y-97234571D01*
X92257619Y-97186952D01*
X92352857Y-97139333D01*
X92543333Y-97091714D01*
X92781428Y-97091714D01*
X92971904Y-97139333D01*
X93067142Y-97186952D01*
X93114761Y-97234571D01*
X93162380Y-97329809D01*
X93162380Y-97425047D01*
X93114761Y-97520285D01*
X93067142Y-97567904D01*
X92971904Y-97615523D01*
X92781428Y-97663142D01*
X92543333Y-97663142D01*
X92352857Y-97615523D01*
X92257619Y-97567904D01*
X92210000Y-97520285D01*
X92162380Y-97425047D01*
X87289666Y-92797380D02*
X87289666Y-93511666D01*
X87242047Y-93654523D01*
X87146809Y-93749761D01*
X87003952Y-93797380D01*
X86908714Y-93797380D01*
X87765857Y-93797380D02*
X87765857Y-92797380D01*
X88146809Y-92797380D01*
X88242047Y-92845000D01*
X88289666Y-92892619D01*
X88337285Y-92987857D01*
X88337285Y-93130714D01*
X88289666Y-93225952D01*
X88242047Y-93273571D01*
X88146809Y-93321190D01*
X87765857Y-93321190D01*
X88670619Y-92797380D02*
X89289666Y-92797380D01*
X88956333Y-93178333D01*
X89099190Y-93178333D01*
X89194428Y-93225952D01*
X89242047Y-93273571D01*
X89289666Y-93368809D01*
X89289666Y-93606904D01*
X89242047Y-93702142D01*
X89194428Y-93749761D01*
X89099190Y-93797380D01*
X88813476Y-93797380D01*
X88718238Y-93749761D01*
X88670619Y-93702142D01*
X81748571Y-123388380D02*
X81415238Y-122912190D01*
X81177142Y-123388380D02*
X81177142Y-122388380D01*
X81558095Y-122388380D01*
X81653333Y-122436000D01*
X81700952Y-122483619D01*
X81748571Y-122578857D01*
X81748571Y-122721714D01*
X81700952Y-122816952D01*
X81653333Y-122864571D01*
X81558095Y-122912190D01*
X81177142Y-122912190D01*
X82129523Y-122483619D02*
X82177142Y-122436000D01*
X82272380Y-122388380D01*
X82510476Y-122388380D01*
X82605714Y-122436000D01*
X82653333Y-122483619D01*
X82700952Y-122578857D01*
X82700952Y-122674095D01*
X82653333Y-122816952D01*
X82081904Y-123388380D01*
X82700952Y-123388380D01*
X83129523Y-123388380D02*
X83129523Y-122388380D01*
X83367619Y-122388380D01*
X83510476Y-122436000D01*
X83605714Y-122531238D01*
X83653333Y-122626476D01*
X83700952Y-122816952D01*
X83700952Y-122959809D01*
X83653333Y-123150285D01*
X83605714Y-123245523D01*
X83510476Y-123340761D01*
X83367619Y-123388380D01*
X83129523Y-123388380D01*
X84081904Y-123102666D02*
X84558095Y-123102666D01*
X83986666Y-123388380D02*
X84320000Y-122388380D01*
X84653333Y-123388380D01*
X85558095Y-123293142D02*
X85510476Y-123340761D01*
X85367619Y-123388380D01*
X85272380Y-123388380D01*
X85129523Y-123340761D01*
X85034285Y-123245523D01*
X84986666Y-123150285D01*
X84939047Y-122959809D01*
X84939047Y-122816952D01*
X84986666Y-122626476D01*
X85034285Y-122531238D01*
X85129523Y-122436000D01*
X85272380Y-122388380D01*
X85367619Y-122388380D01*
X85510476Y-122436000D01*
X85558095Y-122483619D01*
X86462857Y-122388380D02*
X85986666Y-122388380D01*
X85939047Y-122864571D01*
X85986666Y-122816952D01*
X86081904Y-122769333D01*
X86320000Y-122769333D01*
X86415238Y-122816952D01*
X86462857Y-122864571D01*
X86510476Y-122959809D01*
X86510476Y-123197904D01*
X86462857Y-123293142D01*
X86415238Y-123340761D01*
X86320000Y-123388380D01*
X86081904Y-123388380D01*
X85986666Y-123340761D01*
X85939047Y-123293142D01*
X66635571Y-111704380D02*
X66302238Y-111228190D01*
X66064142Y-111704380D02*
X66064142Y-110704380D01*
X66445095Y-110704380D01*
X66540333Y-110752000D01*
X66587952Y-110799619D01*
X66635571Y-110894857D01*
X66635571Y-111037714D01*
X66587952Y-111132952D01*
X66540333Y-111180571D01*
X66445095Y-111228190D01*
X66064142Y-111228190D01*
X67016523Y-110799619D02*
X67064142Y-110752000D01*
X67159380Y-110704380D01*
X67397476Y-110704380D01*
X67492714Y-110752000D01*
X67540333Y-110799619D01*
X67587952Y-110894857D01*
X67587952Y-110990095D01*
X67540333Y-111132952D01*
X66968904Y-111704380D01*
X67587952Y-111704380D01*
X68016523Y-111704380D02*
X68016523Y-110704380D01*
X68254619Y-110704380D01*
X68397476Y-110752000D01*
X68492714Y-110847238D01*
X68540333Y-110942476D01*
X68587952Y-111132952D01*
X68587952Y-111275809D01*
X68540333Y-111466285D01*
X68492714Y-111561523D01*
X68397476Y-111656761D01*
X68254619Y-111704380D01*
X68016523Y-111704380D01*
X68968904Y-111418666D02*
X69445095Y-111418666D01*
X68873666Y-111704380D02*
X69207000Y-110704380D01*
X69540333Y-111704380D01*
X70445095Y-111609142D02*
X70397476Y-111656761D01*
X70254619Y-111704380D01*
X70159380Y-111704380D01*
X70016523Y-111656761D01*
X69921285Y-111561523D01*
X69873666Y-111466285D01*
X69826047Y-111275809D01*
X69826047Y-111132952D01*
X69873666Y-110942476D01*
X69921285Y-110847238D01*
X70016523Y-110752000D01*
X70159380Y-110704380D01*
X70254619Y-110704380D01*
X70397476Y-110752000D01*
X70445095Y-110799619D01*
X71302238Y-111037714D02*
X71302238Y-111704380D01*
X71064142Y-110656761D02*
X70826047Y-111371047D01*
X71445095Y-111371047D01*
X66635571Y-110434380D02*
X66302238Y-109958190D01*
X66064142Y-110434380D02*
X66064142Y-109434380D01*
X66445095Y-109434380D01*
X66540333Y-109482000D01*
X66587952Y-109529619D01*
X66635571Y-109624857D01*
X66635571Y-109767714D01*
X66587952Y-109862952D01*
X66540333Y-109910571D01*
X66445095Y-109958190D01*
X66064142Y-109958190D01*
X67016523Y-109529619D02*
X67064142Y-109482000D01*
X67159380Y-109434380D01*
X67397476Y-109434380D01*
X67492714Y-109482000D01*
X67540333Y-109529619D01*
X67587952Y-109624857D01*
X67587952Y-109720095D01*
X67540333Y-109862952D01*
X66968904Y-110434380D01*
X67587952Y-110434380D01*
X68016523Y-110434380D02*
X68016523Y-109434380D01*
X68254619Y-109434380D01*
X68397476Y-109482000D01*
X68492714Y-109577238D01*
X68540333Y-109672476D01*
X68587952Y-109862952D01*
X68587952Y-110005809D01*
X68540333Y-110196285D01*
X68492714Y-110291523D01*
X68397476Y-110386761D01*
X68254619Y-110434380D01*
X68016523Y-110434380D01*
X68968904Y-110148666D02*
X69445095Y-110148666D01*
X68873666Y-110434380D02*
X69207000Y-109434380D01*
X69540333Y-110434380D01*
X70445095Y-110339142D02*
X70397476Y-110386761D01*
X70254619Y-110434380D01*
X70159380Y-110434380D01*
X70016523Y-110386761D01*
X69921285Y-110291523D01*
X69873666Y-110196285D01*
X69826047Y-110005809D01*
X69826047Y-109862952D01*
X69873666Y-109672476D01*
X69921285Y-109577238D01*
X70016523Y-109482000D01*
X70159380Y-109434380D01*
X70254619Y-109434380D01*
X70397476Y-109482000D01*
X70445095Y-109529619D01*
X70778428Y-109434380D02*
X71397476Y-109434380D01*
X71064142Y-109815333D01*
X71207000Y-109815333D01*
X71302238Y-109862952D01*
X71349857Y-109910571D01*
X71397476Y-110005809D01*
X71397476Y-110243904D01*
X71349857Y-110339142D01*
X71302238Y-110386761D01*
X71207000Y-110434380D01*
X70921285Y-110434380D01*
X70826047Y-110386761D01*
X70778428Y-110339142D01*
X131436761Y-90173333D02*
X131484380Y-90030476D01*
X131484380Y-89792380D01*
X131436761Y-89697142D01*
X131389142Y-89649523D01*
X131293904Y-89601904D01*
X131198666Y-89601904D01*
X131103428Y-89649523D01*
X131055809Y-89697142D01*
X131008190Y-89792380D01*
X130960571Y-89982857D01*
X130912952Y-90078095D01*
X130865333Y-90125714D01*
X130770095Y-90173333D01*
X130674857Y-90173333D01*
X130579619Y-90125714D01*
X130532000Y-90078095D01*
X130484380Y-89982857D01*
X130484380Y-89744761D01*
X130532000Y-89601904D01*
X130484380Y-89268571D02*
X131484380Y-89030476D01*
X130770095Y-88840000D01*
X131484380Y-88649523D01*
X130484380Y-88411428D01*
X131484380Y-87459047D02*
X131008190Y-87792380D01*
X131484380Y-88030476D02*
X130484380Y-88030476D01*
X130484380Y-87649523D01*
X130532000Y-87554285D01*
X130579619Y-87506666D01*
X130674857Y-87459047D01*
X130817714Y-87459047D01*
X130912952Y-87506666D01*
X130960571Y-87554285D01*
X131008190Y-87649523D01*
X131008190Y-88030476D01*
X130484380Y-86840000D02*
X130484380Y-86744761D01*
X130532000Y-86649523D01*
X130579619Y-86601904D01*
X130674857Y-86554285D01*
X130865333Y-86506666D01*
X131103428Y-86506666D01*
X131293904Y-86554285D01*
X131389142Y-86601904D01*
X131436761Y-86649523D01*
X131484380Y-86744761D01*
X131484380Y-86840000D01*
X131436761Y-86935238D01*
X131389142Y-86982857D01*
X131293904Y-87030476D01*
X131103428Y-87078095D01*
X130865333Y-87078095D01*
X130674857Y-87030476D01*
X130579619Y-86982857D01*
X130532000Y-86935238D01*
X130484380Y-86840000D01*
X87319666Y-68921380D02*
X87319666Y-69635666D01*
X87272047Y-69778523D01*
X87176809Y-69873761D01*
X87033952Y-69921380D01*
X86938714Y-69921380D01*
X87795857Y-69921380D02*
X87795857Y-68921380D01*
X88176809Y-68921380D01*
X88272047Y-68969000D01*
X88319666Y-69016619D01*
X88367285Y-69111857D01*
X88367285Y-69254714D01*
X88319666Y-69349952D01*
X88272047Y-69397571D01*
X88176809Y-69445190D01*
X87795857Y-69445190D01*
X89319666Y-69921380D02*
X88748238Y-69921380D01*
X89033952Y-69921380D02*
X89033952Y-68921380D01*
X88938714Y-69064238D01*
X88843476Y-69159476D01*
X88748238Y-69207095D01*
X90511380Y-86804404D02*
X91320904Y-86804404D01*
X91416142Y-86756785D01*
X91463761Y-86709166D01*
X91511380Y-86613928D01*
X91511380Y-86423452D01*
X91463761Y-86328214D01*
X91416142Y-86280595D01*
X91320904Y-86232976D01*
X90511380Y-86232976D01*
X90606619Y-85804404D02*
X90559000Y-85756785D01*
X90511380Y-85661547D01*
X90511380Y-85423452D01*
X90559000Y-85328214D01*
X90606619Y-85280595D01*
X90701857Y-85232976D01*
X90797095Y-85232976D01*
X90939952Y-85280595D01*
X91511380Y-85852023D01*
X91511380Y-85232976D01*
X151804642Y-65452547D02*
X151852261Y-65500166D01*
X151899880Y-65643023D01*
X151899880Y-65738261D01*
X151852261Y-65881119D01*
X151757023Y-65976357D01*
X151661785Y-66023976D01*
X151471309Y-66071595D01*
X151328452Y-66071595D01*
X151137976Y-66023976D01*
X151042738Y-65976357D01*
X150947500Y-65881119D01*
X150899880Y-65738261D01*
X150899880Y-65643023D01*
X150947500Y-65500166D01*
X150995119Y-65452547D01*
X151376071Y-65023976D02*
X151376071Y-64690642D01*
X151899880Y-64547785D02*
X151899880Y-65023976D01*
X150899880Y-65023976D01*
X150899880Y-64547785D01*
X150899880Y-63928738D02*
X150899880Y-63833500D01*
X150947500Y-63738261D01*
X150995119Y-63690642D01*
X151090357Y-63643023D01*
X151280833Y-63595404D01*
X151518928Y-63595404D01*
X151709404Y-63643023D01*
X151804642Y-63690642D01*
X151852261Y-63738261D01*
X151899880Y-63833500D01*
X151899880Y-63928738D01*
X151852261Y-64023976D01*
X151804642Y-64071595D01*
X151709404Y-64119214D01*
X151518928Y-64166833D01*
X151280833Y-64166833D01*
X151090357Y-64119214D01*
X150995119Y-64071595D01*
X150947500Y-64023976D01*
X150899880Y-63928738D01*
X91265571Y-73286880D02*
X90932238Y-72810690D01*
X90694142Y-73286880D02*
X90694142Y-72286880D01*
X91075095Y-72286880D01*
X91170333Y-72334500D01*
X91217952Y-72382119D01*
X91265571Y-72477357D01*
X91265571Y-72620214D01*
X91217952Y-72715452D01*
X91170333Y-72763071D01*
X91075095Y-72810690D01*
X90694142Y-72810690D01*
X92027476Y-72763071D02*
X92170333Y-72810690D01*
X92217952Y-72858309D01*
X92265571Y-72953547D01*
X92265571Y-73096404D01*
X92217952Y-73191642D01*
X92170333Y-73239261D01*
X92075095Y-73286880D01*
X91694142Y-73286880D01*
X91694142Y-72286880D01*
X92027476Y-72286880D01*
X92122714Y-72334500D01*
X92170333Y-72382119D01*
X92217952Y-72477357D01*
X92217952Y-72572595D01*
X92170333Y-72667833D01*
X92122714Y-72715452D01*
X92027476Y-72763071D01*
X91694142Y-72763071D01*
X93170333Y-73286880D02*
X92694142Y-73286880D01*
X92694142Y-72286880D01*
X93503666Y-73286880D02*
X93503666Y-72286880D01*
X94075095Y-73286880D02*
X93646523Y-72715452D01*
X94075095Y-72286880D02*
X93503666Y-72858309D01*
X94694142Y-72286880D02*
X94789380Y-72286880D01*
X94884619Y-72334500D01*
X94932238Y-72382119D01*
X94979857Y-72477357D01*
X95027476Y-72667833D01*
X95027476Y-72905928D01*
X94979857Y-73096404D01*
X94932238Y-73191642D01*
X94884619Y-73239261D01*
X94789380Y-73286880D01*
X94694142Y-73286880D01*
X94598904Y-73239261D01*
X94551285Y-73191642D01*
X94503666Y-73096404D01*
X94456047Y-72905928D01*
X94456047Y-72667833D01*
X94503666Y-72477357D01*
X94551285Y-72382119D01*
X94598904Y-72334500D01*
X94694142Y-72286880D01*
X89225380Y-115641238D02*
X88749190Y-115974571D01*
X89225380Y-116212666D02*
X88225380Y-116212666D01*
X88225380Y-115831714D01*
X88273000Y-115736476D01*
X88320619Y-115688857D01*
X88415857Y-115641238D01*
X88558714Y-115641238D01*
X88653952Y-115688857D01*
X88701571Y-115736476D01*
X88749190Y-115831714D01*
X88749190Y-116212666D01*
X89225380Y-115212666D02*
X88225380Y-115212666D01*
X88225380Y-114974571D01*
X88273000Y-114831714D01*
X88368238Y-114736476D01*
X88463476Y-114688857D01*
X88653952Y-114641238D01*
X88796809Y-114641238D01*
X88987285Y-114688857D01*
X89082523Y-114736476D01*
X89177761Y-114831714D01*
X89225380Y-114974571D01*
X89225380Y-115212666D01*
X88939666Y-114260285D02*
X88939666Y-113784095D01*
X89225380Y-114355523D02*
X88225380Y-114022190D01*
X89225380Y-113688857D01*
X89130142Y-112784095D02*
X89177761Y-112831714D01*
X89225380Y-112974571D01*
X89225380Y-113069809D01*
X89177761Y-113212666D01*
X89082523Y-113307904D01*
X88987285Y-113355523D01*
X88796809Y-113403142D01*
X88653952Y-113403142D01*
X88463476Y-113355523D01*
X88368238Y-113307904D01*
X88273000Y-113212666D01*
X88225380Y-113069809D01*
X88225380Y-112974571D01*
X88273000Y-112831714D01*
X88320619Y-112784095D01*
X88225380Y-111879333D02*
X88225380Y-112355523D01*
X88701571Y-112403142D01*
X88653952Y-112355523D01*
X88606333Y-112260285D01*
X88606333Y-112022190D01*
X88653952Y-111926952D01*
X88701571Y-111879333D01*
X88796809Y-111831714D01*
X89034904Y-111831714D01*
X89130142Y-111879333D01*
X89177761Y-111926952D01*
X89225380Y-112022190D01*
X89225380Y-112260285D01*
X89177761Y-112355523D01*
X89130142Y-112403142D01*
X87954380Y-119070238D02*
X87478190Y-119403571D01*
X87954380Y-119641666D02*
X86954380Y-119641666D01*
X86954380Y-119260714D01*
X87002000Y-119165476D01*
X87049619Y-119117857D01*
X87144857Y-119070238D01*
X87287714Y-119070238D01*
X87382952Y-119117857D01*
X87430571Y-119165476D01*
X87478190Y-119260714D01*
X87478190Y-119641666D01*
X87954380Y-118641666D02*
X86954380Y-118641666D01*
X86954380Y-118403571D01*
X87002000Y-118260714D01*
X87097238Y-118165476D01*
X87192476Y-118117857D01*
X87382952Y-118070238D01*
X87525809Y-118070238D01*
X87716285Y-118117857D01*
X87811523Y-118165476D01*
X87906761Y-118260714D01*
X87954380Y-118403571D01*
X87954380Y-118641666D01*
X87668666Y-117689285D02*
X87668666Y-117213095D01*
X87954380Y-117784523D02*
X86954380Y-117451190D01*
X87954380Y-117117857D01*
X87859142Y-116213095D02*
X87906761Y-116260714D01*
X87954380Y-116403571D01*
X87954380Y-116498809D01*
X87906761Y-116641666D01*
X87811523Y-116736904D01*
X87716285Y-116784523D01*
X87525809Y-116832142D01*
X87382952Y-116832142D01*
X87192476Y-116784523D01*
X87097238Y-116736904D01*
X87002000Y-116641666D01*
X86954380Y-116498809D01*
X86954380Y-116403571D01*
X87002000Y-116260714D01*
X87049619Y-116213095D01*
X87287714Y-115355952D02*
X87954380Y-115355952D01*
X86906761Y-115594047D02*
X87621047Y-115832142D01*
X87621047Y-115213095D01*
X91924142Y-62987666D02*
X91971761Y-63035285D01*
X92019380Y-63178142D01*
X92019380Y-63273380D01*
X91971761Y-63416238D01*
X91876523Y-63511476D01*
X91781285Y-63559095D01*
X91590809Y-63606714D01*
X91447952Y-63606714D01*
X91257476Y-63559095D01*
X91162238Y-63511476D01*
X91067000Y-63416238D01*
X91019380Y-63273380D01*
X91019380Y-63178142D01*
X91067000Y-63035285D01*
X91114619Y-62987666D01*
X92019380Y-62559095D02*
X91019380Y-62559095D01*
X91019380Y-62178142D01*
X91067000Y-62082904D01*
X91114619Y-62035285D01*
X91209857Y-61987666D01*
X91352714Y-61987666D01*
X91447952Y-62035285D01*
X91495571Y-62082904D01*
X91543190Y-62178142D01*
X91543190Y-62559095D01*
X91019380Y-61559095D02*
X91828904Y-61559095D01*
X91924142Y-61511476D01*
X91971761Y-61463857D01*
X92019380Y-61368619D01*
X92019380Y-61178142D01*
X91971761Y-61082904D01*
X91924142Y-61035285D01*
X91828904Y-60987666D01*
X91019380Y-60987666D01*
X91971761Y-60559095D02*
X92019380Y-60416238D01*
X92019380Y-60178142D01*
X91971761Y-60082904D01*
X91924142Y-60035285D01*
X91828904Y-59987666D01*
X91733666Y-59987666D01*
X91638428Y-60035285D01*
X91590809Y-60082904D01*
X91543190Y-60178142D01*
X91495571Y-60368619D01*
X91447952Y-60463857D01*
X91400333Y-60511476D01*
X91305095Y-60559095D01*
X91209857Y-60559095D01*
X91114619Y-60511476D01*
X91067000Y-60463857D01*
X91019380Y-60368619D01*
X91019380Y-60130523D01*
X91067000Y-59987666D01*
X91019380Y-59368619D02*
X91019380Y-59273380D01*
X91067000Y-59178142D01*
X91114619Y-59130523D01*
X91209857Y-59082904D01*
X91400333Y-59035285D01*
X91638428Y-59035285D01*
X91828904Y-59082904D01*
X91924142Y-59130523D01*
X91971761Y-59178142D01*
X92019380Y-59273380D01*
X92019380Y-59368619D01*
X91971761Y-59463857D01*
X91924142Y-59511476D01*
X91828904Y-59559095D01*
X91638428Y-59606714D01*
X91400333Y-59606714D01*
X91209857Y-59559095D01*
X91114619Y-59511476D01*
X91067000Y-59463857D01*
X91019380Y-59368619D01*
X66508380Y-76326904D02*
X67317904Y-76326904D01*
X67413142Y-76279285D01*
X67460761Y-76231666D01*
X67508380Y-76136428D01*
X67508380Y-75945952D01*
X67460761Y-75850714D01*
X67413142Y-75803095D01*
X67317904Y-75755476D01*
X66508380Y-75755476D01*
X66841714Y-74850714D02*
X67508380Y-74850714D01*
X66460761Y-75088809D02*
X67175047Y-75326904D01*
X67175047Y-74707857D01*
X75334880Y-64261904D02*
X76144404Y-64261904D01*
X76239642Y-64214285D01*
X76287261Y-64166666D01*
X76334880Y-64071428D01*
X76334880Y-63880952D01*
X76287261Y-63785714D01*
X76239642Y-63738095D01*
X76144404Y-63690476D01*
X75334880Y-63690476D01*
X76334880Y-62690476D02*
X76334880Y-63261904D01*
X76334880Y-62976190D02*
X75334880Y-62976190D01*
X75477738Y-63071428D01*
X75572976Y-63166666D01*
X75620595Y-63261904D01*
X112942833Y-72778880D02*
X112609500Y-72302690D01*
X112371404Y-72778880D02*
X112371404Y-71778880D01*
X112752357Y-71778880D01*
X112847595Y-71826500D01*
X112895214Y-71874119D01*
X112942833Y-71969357D01*
X112942833Y-72112214D01*
X112895214Y-72207452D01*
X112847595Y-72255071D01*
X112752357Y-72302690D01*
X112371404Y-72302690D01*
X113942833Y-72683642D02*
X113895214Y-72731261D01*
X113752357Y-72778880D01*
X113657119Y-72778880D01*
X113514261Y-72731261D01*
X113419023Y-72636023D01*
X113371404Y-72540785D01*
X113323785Y-72350309D01*
X113323785Y-72207452D01*
X113371404Y-72016976D01*
X113419023Y-71921738D01*
X113514261Y-71826500D01*
X113657119Y-71778880D01*
X113752357Y-71778880D01*
X113895214Y-71826500D01*
X113942833Y-71874119D01*
X114895214Y-71826500D02*
X114799976Y-71778880D01*
X114657119Y-71778880D01*
X114514261Y-71826500D01*
X114419023Y-71921738D01*
X114371404Y-72016976D01*
X114323785Y-72207452D01*
X114323785Y-72350309D01*
X114371404Y-72540785D01*
X114419023Y-72636023D01*
X114514261Y-72731261D01*
X114657119Y-72778880D01*
X114752357Y-72778880D01*
X114895214Y-72731261D01*
X114942833Y-72683642D01*
X114942833Y-72350309D01*
X114752357Y-72350309D01*
X115276166Y-71778880D02*
X115895214Y-71778880D01*
X115561880Y-72159833D01*
X115704738Y-72159833D01*
X115799976Y-72207452D01*
X115847595Y-72255071D01*
X115895214Y-72350309D01*
X115895214Y-72588404D01*
X115847595Y-72683642D01*
X115799976Y-72731261D01*
X115704738Y-72778880D01*
X115419023Y-72778880D01*
X115323785Y-72731261D01*
X115276166Y-72683642D01*
M02*
