G04 #@! TF.GenerationSoftware,KiCad,Pcbnew,5.1.5+dfsg1-2build2*
G04 #@! TF.CreationDate,2021-07-08T11:40:41+02:00*
G04 #@! TF.ProjectId,GraphixCard,47726170-6869-4784-9361-72642e6b6963,rev?*
G04 #@! TF.SameCoordinates,Original*
G04 #@! TF.FileFunction,Legend,Bot*
G04 #@! TF.FilePolarity,Positive*
%FSLAX46Y46*%
G04 Gerber Fmt 4.6, Leading zero omitted, Abs format (unit mm)*
G04 Created by KiCad (PCBNEW 5.1.5+dfsg1-2build2) date 2021-07-08 11:40:41*
%MOMM*%
%LPD*%
G04 APERTURE LIST*
%ADD10C,0.120000*%
%ADD11C,0.150000*%
G04 APERTURE END LIST*
D10*
X147002500Y-123698000D02*
X147002500Y-131826000D01*
X147002500Y-123698000D02*
X144462500Y-123698000D01*
X149796500Y-131826000D02*
X147002500Y-123698000D01*
X151066500Y-131826000D02*
X149796500Y-131826000D01*
X149796500Y-123698000D02*
X151066500Y-123698000D01*
X147002500Y-131826000D02*
X149796500Y-123698000D01*
X144462500Y-131826000D02*
X147002500Y-131826000D01*
X93408500Y-123698000D02*
X92138500Y-123698000D01*
X96202500Y-131826000D02*
X93408500Y-123698000D01*
X93408500Y-131826000D02*
X92138500Y-131826000D01*
X96202500Y-123698000D02*
X93408500Y-131826000D01*
X96202500Y-123698000D02*
X98742500Y-123698000D01*
X96202500Y-131826000D02*
X96202500Y-123698000D01*
X98742500Y-131826000D02*
X96202500Y-131826000D01*
X98742500Y-131826000D02*
X144462500Y-131826000D01*
X147002500Y-129286000D02*
X147002500Y-126238000D01*
X144462500Y-123698000D02*
X98742500Y-123698000D01*
X96202500Y-126238000D02*
X96202500Y-129286000D01*
X147002500Y-129286000D02*
G75*
G02X144462500Y-131826000I-2540000J0D01*
G01*
X144462500Y-123698000D02*
G75*
G02X147002500Y-126238000I0J-2540000D01*
G01*
X96202500Y-126238000D02*
G75*
G02X98742500Y-123698000I2540000J0D01*
G01*
X98742500Y-131826000D02*
G75*
G02X96202500Y-129286000I0J2540000D01*
G01*
X74805000Y-110673000D02*
X76265000Y-110673000D01*
X74805000Y-107513000D02*
X76965000Y-107513000D01*
X74805000Y-107513000D02*
X74805000Y-108443000D01*
X74805000Y-110673000D02*
X74805000Y-109743000D01*
X78357000Y-111069000D02*
X76897000Y-111069000D01*
X78357000Y-114229000D02*
X76197000Y-114229000D01*
X78357000Y-114229000D02*
X78357000Y-113299000D01*
X78357000Y-111069000D02*
X78357000Y-111999000D01*
X101326000Y-103124000D02*
X101326000Y-101174000D01*
X101326000Y-103124000D02*
X101326000Y-105074000D01*
X106446000Y-103124000D02*
X106446000Y-101174000D01*
X106446000Y-103124000D02*
X106446000Y-106574000D01*
X94869000Y-113010000D02*
X98319000Y-113010000D01*
X94869000Y-113010000D02*
X92919000Y-113010000D01*
X94869000Y-118130000D02*
X96819000Y-118130000D01*
X94869000Y-118130000D02*
X92919000Y-118130000D01*
X147061422Y-107113000D02*
X147578578Y-107113000D01*
X147061422Y-108533000D02*
X147578578Y-108533000D01*
X147061422Y-109653000D02*
X147578578Y-109653000D01*
X147061422Y-111073000D02*
X147578578Y-111073000D01*
X138378000Y-106548422D02*
X138378000Y-107065578D01*
X136958000Y-106548422D02*
X136958000Y-107065578D01*
X138180578Y-78053000D02*
X137663422Y-78053000D01*
X138180578Y-76633000D02*
X137663422Y-76633000D01*
X77211422Y-105335000D02*
X77728578Y-105335000D01*
X77211422Y-106755000D02*
X77728578Y-106755000D01*
X77649000Y-90546422D02*
X77649000Y-91063578D01*
X79069000Y-90546422D02*
X79069000Y-91063578D01*
X137663422Y-79173000D02*
X138180578Y-79173000D01*
X137663422Y-80593000D02*
X138180578Y-80593000D01*
X132005000Y-91571578D02*
X132005000Y-91054422D01*
X133425000Y-91571578D02*
X133425000Y-91054422D01*
X137663422Y-69013000D02*
X138180578Y-69013000D01*
X137663422Y-70433000D02*
X138180578Y-70433000D01*
X147061422Y-117273000D02*
X147578578Y-117273000D01*
X147061422Y-118693000D02*
X147578578Y-118693000D01*
X147061422Y-96953000D02*
X147578578Y-96953000D01*
X147061422Y-98373000D02*
X147578578Y-98373000D01*
X140085578Y-56440000D02*
X139568422Y-56440000D01*
X140085578Y-57860000D02*
X139568422Y-57860000D01*
X114528000Y-59462000D02*
X114528000Y-59587000D01*
X111278000Y-59462000D02*
X111278000Y-59687000D01*
X111278000Y-62712000D02*
X111278000Y-62487000D01*
X114528000Y-62712000D02*
X114528000Y-62487000D01*
X114528000Y-59462000D02*
X111278000Y-59462000D01*
X114528000Y-62712000D02*
X111278000Y-62712000D01*
X114528000Y-59587000D02*
X115603000Y-59587000D01*
X99594000Y-73888000D02*
X99594000Y-73763000D01*
X102844000Y-73888000D02*
X102844000Y-73663000D01*
X102844000Y-70638000D02*
X102844000Y-70863000D01*
X99594000Y-70638000D02*
X99594000Y-70863000D01*
X99594000Y-73888000D02*
X102844000Y-73888000D01*
X99594000Y-70638000D02*
X102844000Y-70638000D01*
X99594000Y-73763000D02*
X98519000Y-73763000D01*
X69267000Y-115574578D02*
X69267000Y-115057422D01*
X70687000Y-115574578D02*
X70687000Y-115057422D01*
X113660422Y-103834000D02*
X114177578Y-103834000D01*
X113660422Y-102414000D02*
X114177578Y-102414000D01*
X101929000Y-68457578D02*
X101929000Y-67940422D01*
X100509000Y-68457578D02*
X100509000Y-67940422D01*
X101477578Y-74601000D02*
X100960422Y-74601000D01*
X101477578Y-76021000D02*
X100960422Y-76021000D01*
X94309000Y-70997578D02*
X94309000Y-70480422D01*
X92889000Y-70997578D02*
X92889000Y-70480422D01*
X137552500Y-121534422D02*
X137552500Y-122051578D01*
X136132500Y-121534422D02*
X136132500Y-122051578D01*
X114676422Y-85165000D02*
X115193578Y-85165000D01*
X114676422Y-83745000D02*
X115193578Y-83745000D01*
X72766422Y-76021000D02*
X73283578Y-76021000D01*
X72766422Y-74601000D02*
X73283578Y-74601000D01*
X147061422Y-112193000D02*
X147578578Y-112193000D01*
X147061422Y-113613000D02*
X147578578Y-113613000D01*
X147061422Y-114733000D02*
X147578578Y-114733000D01*
X147061422Y-116153000D02*
X147578578Y-116153000D01*
X113359000Y-99445578D02*
X113359000Y-98928422D01*
X111939000Y-99445578D02*
X111939000Y-98928422D01*
X137663422Y-74093000D02*
X138180578Y-74093000D01*
X137663422Y-75513000D02*
X138180578Y-75513000D01*
X116257000Y-60828422D02*
X116257000Y-61345578D01*
X117677000Y-60828422D02*
X117677000Y-61345578D01*
X112644422Y-58749000D02*
X113161578Y-58749000D01*
X112644422Y-57329000D02*
X113161578Y-57329000D01*
X111120422Y-85165000D02*
X111637578Y-85165000D01*
X111120422Y-83745000D02*
X111637578Y-83745000D01*
X109097578Y-86793000D02*
X108580422Y-86793000D01*
X109097578Y-88213000D02*
X108580422Y-88213000D01*
X136958000Y-111383578D02*
X136958000Y-110866422D01*
X138378000Y-111383578D02*
X138378000Y-110866422D01*
X135012500Y-121534422D02*
X135012500Y-122051578D01*
X133592500Y-121534422D02*
X133592500Y-122051578D01*
X114987000Y-69464422D02*
X114987000Y-69981578D01*
X116407000Y-69464422D02*
X116407000Y-69981578D01*
X104008422Y-108914000D02*
X104525578Y-108914000D01*
X104008422Y-107494000D02*
X104525578Y-107494000D01*
X99897000Y-68457578D02*
X99897000Y-67940422D01*
X98477000Y-68457578D02*
X98477000Y-67940422D01*
X76585578Y-121106000D02*
X76068422Y-121106000D01*
X76585578Y-119686000D02*
X76068422Y-119686000D01*
X74093000Y-112390422D02*
X74093000Y-112907578D01*
X75513000Y-112390422D02*
X75513000Y-112907578D01*
X113542578Y-63298000D02*
X113025422Y-63298000D01*
X113542578Y-64718000D02*
X113025422Y-64718000D01*
X81967000Y-117352578D02*
X81967000Y-116835422D01*
X83387000Y-117352578D02*
X83387000Y-116835422D01*
X147061422Y-99493000D02*
X147578578Y-99493000D01*
X147061422Y-100913000D02*
X147578578Y-100913000D01*
X147061422Y-102033000D02*
X147578578Y-102033000D01*
X147061422Y-103453000D02*
X147578578Y-103453000D01*
X147061422Y-104573000D02*
X147578578Y-104573000D01*
X147061422Y-105993000D02*
X147578578Y-105993000D01*
X140092500Y-121534422D02*
X140092500Y-122051578D01*
X138672500Y-121534422D02*
X138672500Y-122051578D01*
X138378000Y-93467422D02*
X138378000Y-93984578D01*
X136958000Y-93467422D02*
X136958000Y-93984578D01*
X67893000Y-91063578D02*
X67893000Y-90546422D01*
X66473000Y-91063578D02*
X66473000Y-90546422D01*
X90499000Y-113406422D02*
X90499000Y-113923578D01*
X89079000Y-113406422D02*
X89079000Y-113923578D01*
X79069000Y-108834422D02*
X79069000Y-109351578D01*
X77649000Y-108834422D02*
X77649000Y-109351578D01*
X110923000Y-69464422D02*
X110923000Y-69981578D01*
X112343000Y-69464422D02*
X112343000Y-69981578D01*
X106548422Y-85165000D02*
X107065578Y-85165000D01*
X106548422Y-83745000D02*
X107065578Y-83745000D01*
X68909000Y-63885578D02*
X68909000Y-63368422D01*
X67489000Y-63885578D02*
X67489000Y-63368422D01*
X103961000Y-68457578D02*
X103961000Y-67940422D01*
X102541000Y-68457578D02*
X102541000Y-67940422D01*
X92277000Y-70997578D02*
X92277000Y-70480422D01*
X90857000Y-70997578D02*
X90857000Y-70480422D01*
X113025422Y-66877000D02*
X113542578Y-66877000D01*
X113025422Y-65457000D02*
X113542578Y-65457000D01*
X127583000Y-88133422D02*
X127583000Y-88650578D01*
X126163000Y-88133422D02*
X126163000Y-88650578D01*
X137663422Y-71553000D02*
X138180578Y-71553000D01*
X137663422Y-72973000D02*
X138180578Y-72973000D01*
X112955000Y-69464422D02*
X112955000Y-69981578D01*
X114375000Y-69464422D02*
X114375000Y-69981578D01*
D11*
X76239619Y-108997761D02*
X76192000Y-108902523D01*
X76096761Y-108807285D01*
X75953904Y-108664428D01*
X75906285Y-108569190D01*
X75906285Y-108473952D01*
X76144380Y-108521571D02*
X76096761Y-108426333D01*
X76001523Y-108331095D01*
X75811047Y-108283476D01*
X75477714Y-108283476D01*
X75287238Y-108331095D01*
X75192000Y-108426333D01*
X75144380Y-108521571D01*
X75144380Y-108712047D01*
X75192000Y-108807285D01*
X75287238Y-108902523D01*
X75477714Y-108950142D01*
X75811047Y-108950142D01*
X76001523Y-108902523D01*
X76096761Y-108807285D01*
X76144380Y-108712047D01*
X76144380Y-108521571D01*
X75239619Y-109331095D02*
X75192000Y-109378714D01*
X75144380Y-109473952D01*
X75144380Y-109712047D01*
X75192000Y-109807285D01*
X75239619Y-109854904D01*
X75334857Y-109902523D01*
X75430095Y-109902523D01*
X75572952Y-109854904D01*
X76144380Y-109283476D01*
X76144380Y-109902523D01*
X78017619Y-112553761D02*
X77970000Y-112458523D01*
X77874761Y-112363285D01*
X77731904Y-112220428D01*
X77684285Y-112125190D01*
X77684285Y-112029952D01*
X77922380Y-112077571D02*
X77874761Y-111982333D01*
X77779523Y-111887095D01*
X77589047Y-111839476D01*
X77255714Y-111839476D01*
X77065238Y-111887095D01*
X76970000Y-111982333D01*
X76922380Y-112077571D01*
X76922380Y-112268047D01*
X76970000Y-112363285D01*
X77065238Y-112458523D01*
X77255714Y-112506142D01*
X77589047Y-112506142D01*
X77779523Y-112458523D01*
X77874761Y-112363285D01*
X77922380Y-112268047D01*
X77922380Y-112077571D01*
X77922380Y-113458523D02*
X77922380Y-112887095D01*
X77922380Y-113172809D02*
X76922380Y-113172809D01*
X77065238Y-113077571D01*
X77160476Y-112982333D01*
X77208095Y-112887095D01*
X105124095Y-102449380D02*
X105124095Y-103258904D01*
X105076476Y-103354142D01*
X105028857Y-103401761D01*
X104933619Y-103449380D01*
X104743142Y-103449380D01*
X104647904Y-103401761D01*
X104600285Y-103354142D01*
X104552666Y-103258904D01*
X104552666Y-102449380D01*
X103552666Y-103449380D02*
X104124095Y-103449380D01*
X103838380Y-103449380D02*
X103838380Y-102449380D01*
X103933619Y-102592238D01*
X104028857Y-102687476D01*
X104124095Y-102735095D01*
X102933619Y-102449380D02*
X102838380Y-102449380D01*
X102743142Y-102497000D01*
X102695523Y-102544619D01*
X102647904Y-102639857D01*
X102600285Y-102830333D01*
X102600285Y-103068428D01*
X102647904Y-103258904D01*
X102695523Y-103354142D01*
X102743142Y-103401761D01*
X102838380Y-103449380D01*
X102933619Y-103449380D01*
X103028857Y-103401761D01*
X103076476Y-103354142D01*
X103124095Y-103258904D01*
X103171714Y-103068428D01*
X103171714Y-102830333D01*
X103124095Y-102639857D01*
X103076476Y-102544619D01*
X103028857Y-102497000D01*
X102933619Y-102449380D01*
X95630904Y-111622380D02*
X95630904Y-112431904D01*
X95583285Y-112527142D01*
X95535666Y-112574761D01*
X95440428Y-112622380D01*
X95249952Y-112622380D01*
X95154714Y-112574761D01*
X95107095Y-112527142D01*
X95059476Y-112431904D01*
X95059476Y-111622380D01*
X94535666Y-112622380D02*
X94345190Y-112622380D01*
X94249952Y-112574761D01*
X94202333Y-112527142D01*
X94107095Y-112384285D01*
X94059476Y-112193809D01*
X94059476Y-111812857D01*
X94107095Y-111717619D01*
X94154714Y-111670000D01*
X94249952Y-111622380D01*
X94440428Y-111622380D01*
X94535666Y-111670000D01*
X94583285Y-111717619D01*
X94630904Y-111812857D01*
X94630904Y-112050952D01*
X94583285Y-112146190D01*
X94535666Y-112193809D01*
X94440428Y-112241428D01*
X94249952Y-112241428D01*
X94154714Y-112193809D01*
X94107095Y-112146190D01*
X94059476Y-112050952D01*
X144684666Y-108275380D02*
X145018000Y-107799190D01*
X145256095Y-108275380D02*
X145256095Y-107275380D01*
X144875142Y-107275380D01*
X144779904Y-107323000D01*
X144732285Y-107370619D01*
X144684666Y-107465857D01*
X144684666Y-107608714D01*
X144732285Y-107703952D01*
X144779904Y-107751571D01*
X144875142Y-107799190D01*
X145256095Y-107799190D01*
X143922761Y-107751571D02*
X143779904Y-107799190D01*
X143732285Y-107846809D01*
X143684666Y-107942047D01*
X143684666Y-108084904D01*
X143732285Y-108180142D01*
X143779904Y-108227761D01*
X143875142Y-108275380D01*
X144256095Y-108275380D01*
X144256095Y-107275380D01*
X143922761Y-107275380D01*
X143827523Y-107323000D01*
X143779904Y-107370619D01*
X143732285Y-107465857D01*
X143732285Y-107561095D01*
X143779904Y-107656333D01*
X143827523Y-107703952D01*
X143922761Y-107751571D01*
X144256095Y-107751571D01*
X143351333Y-107275380D02*
X142732285Y-107275380D01*
X143065619Y-107656333D01*
X142922761Y-107656333D01*
X142827523Y-107703952D01*
X142779904Y-107751571D01*
X142732285Y-107846809D01*
X142732285Y-108084904D01*
X142779904Y-108180142D01*
X142827523Y-108227761D01*
X142922761Y-108275380D01*
X143208476Y-108275380D01*
X143303714Y-108227761D01*
X143351333Y-108180142D01*
X144684666Y-110815380D02*
X145018000Y-110339190D01*
X145256095Y-110815380D02*
X145256095Y-109815380D01*
X144875142Y-109815380D01*
X144779904Y-109863000D01*
X144732285Y-109910619D01*
X144684666Y-110005857D01*
X144684666Y-110148714D01*
X144732285Y-110243952D01*
X144779904Y-110291571D01*
X144875142Y-110339190D01*
X145256095Y-110339190D01*
X143922761Y-110291571D02*
X143779904Y-110339190D01*
X143732285Y-110386809D01*
X143684666Y-110482047D01*
X143684666Y-110624904D01*
X143732285Y-110720142D01*
X143779904Y-110767761D01*
X143875142Y-110815380D01*
X144256095Y-110815380D01*
X144256095Y-109815380D01*
X143922761Y-109815380D01*
X143827523Y-109863000D01*
X143779904Y-109910619D01*
X143732285Y-110005857D01*
X143732285Y-110101095D01*
X143779904Y-110196333D01*
X143827523Y-110243952D01*
X143922761Y-110291571D01*
X144256095Y-110291571D01*
X143303714Y-109910619D02*
X143256095Y-109863000D01*
X143160857Y-109815380D01*
X142922761Y-109815380D01*
X142827523Y-109863000D01*
X142779904Y-109910619D01*
X142732285Y-110005857D01*
X142732285Y-110101095D01*
X142779904Y-110243952D01*
X143351333Y-110815380D01*
X142732285Y-110815380D01*
X139771380Y-103497333D02*
X139295190Y-103164000D01*
X139771380Y-102925904D02*
X138771380Y-102925904D01*
X138771380Y-103306857D01*
X138819000Y-103402095D01*
X138866619Y-103449714D01*
X138961857Y-103497333D01*
X139104714Y-103497333D01*
X139199952Y-103449714D01*
X139247571Y-103402095D01*
X139295190Y-103306857D01*
X139295190Y-102925904D01*
X138771380Y-103783047D02*
X139771380Y-104116380D01*
X138771380Y-104449714D01*
X138866619Y-104735428D02*
X138819000Y-104783047D01*
X138771380Y-104878285D01*
X138771380Y-105116380D01*
X138819000Y-105211619D01*
X138866619Y-105259238D01*
X138961857Y-105306857D01*
X139057095Y-105306857D01*
X139199952Y-105259238D01*
X139771380Y-104687809D01*
X139771380Y-105306857D01*
X139104714Y-105640190D02*
X139771380Y-105878285D01*
X139104714Y-106116380D01*
X139771380Y-106640190D02*
X139723761Y-106544952D01*
X139676142Y-106497333D01*
X139580904Y-106449714D01*
X139295190Y-106449714D01*
X139199952Y-106497333D01*
X139152333Y-106544952D01*
X139104714Y-106640190D01*
X139104714Y-106783047D01*
X139152333Y-106878285D01*
X139199952Y-106925904D01*
X139295190Y-106973523D01*
X139580904Y-106973523D01*
X139676142Y-106925904D01*
X139723761Y-106878285D01*
X139771380Y-106783047D01*
X139771380Y-106640190D01*
X139771380Y-107544952D02*
X139723761Y-107449714D01*
X139628523Y-107402095D01*
X138771380Y-107402095D01*
X139771380Y-108449714D02*
X139771380Y-107878285D01*
X139771380Y-108164000D02*
X138771380Y-108164000D01*
X138914238Y-108068761D01*
X139009476Y-107973523D01*
X139057095Y-107878285D01*
X144533666Y-77795380D02*
X144867000Y-77319190D01*
X145105095Y-77795380D02*
X145105095Y-76795380D01*
X144724142Y-76795380D01*
X144628904Y-76843000D01*
X144581285Y-76890619D01*
X144533666Y-76985857D01*
X144533666Y-77128714D01*
X144581285Y-77223952D01*
X144628904Y-77271571D01*
X144724142Y-77319190D01*
X145105095Y-77319190D01*
X144247952Y-76795380D02*
X143914619Y-77795380D01*
X143581285Y-76795380D01*
X143057476Y-76795380D02*
X142962238Y-76795380D01*
X142867000Y-76843000D01*
X142819380Y-76890619D01*
X142771761Y-76985857D01*
X142724142Y-77176333D01*
X142724142Y-77414428D01*
X142771761Y-77604904D01*
X142819380Y-77700142D01*
X142867000Y-77747761D01*
X142962238Y-77795380D01*
X143057476Y-77795380D01*
X143152714Y-77747761D01*
X143200333Y-77700142D01*
X143247952Y-77604904D01*
X143295571Y-77414428D01*
X143295571Y-77176333D01*
X143247952Y-76985857D01*
X143200333Y-76890619D01*
X143152714Y-76843000D01*
X143057476Y-76795380D01*
X142390809Y-77128714D02*
X142152714Y-77795380D01*
X141914619Y-77128714D01*
X141390809Y-77795380D02*
X141486047Y-77747761D01*
X141533666Y-77700142D01*
X141581285Y-77604904D01*
X141581285Y-77319190D01*
X141533666Y-77223952D01*
X141486047Y-77176333D01*
X141390809Y-77128714D01*
X141247952Y-77128714D01*
X141152714Y-77176333D01*
X141105095Y-77223952D01*
X141057476Y-77319190D01*
X141057476Y-77604904D01*
X141105095Y-77700142D01*
X141152714Y-77747761D01*
X141247952Y-77795380D01*
X141390809Y-77795380D01*
X140486047Y-77795380D02*
X140581285Y-77747761D01*
X140628904Y-77652523D01*
X140628904Y-76795380D01*
X139914619Y-76795380D02*
X139819380Y-76795380D01*
X139724142Y-76843000D01*
X139676523Y-76890619D01*
X139628904Y-76985857D01*
X139581285Y-77176333D01*
X139581285Y-77414428D01*
X139628904Y-77604904D01*
X139676523Y-77700142D01*
X139724142Y-77747761D01*
X139819380Y-77795380D01*
X139914619Y-77795380D01*
X140009857Y-77747761D01*
X140057476Y-77700142D01*
X140105095Y-77604904D01*
X140152714Y-77414428D01*
X140152714Y-77176333D01*
X140105095Y-76985857D01*
X140057476Y-76890619D01*
X140009857Y-76843000D01*
X139914619Y-76795380D01*
X80684285Y-104973380D02*
X81017619Y-104497190D01*
X81255714Y-104973380D02*
X81255714Y-103973380D01*
X80874761Y-103973380D01*
X80779523Y-104021000D01*
X80731904Y-104068619D01*
X80684285Y-104163857D01*
X80684285Y-104306714D01*
X80731904Y-104401952D01*
X80779523Y-104449571D01*
X80874761Y-104497190D01*
X81255714Y-104497190D01*
X80350952Y-103973380D02*
X79684285Y-104973380D01*
X79684285Y-103973380D02*
X80350952Y-104973380D01*
X79303333Y-104973380D02*
X79303333Y-103973380D01*
X78731904Y-104973380D01*
X78731904Y-103973380D01*
X78065238Y-103973380D02*
X77874761Y-103973380D01*
X77779523Y-104021000D01*
X77684285Y-104116238D01*
X77636666Y-104306714D01*
X77636666Y-104640047D01*
X77684285Y-104830523D01*
X77779523Y-104925761D01*
X77874761Y-104973380D01*
X78065238Y-104973380D01*
X78160476Y-104925761D01*
X78255714Y-104830523D01*
X78303333Y-104640047D01*
X78303333Y-104306714D01*
X78255714Y-104116238D01*
X78160476Y-104021000D01*
X78065238Y-103973380D01*
X76636666Y-104973380D02*
X76970000Y-104497190D01*
X77208095Y-104973380D02*
X77208095Y-103973380D01*
X76827142Y-103973380D01*
X76731904Y-104021000D01*
X76684285Y-104068619D01*
X76636666Y-104163857D01*
X76636666Y-104306714D01*
X76684285Y-104401952D01*
X76731904Y-104449571D01*
X76827142Y-104497190D01*
X77208095Y-104497190D01*
X76208095Y-104973380D02*
X76208095Y-103973380D01*
X75827142Y-103973380D01*
X75731904Y-104021000D01*
X75684285Y-104068619D01*
X75636666Y-104163857D01*
X75636666Y-104306714D01*
X75684285Y-104401952D01*
X75731904Y-104449571D01*
X75827142Y-104497190D01*
X76208095Y-104497190D01*
X75208095Y-103973380D02*
X75208095Y-104782904D01*
X75160476Y-104878142D01*
X75112857Y-104925761D01*
X75017619Y-104973380D01*
X74827142Y-104973380D01*
X74731904Y-104925761D01*
X74684285Y-104878142D01*
X74636666Y-104782904D01*
X74636666Y-103973380D01*
X73970000Y-103973380D02*
X73874761Y-103973380D01*
X73779523Y-104021000D01*
X73731904Y-104068619D01*
X73684285Y-104163857D01*
X73636666Y-104354333D01*
X73636666Y-104592428D01*
X73684285Y-104782904D01*
X73731904Y-104878142D01*
X73779523Y-104925761D01*
X73874761Y-104973380D01*
X73970000Y-104973380D01*
X74065238Y-104925761D01*
X74112857Y-104878142D01*
X74160476Y-104782904D01*
X74208095Y-104592428D01*
X74208095Y-104354333D01*
X74160476Y-104163857D01*
X74112857Y-104068619D01*
X74065238Y-104021000D01*
X73970000Y-103973380D01*
X77066142Y-90138333D02*
X77113761Y-90090714D01*
X77161380Y-89947857D01*
X77161380Y-89852619D01*
X77113761Y-89709761D01*
X77018523Y-89614523D01*
X76923285Y-89566904D01*
X76732809Y-89519285D01*
X76589952Y-89519285D01*
X76399476Y-89566904D01*
X76304238Y-89614523D01*
X76209000Y-89709761D01*
X76161380Y-89852619D01*
X76161380Y-89947857D01*
X76209000Y-90090714D01*
X76256619Y-90138333D01*
X77161380Y-90566904D02*
X76161380Y-90566904D01*
X76161380Y-90805000D01*
X76209000Y-90947857D01*
X76304238Y-91043095D01*
X76399476Y-91090714D01*
X76589952Y-91138333D01*
X76732809Y-91138333D01*
X76923285Y-91090714D01*
X77018523Y-91043095D01*
X77113761Y-90947857D01*
X77161380Y-90805000D01*
X77161380Y-90566904D01*
X76161380Y-92043095D02*
X76161380Y-91566904D01*
X76637571Y-91519285D01*
X76589952Y-91566904D01*
X76542333Y-91662142D01*
X76542333Y-91900238D01*
X76589952Y-91995476D01*
X76637571Y-92043095D01*
X76732809Y-92090714D01*
X76970904Y-92090714D01*
X77066142Y-92043095D01*
X77113761Y-91995476D01*
X77161380Y-91900238D01*
X77161380Y-91662142D01*
X77113761Y-91566904D01*
X77066142Y-91519285D01*
X144533666Y-80335380D02*
X144867000Y-79859190D01*
X145105095Y-80335380D02*
X145105095Y-79335380D01*
X144724142Y-79335380D01*
X144628904Y-79383000D01*
X144581285Y-79430619D01*
X144533666Y-79525857D01*
X144533666Y-79668714D01*
X144581285Y-79763952D01*
X144628904Y-79811571D01*
X144724142Y-79859190D01*
X145105095Y-79859190D01*
X144247952Y-79335380D02*
X143914619Y-80335380D01*
X143581285Y-79335380D01*
X143057476Y-79335380D02*
X142962238Y-79335380D01*
X142867000Y-79383000D01*
X142819380Y-79430619D01*
X142771761Y-79525857D01*
X142724142Y-79716333D01*
X142724142Y-79954428D01*
X142771761Y-80144904D01*
X142819380Y-80240142D01*
X142867000Y-80287761D01*
X142962238Y-80335380D01*
X143057476Y-80335380D01*
X143152714Y-80287761D01*
X143200333Y-80240142D01*
X143247952Y-80144904D01*
X143295571Y-79954428D01*
X143295571Y-79716333D01*
X143247952Y-79525857D01*
X143200333Y-79430619D01*
X143152714Y-79383000D01*
X143057476Y-79335380D01*
X142390809Y-79668714D02*
X142152714Y-80335380D01*
X141914619Y-79668714D01*
X141390809Y-80335380D02*
X141486047Y-80287761D01*
X141533666Y-80240142D01*
X141581285Y-80144904D01*
X141581285Y-79859190D01*
X141533666Y-79763952D01*
X141486047Y-79716333D01*
X141390809Y-79668714D01*
X141247952Y-79668714D01*
X141152714Y-79716333D01*
X141105095Y-79763952D01*
X141057476Y-79859190D01*
X141057476Y-80144904D01*
X141105095Y-80240142D01*
X141152714Y-80287761D01*
X141247952Y-80335380D01*
X141390809Y-80335380D01*
X140486047Y-80335380D02*
X140581285Y-80287761D01*
X140628904Y-80192523D01*
X140628904Y-79335380D01*
X140152714Y-79430619D02*
X140105095Y-79383000D01*
X140009857Y-79335380D01*
X139771761Y-79335380D01*
X139676523Y-79383000D01*
X139628904Y-79430619D01*
X139581285Y-79525857D01*
X139581285Y-79621095D01*
X139628904Y-79763952D01*
X140200333Y-80335380D01*
X139581285Y-80335380D01*
X133167380Y-87471333D02*
X132691190Y-87138000D01*
X133167380Y-86899904D02*
X132167380Y-86899904D01*
X132167380Y-87280857D01*
X132215000Y-87376095D01*
X132262619Y-87423714D01*
X132357857Y-87471333D01*
X132500714Y-87471333D01*
X132595952Y-87423714D01*
X132643571Y-87376095D01*
X132691190Y-87280857D01*
X132691190Y-86899904D01*
X133167380Y-88471333D02*
X132691190Y-88138000D01*
X133167380Y-87899904D02*
X132167380Y-87899904D01*
X132167380Y-88280857D01*
X132215000Y-88376095D01*
X132262619Y-88423714D01*
X132357857Y-88471333D01*
X132500714Y-88471333D01*
X132595952Y-88423714D01*
X132643571Y-88376095D01*
X132691190Y-88280857D01*
X132691190Y-87899904D01*
X132167380Y-89090380D02*
X132167380Y-89185619D01*
X132215000Y-89280857D01*
X132262619Y-89328476D01*
X132357857Y-89376095D01*
X132548333Y-89423714D01*
X132786428Y-89423714D01*
X132976904Y-89376095D01*
X133072142Y-89328476D01*
X133119761Y-89280857D01*
X133167380Y-89185619D01*
X133167380Y-89090380D01*
X133119761Y-88995142D01*
X133072142Y-88947523D01*
X132976904Y-88899904D01*
X132786428Y-88852285D01*
X132548333Y-88852285D01*
X132357857Y-88899904D01*
X132262619Y-88947523D01*
X132215000Y-88995142D01*
X132167380Y-89090380D01*
X144533666Y-70175380D02*
X144867000Y-69699190D01*
X145105095Y-70175380D02*
X145105095Y-69175380D01*
X144724142Y-69175380D01*
X144628904Y-69223000D01*
X144581285Y-69270619D01*
X144533666Y-69365857D01*
X144533666Y-69508714D01*
X144581285Y-69603952D01*
X144628904Y-69651571D01*
X144724142Y-69699190D01*
X145105095Y-69699190D01*
X144247952Y-69175380D02*
X143914619Y-70175380D01*
X143581285Y-69175380D01*
X142724142Y-70175380D02*
X143295571Y-70175380D01*
X143009857Y-70175380D02*
X143009857Y-69175380D01*
X143105095Y-69318238D01*
X143200333Y-69413476D01*
X143295571Y-69461095D01*
X142390809Y-69508714D02*
X142152714Y-70175380D01*
X141914619Y-69508714D01*
X141390809Y-70175380D02*
X141486047Y-70127761D01*
X141533666Y-70080142D01*
X141581285Y-69984904D01*
X141581285Y-69699190D01*
X141533666Y-69603952D01*
X141486047Y-69556333D01*
X141390809Y-69508714D01*
X141247952Y-69508714D01*
X141152714Y-69556333D01*
X141105095Y-69603952D01*
X141057476Y-69699190D01*
X141057476Y-69984904D01*
X141105095Y-70080142D01*
X141152714Y-70127761D01*
X141247952Y-70175380D01*
X141390809Y-70175380D01*
X140486047Y-70175380D02*
X140581285Y-70127761D01*
X140628904Y-70032523D01*
X140628904Y-69175380D01*
X139581285Y-70175380D02*
X140152714Y-70175380D01*
X139867000Y-70175380D02*
X139867000Y-69175380D01*
X139962238Y-69318238D01*
X140057476Y-69413476D01*
X140152714Y-69461095D01*
X144676666Y-118435380D02*
X145010000Y-117959190D01*
X145248095Y-118435380D02*
X145248095Y-117435380D01*
X144867142Y-117435380D01*
X144771904Y-117483000D01*
X144724285Y-117530619D01*
X144676666Y-117625857D01*
X144676666Y-117768714D01*
X144724285Y-117863952D01*
X144771904Y-117911571D01*
X144867142Y-117959190D01*
X145248095Y-117959190D01*
X143914761Y-117911571D02*
X143771904Y-117959190D01*
X143724285Y-118006809D01*
X143676666Y-118102047D01*
X143676666Y-118244904D01*
X143724285Y-118340142D01*
X143771904Y-118387761D01*
X143867142Y-118435380D01*
X144248095Y-118435380D01*
X144248095Y-117435380D01*
X143914761Y-117435380D01*
X143819523Y-117483000D01*
X143771904Y-117530619D01*
X143724285Y-117625857D01*
X143724285Y-117721095D01*
X143771904Y-117816333D01*
X143819523Y-117863952D01*
X143914761Y-117911571D01*
X144248095Y-117911571D01*
X142676666Y-118340142D02*
X142724285Y-118387761D01*
X142867142Y-118435380D01*
X142962380Y-118435380D01*
X143105238Y-118387761D01*
X143200476Y-118292523D01*
X143248095Y-118197285D01*
X143295714Y-118006809D01*
X143295714Y-117863952D01*
X143248095Y-117673476D01*
X143200476Y-117578238D01*
X143105238Y-117483000D01*
X142962380Y-117435380D01*
X142867142Y-117435380D01*
X142724285Y-117483000D01*
X142676666Y-117530619D01*
X142057619Y-117435380D02*
X141962380Y-117435380D01*
X141867142Y-117483000D01*
X141819523Y-117530619D01*
X141771904Y-117625857D01*
X141724285Y-117816333D01*
X141724285Y-118054428D01*
X141771904Y-118244904D01*
X141819523Y-118340142D01*
X141867142Y-118387761D01*
X141962380Y-118435380D01*
X142057619Y-118435380D01*
X142152857Y-118387761D01*
X142200476Y-118340142D01*
X142248095Y-118244904D01*
X142295714Y-118054428D01*
X142295714Y-117816333D01*
X142248095Y-117625857D01*
X142200476Y-117530619D01*
X142152857Y-117483000D01*
X142057619Y-117435380D01*
X144684666Y-98115380D02*
X145018000Y-97639190D01*
X145256095Y-98115380D02*
X145256095Y-97115380D01*
X144875142Y-97115380D01*
X144779904Y-97163000D01*
X144732285Y-97210619D01*
X144684666Y-97305857D01*
X144684666Y-97448714D01*
X144732285Y-97543952D01*
X144779904Y-97591571D01*
X144875142Y-97639190D01*
X145256095Y-97639190D01*
X143922761Y-97591571D02*
X143779904Y-97639190D01*
X143732285Y-97686809D01*
X143684666Y-97782047D01*
X143684666Y-97924904D01*
X143732285Y-98020142D01*
X143779904Y-98067761D01*
X143875142Y-98115380D01*
X144256095Y-98115380D01*
X144256095Y-97115380D01*
X143922761Y-97115380D01*
X143827523Y-97163000D01*
X143779904Y-97210619D01*
X143732285Y-97305857D01*
X143732285Y-97401095D01*
X143779904Y-97496333D01*
X143827523Y-97543952D01*
X143922761Y-97591571D01*
X144256095Y-97591571D01*
X143351333Y-97115380D02*
X142684666Y-97115380D01*
X143113238Y-98115380D01*
X141842857Y-58507380D02*
X141176190Y-58507380D01*
X141842857Y-59507380D01*
X141176190Y-59507380D01*
X140795238Y-59507380D02*
X140795238Y-58507380D01*
X140414285Y-58507380D01*
X140319047Y-58555000D01*
X140271428Y-58602619D01*
X140223809Y-58697857D01*
X140223809Y-58840714D01*
X140271428Y-58935952D01*
X140319047Y-58983571D01*
X140414285Y-59031190D01*
X140795238Y-59031190D01*
X139842857Y-59221666D02*
X139366666Y-59221666D01*
X139938095Y-59507380D02*
X139604761Y-58507380D01*
X139271428Y-59507380D01*
X138461904Y-59507380D02*
X138938095Y-59507380D01*
X138938095Y-58507380D01*
X137938095Y-58507380D02*
X137842857Y-58507380D01*
X137747619Y-58555000D01*
X137700000Y-58602619D01*
X137652380Y-58697857D01*
X137604761Y-58888333D01*
X137604761Y-59126428D01*
X137652380Y-59316904D01*
X137700000Y-59412142D01*
X137747619Y-59459761D01*
X137842857Y-59507380D01*
X137938095Y-59507380D01*
X138033333Y-59459761D01*
X138080952Y-59412142D01*
X138128571Y-59316904D01*
X138176190Y-59126428D01*
X138176190Y-58888333D01*
X138128571Y-58697857D01*
X138080952Y-58602619D01*
X138033333Y-58555000D01*
X137938095Y-58507380D01*
X113664904Y-60539380D02*
X113664904Y-61348904D01*
X113617285Y-61444142D01*
X113569666Y-61491761D01*
X113474428Y-61539380D01*
X113283952Y-61539380D01*
X113188714Y-61491761D01*
X113141095Y-61444142D01*
X113093476Y-61348904D01*
X113093476Y-60539380D01*
X112712523Y-60539380D02*
X112045857Y-60539380D01*
X112474428Y-61539380D01*
X101980904Y-71715380D02*
X101980904Y-72524904D01*
X101933285Y-72620142D01*
X101885666Y-72667761D01*
X101790428Y-72715380D01*
X101599952Y-72715380D01*
X101504714Y-72667761D01*
X101457095Y-72620142D01*
X101409476Y-72524904D01*
X101409476Y-71715380D01*
X101028523Y-71715380D02*
X100409476Y-71715380D01*
X100742809Y-72096333D01*
X100599952Y-72096333D01*
X100504714Y-72143952D01*
X100457095Y-72191571D01*
X100409476Y-72286809D01*
X100409476Y-72524904D01*
X100457095Y-72620142D01*
X100504714Y-72667761D01*
X100599952Y-72715380D01*
X100885666Y-72715380D01*
X100980904Y-72667761D01*
X101028523Y-72620142D01*
X68905380Y-113244571D02*
X68429190Y-112911238D01*
X68905380Y-112673142D02*
X67905380Y-112673142D01*
X67905380Y-113054095D01*
X67953000Y-113149333D01*
X68000619Y-113196952D01*
X68095857Y-113244571D01*
X68238714Y-113244571D01*
X68333952Y-113196952D01*
X68381571Y-113149333D01*
X68429190Y-113054095D01*
X68429190Y-112673142D01*
X68000619Y-113625523D02*
X67953000Y-113673142D01*
X67905380Y-113768380D01*
X67905380Y-114006476D01*
X67953000Y-114101714D01*
X68000619Y-114149333D01*
X68095857Y-114196952D01*
X68191095Y-114196952D01*
X68333952Y-114149333D01*
X68905380Y-113577904D01*
X68905380Y-114196952D01*
X68905380Y-114625523D02*
X67905380Y-114625523D01*
X67905380Y-114863619D01*
X67953000Y-115006476D01*
X68048238Y-115101714D01*
X68143476Y-115149333D01*
X68333952Y-115196952D01*
X68476809Y-115196952D01*
X68667285Y-115149333D01*
X68762523Y-115101714D01*
X68857761Y-115006476D01*
X68905380Y-114863619D01*
X68905380Y-114625523D01*
X68619666Y-115577904D02*
X68619666Y-116054095D01*
X68905380Y-115482666D02*
X67905380Y-115816000D01*
X68905380Y-116149333D01*
X68810142Y-117054095D02*
X68857761Y-117006476D01*
X68905380Y-116863619D01*
X68905380Y-116768380D01*
X68857761Y-116625523D01*
X68762523Y-116530285D01*
X68667285Y-116482666D01*
X68476809Y-116435047D01*
X68333952Y-116435047D01*
X68143476Y-116482666D01*
X68048238Y-116530285D01*
X67953000Y-116625523D01*
X67905380Y-116768380D01*
X67905380Y-116863619D01*
X67953000Y-117006476D01*
X68000619Y-117054095D01*
X68905380Y-118006476D02*
X68905380Y-117435047D01*
X68905380Y-117720761D02*
X67905380Y-117720761D01*
X68048238Y-117625523D01*
X68143476Y-117530285D01*
X68191095Y-117435047D01*
X115109476Y-105226380D02*
X115442809Y-104750190D01*
X115680904Y-105226380D02*
X115680904Y-104226380D01*
X115299952Y-104226380D01*
X115204714Y-104274000D01*
X115157095Y-104321619D01*
X115109476Y-104416857D01*
X115109476Y-104559714D01*
X115157095Y-104654952D01*
X115204714Y-104702571D01*
X115299952Y-104750190D01*
X115680904Y-104750190D01*
X114490428Y-104226380D02*
X114299952Y-104226380D01*
X114204714Y-104274000D01*
X114109476Y-104369238D01*
X114061857Y-104559714D01*
X114061857Y-104893047D01*
X114109476Y-105083523D01*
X114204714Y-105178761D01*
X114299952Y-105226380D01*
X114490428Y-105226380D01*
X114585666Y-105178761D01*
X114680904Y-105083523D01*
X114728523Y-104893047D01*
X114728523Y-104559714D01*
X114680904Y-104369238D01*
X114585666Y-104274000D01*
X114490428Y-104226380D01*
X113061857Y-105131142D02*
X113109476Y-105178761D01*
X113252333Y-105226380D01*
X113347571Y-105226380D01*
X113490428Y-105178761D01*
X113585666Y-105083523D01*
X113633285Y-104988285D01*
X113680904Y-104797809D01*
X113680904Y-104654952D01*
X113633285Y-104464476D01*
X113585666Y-104369238D01*
X113490428Y-104274000D01*
X113347571Y-104226380D01*
X113252333Y-104226380D01*
X113109476Y-104274000D01*
X113061857Y-104321619D01*
X112442809Y-104226380D02*
X112347571Y-104226380D01*
X112252333Y-104274000D01*
X112204714Y-104321619D01*
X112157095Y-104416857D01*
X112109476Y-104607333D01*
X112109476Y-104845428D01*
X112157095Y-105035904D01*
X112204714Y-105131142D01*
X112252333Y-105178761D01*
X112347571Y-105226380D01*
X112442809Y-105226380D01*
X112538047Y-105178761D01*
X112585666Y-105131142D01*
X112633285Y-105035904D01*
X112680904Y-104845428D01*
X112680904Y-104607333D01*
X112633285Y-104416857D01*
X112585666Y-104321619D01*
X112538047Y-104274000D01*
X112442809Y-104226380D01*
X101671380Y-64484333D02*
X101195190Y-64151000D01*
X101671380Y-63912904D02*
X100671380Y-63912904D01*
X100671380Y-64293857D01*
X100719000Y-64389095D01*
X100766619Y-64436714D01*
X100861857Y-64484333D01*
X101004714Y-64484333D01*
X101099952Y-64436714D01*
X101147571Y-64389095D01*
X101195190Y-64293857D01*
X101195190Y-63912904D01*
X100719000Y-65436714D02*
X100671380Y-65341476D01*
X100671380Y-65198619D01*
X100719000Y-65055761D01*
X100814238Y-64960523D01*
X100909476Y-64912904D01*
X101099952Y-64865285D01*
X101242809Y-64865285D01*
X101433285Y-64912904D01*
X101528523Y-64960523D01*
X101623761Y-65055761D01*
X101671380Y-65198619D01*
X101671380Y-65293857D01*
X101623761Y-65436714D01*
X101576142Y-65484333D01*
X101242809Y-65484333D01*
X101242809Y-65293857D01*
X101671380Y-66436714D02*
X101671380Y-65865285D01*
X101671380Y-66151000D02*
X100671380Y-66151000D01*
X100814238Y-66055761D01*
X100909476Y-65960523D01*
X100957095Y-65865285D01*
X101885666Y-77192142D02*
X101933285Y-77239761D01*
X102076142Y-77287380D01*
X102171380Y-77287380D01*
X102314238Y-77239761D01*
X102409476Y-77144523D01*
X102457095Y-77049285D01*
X102504714Y-76858809D01*
X102504714Y-76715952D01*
X102457095Y-76525476D01*
X102409476Y-76430238D01*
X102314238Y-76335000D01*
X102171380Y-76287380D01*
X102076142Y-76287380D01*
X101933285Y-76335000D01*
X101885666Y-76382619D01*
X101457095Y-77287380D02*
X101457095Y-76287380D01*
X101219000Y-76287380D01*
X101076142Y-76335000D01*
X100980904Y-76430238D01*
X100933285Y-76525476D01*
X100885666Y-76715952D01*
X100885666Y-76858809D01*
X100933285Y-77049285D01*
X100980904Y-77144523D01*
X101076142Y-77239761D01*
X101219000Y-77287380D01*
X101457095Y-77287380D01*
X100552333Y-76287380D02*
X99933285Y-76287380D01*
X100266619Y-76668333D01*
X100123761Y-76668333D01*
X100028523Y-76715952D01*
X99980904Y-76763571D01*
X99933285Y-76858809D01*
X99933285Y-77096904D01*
X99980904Y-77192142D01*
X100028523Y-77239761D01*
X100123761Y-77287380D01*
X100409476Y-77287380D01*
X100504714Y-77239761D01*
X100552333Y-77192142D01*
X94051380Y-65008333D02*
X93575190Y-64675000D01*
X94051380Y-64436904D02*
X93051380Y-64436904D01*
X93051380Y-64817857D01*
X93099000Y-64913095D01*
X93146619Y-64960714D01*
X93241857Y-65008333D01*
X93384714Y-65008333D01*
X93479952Y-64960714D01*
X93527571Y-64913095D01*
X93575190Y-64817857D01*
X93575190Y-64436904D01*
X94051380Y-65436904D02*
X93051380Y-65436904D01*
X93051380Y-65817857D01*
X93099000Y-65913095D01*
X93146619Y-65960714D01*
X93241857Y-66008333D01*
X93384714Y-66008333D01*
X93479952Y-65960714D01*
X93527571Y-65913095D01*
X93575190Y-65817857D01*
X93575190Y-65436904D01*
X93051380Y-66436904D02*
X93860904Y-66436904D01*
X93956142Y-66484523D01*
X94003761Y-66532142D01*
X94051380Y-66627380D01*
X94051380Y-66817857D01*
X94003761Y-66913095D01*
X93956142Y-66960714D01*
X93860904Y-67008333D01*
X93051380Y-67008333D01*
X94003761Y-67436904D02*
X94051380Y-67579761D01*
X94051380Y-67817857D01*
X94003761Y-67913095D01*
X93956142Y-67960714D01*
X93860904Y-68008333D01*
X93765666Y-68008333D01*
X93670428Y-67960714D01*
X93622809Y-67913095D01*
X93575190Y-67817857D01*
X93527571Y-67627380D01*
X93479952Y-67532142D01*
X93432333Y-67484523D01*
X93337095Y-67436904D01*
X93241857Y-67436904D01*
X93146619Y-67484523D01*
X93099000Y-67532142D01*
X93051380Y-67627380D01*
X93051380Y-67865476D01*
X93099000Y-68008333D01*
X94051380Y-68960714D02*
X94051380Y-68389285D01*
X94051380Y-68675000D02*
X93051380Y-68675000D01*
X93194238Y-68579761D01*
X93289476Y-68484523D01*
X93337095Y-68389285D01*
X142882880Y-120499333D02*
X142406690Y-120166000D01*
X142882880Y-119927904D02*
X141882880Y-119927904D01*
X141882880Y-120308857D01*
X141930500Y-120404095D01*
X141978119Y-120451714D01*
X142073357Y-120499333D01*
X142216214Y-120499333D01*
X142311452Y-120451714D01*
X142359071Y-120404095D01*
X142406690Y-120308857D01*
X142406690Y-119927904D01*
X142882880Y-120927904D02*
X141882880Y-120927904D01*
X142597166Y-121261238D01*
X141882880Y-121594571D01*
X142882880Y-121594571D01*
X142597166Y-122023142D02*
X142597166Y-122499333D01*
X142882880Y-121927904D02*
X141882880Y-122261238D01*
X142882880Y-122594571D01*
X142216214Y-123356476D02*
X142882880Y-123356476D01*
X141835261Y-123118380D02*
X142549547Y-122880285D01*
X142549547Y-123499333D01*
X117927380Y-83296333D02*
X117451190Y-82963000D01*
X117927380Y-82724904D02*
X116927380Y-82724904D01*
X116927380Y-83105857D01*
X116975000Y-83201095D01*
X117022619Y-83248714D01*
X117117857Y-83296333D01*
X117260714Y-83296333D01*
X117355952Y-83248714D01*
X117403571Y-83201095D01*
X117451190Y-83105857D01*
X117451190Y-82724904D01*
X117927380Y-83724904D02*
X116927380Y-83724904D01*
X116927380Y-84105857D01*
X116975000Y-84201095D01*
X117022619Y-84248714D01*
X117117857Y-84296333D01*
X117260714Y-84296333D01*
X117355952Y-84248714D01*
X117403571Y-84201095D01*
X117451190Y-84105857D01*
X117451190Y-83724904D01*
X117927380Y-84724904D02*
X116927380Y-84724904D01*
X116927380Y-84963000D01*
X116975000Y-85105857D01*
X117070238Y-85201095D01*
X117165476Y-85248714D01*
X117355952Y-85296333D01*
X117498809Y-85296333D01*
X117689285Y-85248714D01*
X117784523Y-85201095D01*
X117879761Y-85105857D01*
X117927380Y-84963000D01*
X117927380Y-84724904D01*
X117832142Y-86296333D02*
X117879761Y-86248714D01*
X117927380Y-86105857D01*
X117927380Y-86010619D01*
X117879761Y-85867761D01*
X117784523Y-85772523D01*
X117689285Y-85724904D01*
X117498809Y-85677285D01*
X117355952Y-85677285D01*
X117165476Y-85724904D01*
X117070238Y-85772523D01*
X116975000Y-85867761D01*
X116927380Y-86010619D01*
X116927380Y-86105857D01*
X116975000Y-86248714D01*
X117022619Y-86296333D01*
X117022619Y-86677285D02*
X116975000Y-86724904D01*
X116927380Y-86820142D01*
X116927380Y-87058238D01*
X116975000Y-87153476D01*
X117022619Y-87201095D01*
X117117857Y-87248714D01*
X117213095Y-87248714D01*
X117355952Y-87201095D01*
X117927380Y-86629666D01*
X117927380Y-87248714D01*
X73691666Y-77318142D02*
X73739285Y-77365761D01*
X73882142Y-77413380D01*
X73977380Y-77413380D01*
X74120238Y-77365761D01*
X74215476Y-77270523D01*
X74263095Y-77175285D01*
X74310714Y-76984809D01*
X74310714Y-76841952D01*
X74263095Y-76651476D01*
X74215476Y-76556238D01*
X74120238Y-76461000D01*
X73977380Y-76413380D01*
X73882142Y-76413380D01*
X73739285Y-76461000D01*
X73691666Y-76508619D01*
X73263095Y-77413380D02*
X73263095Y-76413380D01*
X73025000Y-76413380D01*
X72882142Y-76461000D01*
X72786904Y-76556238D01*
X72739285Y-76651476D01*
X72691666Y-76841952D01*
X72691666Y-76984809D01*
X72739285Y-77175285D01*
X72786904Y-77270523D01*
X72882142Y-77365761D01*
X73025000Y-77413380D01*
X73263095Y-77413380D01*
X71834523Y-76746714D02*
X71834523Y-77413380D01*
X72072619Y-76365761D02*
X72310714Y-77080047D01*
X71691666Y-77080047D01*
X144684666Y-113355380D02*
X145018000Y-112879190D01*
X145256095Y-113355380D02*
X145256095Y-112355380D01*
X144875142Y-112355380D01*
X144779904Y-112403000D01*
X144732285Y-112450619D01*
X144684666Y-112545857D01*
X144684666Y-112688714D01*
X144732285Y-112783952D01*
X144779904Y-112831571D01*
X144875142Y-112879190D01*
X145256095Y-112879190D01*
X143922761Y-112831571D02*
X143779904Y-112879190D01*
X143732285Y-112926809D01*
X143684666Y-113022047D01*
X143684666Y-113164904D01*
X143732285Y-113260142D01*
X143779904Y-113307761D01*
X143875142Y-113355380D01*
X144256095Y-113355380D01*
X144256095Y-112355380D01*
X143922761Y-112355380D01*
X143827523Y-112403000D01*
X143779904Y-112450619D01*
X143732285Y-112545857D01*
X143732285Y-112641095D01*
X143779904Y-112736333D01*
X143827523Y-112783952D01*
X143922761Y-112831571D01*
X144256095Y-112831571D01*
X142732285Y-113355380D02*
X143303714Y-113355380D01*
X143018000Y-113355380D02*
X143018000Y-112355380D01*
X143113238Y-112498238D01*
X143208476Y-112593476D01*
X143303714Y-112641095D01*
X144684666Y-115895380D02*
X145018000Y-115419190D01*
X145256095Y-115895380D02*
X145256095Y-114895380D01*
X144875142Y-114895380D01*
X144779904Y-114943000D01*
X144732285Y-114990619D01*
X144684666Y-115085857D01*
X144684666Y-115228714D01*
X144732285Y-115323952D01*
X144779904Y-115371571D01*
X144875142Y-115419190D01*
X145256095Y-115419190D01*
X143922761Y-115371571D02*
X143779904Y-115419190D01*
X143732285Y-115466809D01*
X143684666Y-115562047D01*
X143684666Y-115704904D01*
X143732285Y-115800142D01*
X143779904Y-115847761D01*
X143875142Y-115895380D01*
X144256095Y-115895380D01*
X144256095Y-114895380D01*
X143922761Y-114895380D01*
X143827523Y-114943000D01*
X143779904Y-114990619D01*
X143732285Y-115085857D01*
X143732285Y-115181095D01*
X143779904Y-115276333D01*
X143827523Y-115323952D01*
X143922761Y-115371571D01*
X144256095Y-115371571D01*
X143065619Y-114895380D02*
X142970380Y-114895380D01*
X142875142Y-114943000D01*
X142827523Y-114990619D01*
X142779904Y-115085857D01*
X142732285Y-115276333D01*
X142732285Y-115514428D01*
X142779904Y-115704904D01*
X142827523Y-115800142D01*
X142875142Y-115847761D01*
X142970380Y-115895380D01*
X143065619Y-115895380D01*
X143160857Y-115847761D01*
X143208476Y-115800142D01*
X143256095Y-115704904D01*
X143303714Y-115514428D01*
X143303714Y-115276333D01*
X143256095Y-115085857D01*
X143208476Y-114990619D01*
X143160857Y-114943000D01*
X143065619Y-114895380D01*
X114751380Y-97591761D02*
X114275190Y-97258428D01*
X114751380Y-97020333D02*
X113751380Y-97020333D01*
X113751380Y-97401285D01*
X113799000Y-97496523D01*
X113846619Y-97544142D01*
X113941857Y-97591761D01*
X114084714Y-97591761D01*
X114179952Y-97544142D01*
X114227571Y-97496523D01*
X114275190Y-97401285D01*
X114275190Y-97020333D01*
X114465666Y-97972714D02*
X114465666Y-98448904D01*
X114751380Y-97877476D02*
X113751380Y-98210809D01*
X114751380Y-98544142D01*
X113799000Y-99401285D02*
X113751380Y-99306047D01*
X113751380Y-99163190D01*
X113799000Y-99020333D01*
X113894238Y-98925095D01*
X113989476Y-98877476D01*
X114179952Y-98829857D01*
X114322809Y-98829857D01*
X114513285Y-98877476D01*
X114608523Y-98925095D01*
X114703761Y-99020333D01*
X114751380Y-99163190D01*
X114751380Y-99258428D01*
X114703761Y-99401285D01*
X114656142Y-99448904D01*
X114322809Y-99448904D01*
X114322809Y-99258428D01*
X114656142Y-100448904D02*
X114703761Y-100401285D01*
X114751380Y-100258428D01*
X114751380Y-100163190D01*
X114703761Y-100020333D01*
X114608523Y-99925095D01*
X114513285Y-99877476D01*
X114322809Y-99829857D01*
X114179952Y-99829857D01*
X113989476Y-99877476D01*
X113894238Y-99925095D01*
X113799000Y-100020333D01*
X113751380Y-100163190D01*
X113751380Y-100258428D01*
X113799000Y-100401285D01*
X113846619Y-100448904D01*
X114751380Y-101401285D02*
X114751380Y-100829857D01*
X114751380Y-101115571D02*
X113751380Y-101115571D01*
X113894238Y-101020333D01*
X113989476Y-100925095D01*
X114037095Y-100829857D01*
X144533666Y-75255380D02*
X144867000Y-74779190D01*
X145105095Y-75255380D02*
X145105095Y-74255380D01*
X144724142Y-74255380D01*
X144628904Y-74303000D01*
X144581285Y-74350619D01*
X144533666Y-74445857D01*
X144533666Y-74588714D01*
X144581285Y-74683952D01*
X144628904Y-74731571D01*
X144724142Y-74779190D01*
X145105095Y-74779190D01*
X144247952Y-74255380D02*
X143914619Y-75255380D01*
X143581285Y-74255380D01*
X143057476Y-74255380D02*
X142962238Y-74255380D01*
X142867000Y-74303000D01*
X142819380Y-74350619D01*
X142771761Y-74445857D01*
X142724142Y-74636333D01*
X142724142Y-74874428D01*
X142771761Y-75064904D01*
X142819380Y-75160142D01*
X142867000Y-75207761D01*
X142962238Y-75255380D01*
X143057476Y-75255380D01*
X143152714Y-75207761D01*
X143200333Y-75160142D01*
X143247952Y-75064904D01*
X143295571Y-74874428D01*
X143295571Y-74636333D01*
X143247952Y-74445857D01*
X143200333Y-74350619D01*
X143152714Y-74303000D01*
X143057476Y-74255380D01*
X142390809Y-74588714D02*
X142152714Y-75255380D01*
X141914619Y-74588714D01*
X141390809Y-75255380D02*
X141486047Y-75207761D01*
X141533666Y-75160142D01*
X141581285Y-75064904D01*
X141581285Y-74779190D01*
X141533666Y-74683952D01*
X141486047Y-74636333D01*
X141390809Y-74588714D01*
X141247952Y-74588714D01*
X141152714Y-74636333D01*
X141105095Y-74683952D01*
X141057476Y-74779190D01*
X141057476Y-75064904D01*
X141105095Y-75160142D01*
X141152714Y-75207761D01*
X141247952Y-75255380D01*
X141390809Y-75255380D01*
X140486047Y-75255380D02*
X140581285Y-75207761D01*
X140628904Y-75112523D01*
X140628904Y-74255380D01*
X139581285Y-75255380D02*
X140152714Y-75255380D01*
X139867000Y-75255380D02*
X139867000Y-74255380D01*
X139962238Y-74398238D01*
X140057476Y-74493476D01*
X140152714Y-74541095D01*
X119086166Y-59126380D02*
X119419500Y-58650190D01*
X119657595Y-59126380D02*
X119657595Y-58126380D01*
X119276642Y-58126380D01*
X119181404Y-58174000D01*
X119133785Y-58221619D01*
X119086166Y-58316857D01*
X119086166Y-58459714D01*
X119133785Y-58554952D01*
X119181404Y-58602571D01*
X119276642Y-58650190D01*
X119657595Y-58650190D01*
X118657595Y-59126380D02*
X118657595Y-58126380D01*
X118324261Y-58840666D01*
X117990928Y-58126380D01*
X117990928Y-59126380D01*
X117657595Y-58126380D02*
X117324261Y-59126380D01*
X116990928Y-58126380D01*
X116133785Y-59126380D02*
X116705214Y-59126380D01*
X116419500Y-59126380D02*
X116419500Y-58126380D01*
X116514738Y-58269238D01*
X116609976Y-58364476D01*
X116705214Y-58412095D01*
X113569666Y-56872142D02*
X113617285Y-56919761D01*
X113760142Y-56967380D01*
X113855380Y-56967380D01*
X113998238Y-56919761D01*
X114093476Y-56824523D01*
X114141095Y-56729285D01*
X114188714Y-56538809D01*
X114188714Y-56395952D01*
X114141095Y-56205476D01*
X114093476Y-56110238D01*
X113998238Y-56015000D01*
X113855380Y-55967380D01*
X113760142Y-55967380D01*
X113617285Y-56015000D01*
X113569666Y-56062619D01*
X113141095Y-56967380D02*
X113141095Y-55967380D01*
X112903000Y-55967380D01*
X112760142Y-56015000D01*
X112664904Y-56110238D01*
X112617285Y-56205476D01*
X112569666Y-56395952D01*
X112569666Y-56538809D01*
X112617285Y-56729285D01*
X112664904Y-56824523D01*
X112760142Y-56919761D01*
X112903000Y-56967380D01*
X113141095Y-56967380D01*
X112236333Y-55967380D02*
X111569666Y-55967380D01*
X111998238Y-56967380D01*
X113553666Y-86431380D02*
X113887000Y-85955190D01*
X114125095Y-86431380D02*
X114125095Y-85431380D01*
X113744142Y-85431380D01*
X113648904Y-85479000D01*
X113601285Y-85526619D01*
X113553666Y-85621857D01*
X113553666Y-85764714D01*
X113601285Y-85859952D01*
X113648904Y-85907571D01*
X113744142Y-85955190D01*
X114125095Y-85955190D01*
X113125095Y-86431380D02*
X113125095Y-85431380D01*
X112744142Y-85431380D01*
X112648904Y-85479000D01*
X112601285Y-85526619D01*
X112553666Y-85621857D01*
X112553666Y-85764714D01*
X112601285Y-85859952D01*
X112648904Y-85907571D01*
X112744142Y-85955190D01*
X113125095Y-85955190D01*
X112125095Y-86431380D02*
X112125095Y-85431380D01*
X111887000Y-85431380D01*
X111744142Y-85479000D01*
X111648904Y-85574238D01*
X111601285Y-85669476D01*
X111553666Y-85859952D01*
X111553666Y-86002809D01*
X111601285Y-86193285D01*
X111648904Y-86288523D01*
X111744142Y-86383761D01*
X111887000Y-86431380D01*
X112125095Y-86431380D01*
X110553666Y-86336142D02*
X110601285Y-86383761D01*
X110744142Y-86431380D01*
X110839380Y-86431380D01*
X110982238Y-86383761D01*
X111077476Y-86288523D01*
X111125095Y-86193285D01*
X111172714Y-86002809D01*
X111172714Y-85859952D01*
X111125095Y-85669476D01*
X111077476Y-85574238D01*
X110982238Y-85479000D01*
X110839380Y-85431380D01*
X110744142Y-85431380D01*
X110601285Y-85479000D01*
X110553666Y-85526619D01*
X109601285Y-86431380D02*
X110172714Y-86431380D01*
X109887000Y-86431380D02*
X109887000Y-85431380D01*
X109982238Y-85574238D01*
X110077476Y-85669476D01*
X110172714Y-85717095D01*
X106457666Y-87860142D02*
X106505285Y-87907761D01*
X106648142Y-87955380D01*
X106743380Y-87955380D01*
X106886238Y-87907761D01*
X106981476Y-87812523D01*
X107029095Y-87717285D01*
X107076714Y-87526809D01*
X107076714Y-87383952D01*
X107029095Y-87193476D01*
X106981476Y-87098238D01*
X106886238Y-87003000D01*
X106743380Y-86955380D01*
X106648142Y-86955380D01*
X106505285Y-87003000D01*
X106457666Y-87050619D01*
X106029095Y-87955380D02*
X106029095Y-86955380D01*
X105791000Y-86955380D01*
X105648142Y-87003000D01*
X105552904Y-87098238D01*
X105505285Y-87193476D01*
X105457666Y-87383952D01*
X105457666Y-87526809D01*
X105505285Y-87717285D01*
X105552904Y-87812523D01*
X105648142Y-87907761D01*
X105791000Y-87955380D01*
X106029095Y-87955380D01*
X105076714Y-87050619D02*
X105029095Y-87003000D01*
X104933857Y-86955380D01*
X104695761Y-86955380D01*
X104600523Y-87003000D01*
X104552904Y-87050619D01*
X104505285Y-87145857D01*
X104505285Y-87241095D01*
X104552904Y-87383952D01*
X105124333Y-87955380D01*
X104505285Y-87955380D01*
X139771380Y-109466333D02*
X139295190Y-109133000D01*
X139771380Y-108894904D02*
X138771380Y-108894904D01*
X138771380Y-109275857D01*
X138819000Y-109371095D01*
X138866619Y-109418714D01*
X138961857Y-109466333D01*
X139104714Y-109466333D01*
X139199952Y-109418714D01*
X139247571Y-109371095D01*
X139295190Y-109275857D01*
X139295190Y-108894904D01*
X138771380Y-109752047D02*
X139771380Y-110085380D01*
X138771380Y-110418714D01*
X138866619Y-110704428D02*
X138819000Y-110752047D01*
X138771380Y-110847285D01*
X138771380Y-111085380D01*
X138819000Y-111180619D01*
X138866619Y-111228238D01*
X138961857Y-111275857D01*
X139057095Y-111275857D01*
X139199952Y-111228238D01*
X139771380Y-110656809D01*
X139771380Y-111275857D01*
X139104714Y-111609190D02*
X139771380Y-111847285D01*
X139104714Y-112085380D01*
X139771380Y-112609190D02*
X139723761Y-112513952D01*
X139676142Y-112466333D01*
X139580904Y-112418714D01*
X139295190Y-112418714D01*
X139199952Y-112466333D01*
X139152333Y-112513952D01*
X139104714Y-112609190D01*
X139104714Y-112752047D01*
X139152333Y-112847285D01*
X139199952Y-112894904D01*
X139295190Y-112942523D01*
X139580904Y-112942523D01*
X139676142Y-112894904D01*
X139723761Y-112847285D01*
X139771380Y-112752047D01*
X139771380Y-112609190D01*
X139771380Y-113513952D02*
X139723761Y-113418714D01*
X139628523Y-113371095D01*
X138771380Y-113371095D01*
X138866619Y-113847285D02*
X138819000Y-113894904D01*
X138771380Y-113990142D01*
X138771380Y-114228238D01*
X138819000Y-114323476D01*
X138866619Y-114371095D01*
X138961857Y-114418714D01*
X139057095Y-114418714D01*
X139199952Y-114371095D01*
X139771380Y-113799666D01*
X139771380Y-114418714D01*
X141612880Y-120499333D02*
X141136690Y-120166000D01*
X141612880Y-119927904D02*
X140612880Y-119927904D01*
X140612880Y-120308857D01*
X140660500Y-120404095D01*
X140708119Y-120451714D01*
X140803357Y-120499333D01*
X140946214Y-120499333D01*
X141041452Y-120451714D01*
X141089071Y-120404095D01*
X141136690Y-120308857D01*
X141136690Y-119927904D01*
X141612880Y-120927904D02*
X140612880Y-120927904D01*
X141327166Y-121261238D01*
X140612880Y-121594571D01*
X141612880Y-121594571D01*
X141327166Y-122023142D02*
X141327166Y-122499333D01*
X141612880Y-121927904D02*
X140612880Y-122261238D01*
X141612880Y-122594571D01*
X140612880Y-122832666D02*
X140612880Y-123451714D01*
X140993833Y-123118380D01*
X140993833Y-123261238D01*
X141041452Y-123356476D01*
X141089071Y-123404095D01*
X141184309Y-123451714D01*
X141422404Y-123451714D01*
X141517642Y-123404095D01*
X141565261Y-123356476D01*
X141612880Y-123261238D01*
X141612880Y-122975523D01*
X141565261Y-122880285D01*
X141517642Y-122832666D01*
X116149380Y-72112333D02*
X115673190Y-71779000D01*
X116149380Y-71540904D02*
X115149380Y-71540904D01*
X115149380Y-71921857D01*
X115197000Y-72017095D01*
X115244619Y-72064714D01*
X115339857Y-72112333D01*
X115482714Y-72112333D01*
X115577952Y-72064714D01*
X115625571Y-72017095D01*
X115673190Y-71921857D01*
X115673190Y-71540904D01*
X116149380Y-72540904D02*
X115149380Y-72540904D01*
X115863666Y-72874238D01*
X115149380Y-73207571D01*
X116149380Y-73207571D01*
X115863666Y-73636142D02*
X115863666Y-74112333D01*
X116149380Y-73540904D02*
X115149380Y-73874238D01*
X116149380Y-74207571D01*
X115244619Y-74493285D02*
X115197000Y-74540904D01*
X115149380Y-74636142D01*
X115149380Y-74874238D01*
X115197000Y-74969476D01*
X115244619Y-75017095D01*
X115339857Y-75064714D01*
X115435095Y-75064714D01*
X115577952Y-75017095D01*
X116149380Y-74445666D01*
X116149380Y-75064714D01*
X104544761Y-107132380D02*
X104878095Y-106656190D01*
X105116190Y-107132380D02*
X105116190Y-106132380D01*
X104735238Y-106132380D01*
X104640000Y-106180000D01*
X104592380Y-106227619D01*
X104544761Y-106322857D01*
X104544761Y-106465714D01*
X104592380Y-106560952D01*
X104640000Y-106608571D01*
X104735238Y-106656190D01*
X105116190Y-106656190D01*
X104116190Y-107132380D02*
X104116190Y-106132380D01*
X103449523Y-106132380D02*
X103354285Y-106132380D01*
X103259047Y-106180000D01*
X103211428Y-106227619D01*
X103163809Y-106322857D01*
X103116190Y-106513333D01*
X103116190Y-106751428D01*
X103163809Y-106941904D01*
X103211428Y-107037142D01*
X103259047Y-107084761D01*
X103354285Y-107132380D01*
X103449523Y-107132380D01*
X103544761Y-107084761D01*
X103592380Y-107037142D01*
X103640000Y-106941904D01*
X103687619Y-106751428D01*
X103687619Y-106513333D01*
X103640000Y-106322857D01*
X103592380Y-106227619D01*
X103544761Y-106180000D01*
X103449523Y-106132380D01*
X99639380Y-64484333D02*
X99163190Y-64151000D01*
X99639380Y-63912904D02*
X98639380Y-63912904D01*
X98639380Y-64293857D01*
X98687000Y-64389095D01*
X98734619Y-64436714D01*
X98829857Y-64484333D01*
X98972714Y-64484333D01*
X99067952Y-64436714D01*
X99115571Y-64389095D01*
X99163190Y-64293857D01*
X99163190Y-63912904D01*
X98687000Y-65436714D02*
X98639380Y-65341476D01*
X98639380Y-65198619D01*
X98687000Y-65055761D01*
X98782238Y-64960523D01*
X98877476Y-64912904D01*
X99067952Y-64865285D01*
X99210809Y-64865285D01*
X99401285Y-64912904D01*
X99496523Y-64960523D01*
X99591761Y-65055761D01*
X99639380Y-65198619D01*
X99639380Y-65293857D01*
X99591761Y-65436714D01*
X99544142Y-65484333D01*
X99210809Y-65484333D01*
X99210809Y-65293857D01*
X98639380Y-66103380D02*
X98639380Y-66198619D01*
X98687000Y-66293857D01*
X98734619Y-66341476D01*
X98829857Y-66389095D01*
X99020333Y-66436714D01*
X99258428Y-66436714D01*
X99448904Y-66389095D01*
X99544142Y-66341476D01*
X99591761Y-66293857D01*
X99639380Y-66198619D01*
X99639380Y-66103380D01*
X99591761Y-66008142D01*
X99544142Y-65960523D01*
X99448904Y-65912904D01*
X99258428Y-65865285D01*
X99020333Y-65865285D01*
X98829857Y-65912904D01*
X98734619Y-65960523D01*
X98687000Y-66008142D01*
X98639380Y-66103380D01*
X78517476Y-122404142D02*
X78565095Y-122451761D01*
X78707952Y-122499380D01*
X78803190Y-122499380D01*
X78946047Y-122451761D01*
X79041285Y-122356523D01*
X79088904Y-122261285D01*
X79136523Y-122070809D01*
X79136523Y-121927952D01*
X79088904Y-121737476D01*
X79041285Y-121642238D01*
X78946047Y-121547000D01*
X78803190Y-121499380D01*
X78707952Y-121499380D01*
X78565095Y-121547000D01*
X78517476Y-121594619D01*
X77517476Y-122499380D02*
X77850809Y-122023190D01*
X78088904Y-122499380D02*
X78088904Y-121499380D01*
X77707952Y-121499380D01*
X77612714Y-121547000D01*
X77565095Y-121594619D01*
X77517476Y-121689857D01*
X77517476Y-121832714D01*
X77565095Y-121927952D01*
X77612714Y-121975571D01*
X77707952Y-122023190D01*
X78088904Y-122023190D01*
X77088904Y-122499380D02*
X77088904Y-121499380D01*
X76517476Y-122499380D01*
X76517476Y-121499380D01*
X75517476Y-121547000D02*
X75612714Y-121499380D01*
X75755571Y-121499380D01*
X75898428Y-121547000D01*
X75993666Y-121642238D01*
X76041285Y-121737476D01*
X76088904Y-121927952D01*
X76088904Y-122070809D01*
X76041285Y-122261285D01*
X75993666Y-122356523D01*
X75898428Y-122451761D01*
X75755571Y-122499380D01*
X75660333Y-122499380D01*
X75517476Y-122451761D01*
X75469857Y-122404142D01*
X75469857Y-122070809D01*
X75660333Y-122070809D01*
X74469857Y-122499380D02*
X74803190Y-122023190D01*
X75041285Y-122499380D02*
X75041285Y-121499380D01*
X74660333Y-121499380D01*
X74565095Y-121547000D01*
X74517476Y-121594619D01*
X74469857Y-121689857D01*
X74469857Y-121832714D01*
X74517476Y-121927952D01*
X74565095Y-121975571D01*
X74660333Y-122023190D01*
X75041285Y-122023190D01*
X73850809Y-121499380D02*
X73755571Y-121499380D01*
X73660333Y-121547000D01*
X73612714Y-121594619D01*
X73565095Y-121689857D01*
X73517476Y-121880333D01*
X73517476Y-122118428D01*
X73565095Y-122308904D01*
X73612714Y-122404142D01*
X73660333Y-122451761D01*
X73755571Y-122499380D01*
X73850809Y-122499380D01*
X73946047Y-122451761D01*
X73993666Y-122404142D01*
X74041285Y-122308904D01*
X74088904Y-122118428D01*
X74088904Y-121880333D01*
X74041285Y-121689857D01*
X73993666Y-121594619D01*
X73946047Y-121547000D01*
X73850809Y-121499380D01*
X74874380Y-115030523D02*
X74398190Y-114697190D01*
X74874380Y-114459095D02*
X73874380Y-114459095D01*
X73874380Y-114840047D01*
X73922000Y-114935285D01*
X73969619Y-114982904D01*
X74064857Y-115030523D01*
X74207714Y-115030523D01*
X74302952Y-114982904D01*
X74350571Y-114935285D01*
X74398190Y-114840047D01*
X74398190Y-114459095D01*
X73874380Y-115363857D02*
X74874380Y-116030523D01*
X73874380Y-116030523D02*
X74874380Y-115363857D01*
X74874380Y-116411476D02*
X73874380Y-116411476D01*
X74874380Y-116982904D01*
X73874380Y-116982904D01*
X73874380Y-117649571D02*
X73874380Y-117840047D01*
X73922000Y-117935285D01*
X74017238Y-118030523D01*
X74207714Y-118078142D01*
X74541047Y-118078142D01*
X74731523Y-118030523D01*
X74826761Y-117935285D01*
X74874380Y-117840047D01*
X74874380Y-117649571D01*
X74826761Y-117554333D01*
X74731523Y-117459095D01*
X74541047Y-117411476D01*
X74207714Y-117411476D01*
X74017238Y-117459095D01*
X73922000Y-117554333D01*
X73874380Y-117649571D01*
X74874380Y-119078142D02*
X74398190Y-118744809D01*
X74874380Y-118506714D02*
X73874380Y-118506714D01*
X73874380Y-118887666D01*
X73922000Y-118982904D01*
X73969619Y-119030523D01*
X74064857Y-119078142D01*
X74207714Y-119078142D01*
X74302952Y-119030523D01*
X74350571Y-118982904D01*
X74398190Y-118887666D01*
X74398190Y-118506714D01*
X73874380Y-119697190D02*
X73874380Y-119792428D01*
X73922000Y-119887666D01*
X73969619Y-119935285D01*
X74064857Y-119982904D01*
X74255333Y-120030523D01*
X74493428Y-120030523D01*
X74683904Y-119982904D01*
X74779142Y-119935285D01*
X74826761Y-119887666D01*
X74874380Y-119792428D01*
X74874380Y-119697190D01*
X74826761Y-119601952D01*
X74779142Y-119554333D01*
X74683904Y-119506714D01*
X74493428Y-119459095D01*
X74255333Y-119459095D01*
X74064857Y-119506714D01*
X73969619Y-119554333D01*
X73922000Y-119601952D01*
X73874380Y-119697190D01*
X116022380Y-63635142D02*
X115546190Y-63301809D01*
X116022380Y-63063714D02*
X115022380Y-63063714D01*
X115022380Y-63444666D01*
X115070000Y-63539904D01*
X115117619Y-63587523D01*
X115212857Y-63635142D01*
X115355714Y-63635142D01*
X115450952Y-63587523D01*
X115498571Y-63539904D01*
X115546190Y-63444666D01*
X115546190Y-63063714D01*
X116022380Y-64063714D02*
X115022380Y-64063714D01*
X115736666Y-64397047D01*
X115022380Y-64730380D01*
X116022380Y-64730380D01*
X115736666Y-65158952D02*
X115736666Y-65635142D01*
X116022380Y-65063714D02*
X115022380Y-65397047D01*
X116022380Y-65730380D01*
X116022380Y-66587523D02*
X116022380Y-66016095D01*
X116022380Y-66301809D02*
X115022380Y-66301809D01*
X115165238Y-66206571D01*
X115260476Y-66111333D01*
X115308095Y-66016095D01*
X115022380Y-67206571D02*
X115022380Y-67301809D01*
X115070000Y-67397047D01*
X115117619Y-67444666D01*
X115212857Y-67492285D01*
X115403333Y-67539904D01*
X115641428Y-67539904D01*
X115831904Y-67492285D01*
X115927142Y-67444666D01*
X115974761Y-67397047D01*
X116022380Y-67301809D01*
X116022380Y-67206571D01*
X115974761Y-67111333D01*
X115927142Y-67063714D01*
X115831904Y-67016095D01*
X115641428Y-66968476D01*
X115403333Y-66968476D01*
X115212857Y-67016095D01*
X115117619Y-67063714D01*
X115070000Y-67111333D01*
X115022380Y-67206571D01*
X84780380Y-113998714D02*
X84304190Y-113665380D01*
X84780380Y-113427285D02*
X83780380Y-113427285D01*
X83780380Y-113808238D01*
X83828000Y-113903476D01*
X83875619Y-113951095D01*
X83970857Y-113998714D01*
X84113714Y-113998714D01*
X84208952Y-113951095D01*
X84256571Y-113903476D01*
X84304190Y-113808238D01*
X84304190Y-113427285D01*
X84780380Y-114998714D02*
X84304190Y-114665380D01*
X84780380Y-114427285D02*
X83780380Y-114427285D01*
X83780380Y-114808238D01*
X83828000Y-114903476D01*
X83875619Y-114951095D01*
X83970857Y-114998714D01*
X84113714Y-114998714D01*
X84208952Y-114951095D01*
X84256571Y-114903476D01*
X84304190Y-114808238D01*
X84304190Y-114427285D01*
X84780380Y-115427285D02*
X83780380Y-115427285D01*
X84780380Y-115998714D01*
X83780380Y-115998714D01*
X83828000Y-116998714D02*
X83780380Y-116903476D01*
X83780380Y-116760619D01*
X83828000Y-116617761D01*
X83923238Y-116522523D01*
X84018476Y-116474904D01*
X84208952Y-116427285D01*
X84351809Y-116427285D01*
X84542285Y-116474904D01*
X84637523Y-116522523D01*
X84732761Y-116617761D01*
X84780380Y-116760619D01*
X84780380Y-116855857D01*
X84732761Y-116998714D01*
X84685142Y-117046333D01*
X84351809Y-117046333D01*
X84351809Y-116855857D01*
X84780380Y-117474904D02*
X83780380Y-117474904D01*
X83780380Y-117855857D01*
X83828000Y-117951095D01*
X83875619Y-117998714D01*
X83970857Y-118046333D01*
X84113714Y-118046333D01*
X84208952Y-117998714D01*
X84256571Y-117951095D01*
X84304190Y-117855857D01*
X84304190Y-117474904D01*
X83780380Y-118474904D02*
X84589904Y-118474904D01*
X84685142Y-118522523D01*
X84732761Y-118570142D01*
X84780380Y-118665380D01*
X84780380Y-118855857D01*
X84732761Y-118951095D01*
X84685142Y-118998714D01*
X84589904Y-119046333D01*
X83780380Y-119046333D01*
X83780380Y-119713000D02*
X83780380Y-119808238D01*
X83828000Y-119903476D01*
X83875619Y-119951095D01*
X83970857Y-119998714D01*
X84161333Y-120046333D01*
X84399428Y-120046333D01*
X84589904Y-119998714D01*
X84685142Y-119951095D01*
X84732761Y-119903476D01*
X84780380Y-119808238D01*
X84780380Y-119713000D01*
X84732761Y-119617761D01*
X84685142Y-119570142D01*
X84589904Y-119522523D01*
X84399428Y-119474904D01*
X84161333Y-119474904D01*
X83970857Y-119522523D01*
X83875619Y-119570142D01*
X83828000Y-119617761D01*
X83780380Y-119713000D01*
X144684666Y-100655380D02*
X145018000Y-100179190D01*
X145256095Y-100655380D02*
X145256095Y-99655380D01*
X144875142Y-99655380D01*
X144779904Y-99703000D01*
X144732285Y-99750619D01*
X144684666Y-99845857D01*
X144684666Y-99988714D01*
X144732285Y-100083952D01*
X144779904Y-100131571D01*
X144875142Y-100179190D01*
X145256095Y-100179190D01*
X143922761Y-100131571D02*
X143779904Y-100179190D01*
X143732285Y-100226809D01*
X143684666Y-100322047D01*
X143684666Y-100464904D01*
X143732285Y-100560142D01*
X143779904Y-100607761D01*
X143875142Y-100655380D01*
X144256095Y-100655380D01*
X144256095Y-99655380D01*
X143922761Y-99655380D01*
X143827523Y-99703000D01*
X143779904Y-99750619D01*
X143732285Y-99845857D01*
X143732285Y-99941095D01*
X143779904Y-100036333D01*
X143827523Y-100083952D01*
X143922761Y-100131571D01*
X144256095Y-100131571D01*
X142827523Y-99655380D02*
X143018000Y-99655380D01*
X143113238Y-99703000D01*
X143160857Y-99750619D01*
X143256095Y-99893476D01*
X143303714Y-100083952D01*
X143303714Y-100464904D01*
X143256095Y-100560142D01*
X143208476Y-100607761D01*
X143113238Y-100655380D01*
X142922761Y-100655380D01*
X142827523Y-100607761D01*
X142779904Y-100560142D01*
X142732285Y-100464904D01*
X142732285Y-100226809D01*
X142779904Y-100131571D01*
X142827523Y-100083952D01*
X142922761Y-100036333D01*
X143113238Y-100036333D01*
X143208476Y-100083952D01*
X143256095Y-100131571D01*
X143303714Y-100226809D01*
X144684666Y-103195380D02*
X145018000Y-102719190D01*
X145256095Y-103195380D02*
X145256095Y-102195380D01*
X144875142Y-102195380D01*
X144779904Y-102243000D01*
X144732285Y-102290619D01*
X144684666Y-102385857D01*
X144684666Y-102528714D01*
X144732285Y-102623952D01*
X144779904Y-102671571D01*
X144875142Y-102719190D01*
X145256095Y-102719190D01*
X143922761Y-102671571D02*
X143779904Y-102719190D01*
X143732285Y-102766809D01*
X143684666Y-102862047D01*
X143684666Y-103004904D01*
X143732285Y-103100142D01*
X143779904Y-103147761D01*
X143875142Y-103195380D01*
X144256095Y-103195380D01*
X144256095Y-102195380D01*
X143922761Y-102195380D01*
X143827523Y-102243000D01*
X143779904Y-102290619D01*
X143732285Y-102385857D01*
X143732285Y-102481095D01*
X143779904Y-102576333D01*
X143827523Y-102623952D01*
X143922761Y-102671571D01*
X144256095Y-102671571D01*
X142779904Y-102195380D02*
X143256095Y-102195380D01*
X143303714Y-102671571D01*
X143256095Y-102623952D01*
X143160857Y-102576333D01*
X142922761Y-102576333D01*
X142827523Y-102623952D01*
X142779904Y-102671571D01*
X142732285Y-102766809D01*
X142732285Y-103004904D01*
X142779904Y-103100142D01*
X142827523Y-103147761D01*
X142922761Y-103195380D01*
X143160857Y-103195380D01*
X143256095Y-103147761D01*
X143303714Y-103100142D01*
X144684666Y-105735380D02*
X145018000Y-105259190D01*
X145256095Y-105735380D02*
X145256095Y-104735380D01*
X144875142Y-104735380D01*
X144779904Y-104783000D01*
X144732285Y-104830619D01*
X144684666Y-104925857D01*
X144684666Y-105068714D01*
X144732285Y-105163952D01*
X144779904Y-105211571D01*
X144875142Y-105259190D01*
X145256095Y-105259190D01*
X143922761Y-105211571D02*
X143779904Y-105259190D01*
X143732285Y-105306809D01*
X143684666Y-105402047D01*
X143684666Y-105544904D01*
X143732285Y-105640142D01*
X143779904Y-105687761D01*
X143875142Y-105735380D01*
X144256095Y-105735380D01*
X144256095Y-104735380D01*
X143922761Y-104735380D01*
X143827523Y-104783000D01*
X143779904Y-104830619D01*
X143732285Y-104925857D01*
X143732285Y-105021095D01*
X143779904Y-105116333D01*
X143827523Y-105163952D01*
X143922761Y-105211571D01*
X144256095Y-105211571D01*
X142827523Y-105068714D02*
X142827523Y-105735380D01*
X143065619Y-104687761D02*
X143303714Y-105402047D01*
X142684666Y-105402047D01*
X144152880Y-120499333D02*
X143676690Y-120166000D01*
X144152880Y-119927904D02*
X143152880Y-119927904D01*
X143152880Y-120308857D01*
X143200500Y-120404095D01*
X143248119Y-120451714D01*
X143343357Y-120499333D01*
X143486214Y-120499333D01*
X143581452Y-120451714D01*
X143629071Y-120404095D01*
X143676690Y-120308857D01*
X143676690Y-119927904D01*
X144152880Y-120927904D02*
X143152880Y-120927904D01*
X143867166Y-121261238D01*
X143152880Y-121594571D01*
X144152880Y-121594571D01*
X143867166Y-122023142D02*
X143867166Y-122499333D01*
X144152880Y-121927904D02*
X143152880Y-122261238D01*
X144152880Y-122594571D01*
X143152880Y-123404095D02*
X143152880Y-122927904D01*
X143629071Y-122880285D01*
X143581452Y-122927904D01*
X143533833Y-123023142D01*
X143533833Y-123261238D01*
X143581452Y-123356476D01*
X143629071Y-123404095D01*
X143724309Y-123451714D01*
X143962404Y-123451714D01*
X144057642Y-123404095D01*
X144105261Y-123356476D01*
X144152880Y-123261238D01*
X144152880Y-123023142D01*
X144105261Y-122927904D01*
X144057642Y-122880285D01*
X139676142Y-93059333D02*
X139723761Y-93011714D01*
X139771380Y-92868857D01*
X139771380Y-92773619D01*
X139723761Y-92630761D01*
X139628523Y-92535523D01*
X139533285Y-92487904D01*
X139342809Y-92440285D01*
X139199952Y-92440285D01*
X139009476Y-92487904D01*
X138914238Y-92535523D01*
X138819000Y-92630761D01*
X138771380Y-92773619D01*
X138771380Y-92868857D01*
X138819000Y-93011714D01*
X138866619Y-93059333D01*
X139771380Y-93487904D02*
X138771380Y-93487904D01*
X138771380Y-93726000D01*
X138819000Y-93868857D01*
X138914238Y-93964095D01*
X139009476Y-94011714D01*
X139199952Y-94059333D01*
X139342809Y-94059333D01*
X139533285Y-94011714D01*
X139628523Y-93964095D01*
X139723761Y-93868857D01*
X139771380Y-93726000D01*
X139771380Y-93487904D01*
X138771380Y-94678380D02*
X138771380Y-94773619D01*
X138819000Y-94868857D01*
X138866619Y-94916476D01*
X138961857Y-94964095D01*
X139152333Y-95011714D01*
X139390428Y-95011714D01*
X139580904Y-94964095D01*
X139676142Y-94916476D01*
X139723761Y-94868857D01*
X139771380Y-94773619D01*
X139771380Y-94678380D01*
X139723761Y-94583142D01*
X139676142Y-94535523D01*
X139580904Y-94487904D01*
X139390428Y-94440285D01*
X139152333Y-94440285D01*
X138961857Y-94487904D01*
X138866619Y-94535523D01*
X138819000Y-94583142D01*
X138771380Y-94678380D01*
X69190142Y-90138333D02*
X69237761Y-90090714D01*
X69285380Y-89947857D01*
X69285380Y-89852619D01*
X69237761Y-89709761D01*
X69142523Y-89614523D01*
X69047285Y-89566904D01*
X68856809Y-89519285D01*
X68713952Y-89519285D01*
X68523476Y-89566904D01*
X68428238Y-89614523D01*
X68333000Y-89709761D01*
X68285380Y-89852619D01*
X68285380Y-89947857D01*
X68333000Y-90090714D01*
X68380619Y-90138333D01*
X69285380Y-90566904D02*
X68285380Y-90566904D01*
X68285380Y-90805000D01*
X68333000Y-90947857D01*
X68428238Y-91043095D01*
X68523476Y-91090714D01*
X68713952Y-91138333D01*
X68856809Y-91138333D01*
X69047285Y-91090714D01*
X69142523Y-91043095D01*
X69237761Y-90947857D01*
X69285380Y-90805000D01*
X69285380Y-90566904D01*
X68285380Y-91995476D02*
X68285380Y-91805000D01*
X68333000Y-91709761D01*
X68380619Y-91662142D01*
X68523476Y-91566904D01*
X68713952Y-91519285D01*
X69094904Y-91519285D01*
X69190142Y-91566904D01*
X69237761Y-91614523D01*
X69285380Y-91709761D01*
X69285380Y-91900238D01*
X69237761Y-91995476D01*
X69190142Y-92043095D01*
X69094904Y-92090714D01*
X68856809Y-92090714D01*
X68761571Y-92043095D01*
X68713952Y-91995476D01*
X68666333Y-91900238D01*
X68666333Y-91709761D01*
X68713952Y-91614523D01*
X68761571Y-91566904D01*
X68856809Y-91519285D01*
X88591380Y-111498333D02*
X88115190Y-111165000D01*
X88591380Y-110926904D02*
X87591380Y-110926904D01*
X87591380Y-111307857D01*
X87639000Y-111403095D01*
X87686619Y-111450714D01*
X87781857Y-111498333D01*
X87924714Y-111498333D01*
X88019952Y-111450714D01*
X88067571Y-111403095D01*
X88115190Y-111307857D01*
X88115190Y-110926904D01*
X87591380Y-111784047D02*
X88591380Y-112117380D01*
X87591380Y-112450714D01*
X87686619Y-112736428D02*
X87639000Y-112784047D01*
X87591380Y-112879285D01*
X87591380Y-113117380D01*
X87639000Y-113212619D01*
X87686619Y-113260238D01*
X87781857Y-113307857D01*
X87877095Y-113307857D01*
X88019952Y-113260238D01*
X88591380Y-112688809D01*
X88591380Y-113307857D01*
X87924714Y-113641190D02*
X88591380Y-113879285D01*
X87924714Y-114117380D01*
X88591380Y-114641190D02*
X88543761Y-114545952D01*
X88496142Y-114498333D01*
X88400904Y-114450714D01*
X88115190Y-114450714D01*
X88019952Y-114498333D01*
X87972333Y-114545952D01*
X87924714Y-114641190D01*
X87924714Y-114784047D01*
X87972333Y-114879285D01*
X88019952Y-114926904D01*
X88115190Y-114974523D01*
X88400904Y-114974523D01*
X88496142Y-114926904D01*
X88543761Y-114879285D01*
X88591380Y-114784047D01*
X88591380Y-114641190D01*
X88591380Y-115545952D02*
X88543761Y-115450714D01*
X88448523Y-115403095D01*
X87591380Y-115403095D01*
X87591380Y-116117380D02*
X87591380Y-116212619D01*
X87639000Y-116307857D01*
X87686619Y-116355476D01*
X87781857Y-116403095D01*
X87972333Y-116450714D01*
X88210428Y-116450714D01*
X88400904Y-116403095D01*
X88496142Y-116355476D01*
X88543761Y-116307857D01*
X88591380Y-116212619D01*
X88591380Y-116117380D01*
X88543761Y-116022142D01*
X88496142Y-115974523D01*
X88400904Y-115926904D01*
X88210428Y-115879285D01*
X87972333Y-115879285D01*
X87781857Y-115926904D01*
X87686619Y-115974523D01*
X87639000Y-116022142D01*
X87591380Y-116117380D01*
X82240380Y-107029523D02*
X81764190Y-106696190D01*
X82240380Y-106458095D02*
X81240380Y-106458095D01*
X81240380Y-106839047D01*
X81288000Y-106934285D01*
X81335619Y-106981904D01*
X81430857Y-107029523D01*
X81573714Y-107029523D01*
X81668952Y-106981904D01*
X81716571Y-106934285D01*
X81764190Y-106839047D01*
X81764190Y-106458095D01*
X81240380Y-107362857D02*
X82240380Y-108029523D01*
X81240380Y-108029523D02*
X82240380Y-107362857D01*
X82240380Y-108410476D02*
X81240380Y-108410476D01*
X82240380Y-108981904D01*
X81240380Y-108981904D01*
X81240380Y-109648571D02*
X81240380Y-109839047D01*
X81288000Y-109934285D01*
X81383238Y-110029523D01*
X81573714Y-110077142D01*
X81907047Y-110077142D01*
X82097523Y-110029523D01*
X82192761Y-109934285D01*
X82240380Y-109839047D01*
X82240380Y-109648571D01*
X82192761Y-109553333D01*
X82097523Y-109458095D01*
X81907047Y-109410476D01*
X81573714Y-109410476D01*
X81383238Y-109458095D01*
X81288000Y-109553333D01*
X81240380Y-109648571D01*
X82240380Y-111077142D02*
X81764190Y-110743809D01*
X82240380Y-110505714D02*
X81240380Y-110505714D01*
X81240380Y-110886666D01*
X81288000Y-110981904D01*
X81335619Y-111029523D01*
X81430857Y-111077142D01*
X81573714Y-111077142D01*
X81668952Y-111029523D01*
X81716571Y-110981904D01*
X81764190Y-110886666D01*
X81764190Y-110505714D01*
X82240380Y-112029523D02*
X82240380Y-111458095D01*
X82240380Y-111743809D02*
X81240380Y-111743809D01*
X81383238Y-111648571D01*
X81478476Y-111553333D01*
X81526095Y-111458095D01*
X112085380Y-72112333D02*
X111609190Y-71779000D01*
X112085380Y-71540904D02*
X111085380Y-71540904D01*
X111085380Y-71921857D01*
X111133000Y-72017095D01*
X111180619Y-72064714D01*
X111275857Y-72112333D01*
X111418714Y-72112333D01*
X111513952Y-72064714D01*
X111561571Y-72017095D01*
X111609190Y-71921857D01*
X111609190Y-71540904D01*
X112085380Y-72540904D02*
X111085380Y-72540904D01*
X111799666Y-72874238D01*
X111085380Y-73207571D01*
X112085380Y-73207571D01*
X111799666Y-73636142D02*
X111799666Y-74112333D01*
X112085380Y-73540904D02*
X111085380Y-73874238D01*
X112085380Y-74207571D01*
X111085380Y-74731380D02*
X111085380Y-74826619D01*
X111133000Y-74921857D01*
X111180619Y-74969476D01*
X111275857Y-75017095D01*
X111466333Y-75064714D01*
X111704428Y-75064714D01*
X111894904Y-75017095D01*
X111990142Y-74969476D01*
X112037761Y-74921857D01*
X112085380Y-74826619D01*
X112085380Y-74731380D01*
X112037761Y-74636142D01*
X111990142Y-74588523D01*
X111894904Y-74540904D01*
X111704428Y-74493285D01*
X111466333Y-74493285D01*
X111275857Y-74540904D01*
X111180619Y-74588523D01*
X111133000Y-74636142D01*
X111085380Y-74731380D01*
X108473666Y-86557380D02*
X108807000Y-86081190D01*
X109045095Y-86557380D02*
X109045095Y-85557380D01*
X108664142Y-85557380D01*
X108568904Y-85605000D01*
X108521285Y-85652619D01*
X108473666Y-85747857D01*
X108473666Y-85890714D01*
X108521285Y-85985952D01*
X108568904Y-86033571D01*
X108664142Y-86081190D01*
X109045095Y-86081190D01*
X108045095Y-86557380D02*
X108045095Y-85557380D01*
X107664142Y-85557380D01*
X107568904Y-85605000D01*
X107521285Y-85652619D01*
X107473666Y-85747857D01*
X107473666Y-85890714D01*
X107521285Y-85985952D01*
X107568904Y-86033571D01*
X107664142Y-86081190D01*
X108045095Y-86081190D01*
X107045095Y-86557380D02*
X107045095Y-85557380D01*
X106807000Y-85557380D01*
X106664142Y-85605000D01*
X106568904Y-85700238D01*
X106521285Y-85795476D01*
X106473666Y-85985952D01*
X106473666Y-86128809D01*
X106521285Y-86319285D01*
X106568904Y-86414523D01*
X106664142Y-86509761D01*
X106807000Y-86557380D01*
X107045095Y-86557380D01*
X105473666Y-86462142D02*
X105521285Y-86509761D01*
X105664142Y-86557380D01*
X105759380Y-86557380D01*
X105902238Y-86509761D01*
X105997476Y-86414523D01*
X106045095Y-86319285D01*
X106092714Y-86128809D01*
X106092714Y-85985952D01*
X106045095Y-85795476D01*
X105997476Y-85700238D01*
X105902238Y-85605000D01*
X105759380Y-85557380D01*
X105664142Y-85557380D01*
X105521285Y-85605000D01*
X105473666Y-85652619D01*
X104854619Y-85557380D02*
X104759380Y-85557380D01*
X104664142Y-85605000D01*
X104616523Y-85652619D01*
X104568904Y-85747857D01*
X104521285Y-85938333D01*
X104521285Y-86176428D01*
X104568904Y-86366904D01*
X104616523Y-86462142D01*
X104664142Y-86509761D01*
X104759380Y-86557380D01*
X104854619Y-86557380D01*
X104949857Y-86509761D01*
X104997476Y-86462142D01*
X105045095Y-86366904D01*
X105092714Y-86176428D01*
X105092714Y-85938333D01*
X105045095Y-85747857D01*
X104997476Y-85652619D01*
X104949857Y-85605000D01*
X104854619Y-85557380D01*
X70206142Y-62960333D02*
X70253761Y-62912714D01*
X70301380Y-62769857D01*
X70301380Y-62674619D01*
X70253761Y-62531761D01*
X70158523Y-62436523D01*
X70063285Y-62388904D01*
X69872809Y-62341285D01*
X69729952Y-62341285D01*
X69539476Y-62388904D01*
X69444238Y-62436523D01*
X69349000Y-62531761D01*
X69301380Y-62674619D01*
X69301380Y-62769857D01*
X69349000Y-62912714D01*
X69396619Y-62960333D01*
X70301380Y-63388904D02*
X69301380Y-63388904D01*
X69301380Y-63627000D01*
X69349000Y-63769857D01*
X69444238Y-63865095D01*
X69539476Y-63912714D01*
X69729952Y-63960333D01*
X69872809Y-63960333D01*
X70063285Y-63912714D01*
X70158523Y-63865095D01*
X70253761Y-63769857D01*
X70301380Y-63627000D01*
X70301380Y-63388904D01*
X70301380Y-64912714D02*
X70301380Y-64341285D01*
X70301380Y-64627000D02*
X69301380Y-64627000D01*
X69444238Y-64531761D01*
X69539476Y-64436523D01*
X69587095Y-64341285D01*
X103703380Y-64562833D02*
X103227190Y-64229500D01*
X103703380Y-63991404D02*
X102703380Y-63991404D01*
X102703380Y-64372357D01*
X102751000Y-64467595D01*
X102798619Y-64515214D01*
X102893857Y-64562833D01*
X103036714Y-64562833D01*
X103131952Y-64515214D01*
X103179571Y-64467595D01*
X103227190Y-64372357D01*
X103227190Y-63991404D01*
X102751000Y-65515214D02*
X102703380Y-65419976D01*
X102703380Y-65277119D01*
X102751000Y-65134261D01*
X102846238Y-65039023D01*
X102941476Y-64991404D01*
X103131952Y-64943785D01*
X103274809Y-64943785D01*
X103465285Y-64991404D01*
X103560523Y-65039023D01*
X103655761Y-65134261D01*
X103703380Y-65277119D01*
X103703380Y-65372357D01*
X103655761Y-65515214D01*
X103608142Y-65562833D01*
X103274809Y-65562833D01*
X103274809Y-65372357D01*
X102798619Y-65943785D02*
X102751000Y-65991404D01*
X102703380Y-66086642D01*
X102703380Y-66324738D01*
X102751000Y-66419976D01*
X102798619Y-66467595D01*
X102893857Y-66515214D01*
X102989095Y-66515214D01*
X103131952Y-66467595D01*
X103703380Y-65896166D01*
X103703380Y-66515214D01*
X92019380Y-65008333D02*
X91543190Y-64675000D01*
X92019380Y-64436904D02*
X91019380Y-64436904D01*
X91019380Y-64817857D01*
X91067000Y-64913095D01*
X91114619Y-64960714D01*
X91209857Y-65008333D01*
X91352714Y-65008333D01*
X91447952Y-64960714D01*
X91495571Y-64913095D01*
X91543190Y-64817857D01*
X91543190Y-64436904D01*
X92019380Y-65436904D02*
X91019380Y-65436904D01*
X91019380Y-65817857D01*
X91067000Y-65913095D01*
X91114619Y-65960714D01*
X91209857Y-66008333D01*
X91352714Y-66008333D01*
X91447952Y-65960714D01*
X91495571Y-65913095D01*
X91543190Y-65817857D01*
X91543190Y-65436904D01*
X91019380Y-66436904D02*
X91828904Y-66436904D01*
X91924142Y-66484523D01*
X91971761Y-66532142D01*
X92019380Y-66627380D01*
X92019380Y-66817857D01*
X91971761Y-66913095D01*
X91924142Y-66960714D01*
X91828904Y-67008333D01*
X91019380Y-67008333D01*
X91971761Y-67436904D02*
X92019380Y-67579761D01*
X92019380Y-67817857D01*
X91971761Y-67913095D01*
X91924142Y-67960714D01*
X91828904Y-68008333D01*
X91733666Y-68008333D01*
X91638428Y-67960714D01*
X91590809Y-67913095D01*
X91543190Y-67817857D01*
X91495571Y-67627380D01*
X91447952Y-67532142D01*
X91400333Y-67484523D01*
X91305095Y-67436904D01*
X91209857Y-67436904D01*
X91114619Y-67484523D01*
X91067000Y-67532142D01*
X91019380Y-67627380D01*
X91019380Y-67865476D01*
X91067000Y-68008333D01*
X91114619Y-68389285D02*
X91067000Y-68436904D01*
X91019380Y-68532142D01*
X91019380Y-68770238D01*
X91067000Y-68865476D01*
X91114619Y-68913095D01*
X91209857Y-68960714D01*
X91305095Y-68960714D01*
X91447952Y-68913095D01*
X92019380Y-68341666D01*
X92019380Y-68960714D01*
X111577380Y-63889142D02*
X111101190Y-63555809D01*
X111577380Y-63317714D02*
X110577380Y-63317714D01*
X110577380Y-63698666D01*
X110625000Y-63793904D01*
X110672619Y-63841523D01*
X110767857Y-63889142D01*
X110910714Y-63889142D01*
X111005952Y-63841523D01*
X111053571Y-63793904D01*
X111101190Y-63698666D01*
X111101190Y-63317714D01*
X111577380Y-64317714D02*
X110577380Y-64317714D01*
X111291666Y-64651047D01*
X110577380Y-64984380D01*
X111577380Y-64984380D01*
X111291666Y-65412952D02*
X111291666Y-65889142D01*
X111577380Y-65317714D02*
X110577380Y-65651047D01*
X111577380Y-65984380D01*
X110672619Y-66270095D02*
X110625000Y-66317714D01*
X110577380Y-66412952D01*
X110577380Y-66651047D01*
X110625000Y-66746285D01*
X110672619Y-66793904D01*
X110767857Y-66841523D01*
X110863095Y-66841523D01*
X111005952Y-66793904D01*
X111577380Y-66222476D01*
X111577380Y-66841523D01*
X110577380Y-67460571D02*
X110577380Y-67555809D01*
X110625000Y-67651047D01*
X110672619Y-67698666D01*
X110767857Y-67746285D01*
X110958333Y-67793904D01*
X111196428Y-67793904D01*
X111386904Y-67746285D01*
X111482142Y-67698666D01*
X111529761Y-67651047D01*
X111577380Y-67555809D01*
X111577380Y-67460571D01*
X111529761Y-67365333D01*
X111482142Y-67317714D01*
X111386904Y-67270095D01*
X111196428Y-67222476D01*
X110958333Y-67222476D01*
X110767857Y-67270095D01*
X110672619Y-67317714D01*
X110625000Y-67365333D01*
X110577380Y-67460571D01*
X125580142Y-87725333D02*
X125627761Y-87677714D01*
X125675380Y-87534857D01*
X125675380Y-87439619D01*
X125627761Y-87296761D01*
X125532523Y-87201523D01*
X125437285Y-87153904D01*
X125246809Y-87106285D01*
X125103952Y-87106285D01*
X124913476Y-87153904D01*
X124818238Y-87201523D01*
X124723000Y-87296761D01*
X124675380Y-87439619D01*
X124675380Y-87534857D01*
X124723000Y-87677714D01*
X124770619Y-87725333D01*
X125675380Y-88725333D02*
X125199190Y-88392000D01*
X125675380Y-88153904D02*
X124675380Y-88153904D01*
X124675380Y-88534857D01*
X124723000Y-88630095D01*
X124770619Y-88677714D01*
X124865857Y-88725333D01*
X125008714Y-88725333D01*
X125103952Y-88677714D01*
X125151571Y-88630095D01*
X125199190Y-88534857D01*
X125199190Y-88153904D01*
X124675380Y-89344380D02*
X124675380Y-89439619D01*
X124723000Y-89534857D01*
X124770619Y-89582476D01*
X124865857Y-89630095D01*
X125056333Y-89677714D01*
X125294428Y-89677714D01*
X125484904Y-89630095D01*
X125580142Y-89582476D01*
X125627761Y-89534857D01*
X125675380Y-89439619D01*
X125675380Y-89344380D01*
X125627761Y-89249142D01*
X125580142Y-89201523D01*
X125484904Y-89153904D01*
X125294428Y-89106285D01*
X125056333Y-89106285D01*
X124865857Y-89153904D01*
X124770619Y-89201523D01*
X124723000Y-89249142D01*
X124675380Y-89344380D01*
X144660666Y-72588380D02*
X144994000Y-72112190D01*
X145232095Y-72588380D02*
X145232095Y-71588380D01*
X144851142Y-71588380D01*
X144755904Y-71636000D01*
X144708285Y-71683619D01*
X144660666Y-71778857D01*
X144660666Y-71921714D01*
X144708285Y-72016952D01*
X144755904Y-72064571D01*
X144851142Y-72112190D01*
X145232095Y-72112190D01*
X144374952Y-71588380D02*
X144041619Y-72588380D01*
X143708285Y-71588380D01*
X142851142Y-72588380D02*
X143422571Y-72588380D01*
X143136857Y-72588380D02*
X143136857Y-71588380D01*
X143232095Y-71731238D01*
X143327333Y-71826476D01*
X143422571Y-71874095D01*
X142517809Y-71921714D02*
X142279714Y-72588380D01*
X142041619Y-71921714D01*
X141517809Y-72588380D02*
X141613047Y-72540761D01*
X141660666Y-72493142D01*
X141708285Y-72397904D01*
X141708285Y-72112190D01*
X141660666Y-72016952D01*
X141613047Y-71969333D01*
X141517809Y-71921714D01*
X141374952Y-71921714D01*
X141279714Y-71969333D01*
X141232095Y-72016952D01*
X141184476Y-72112190D01*
X141184476Y-72397904D01*
X141232095Y-72493142D01*
X141279714Y-72540761D01*
X141374952Y-72588380D01*
X141517809Y-72588380D01*
X140613047Y-72588380D02*
X140708285Y-72540761D01*
X140755904Y-72445523D01*
X140755904Y-71588380D01*
X140279714Y-71683619D02*
X140232095Y-71636000D01*
X140136857Y-71588380D01*
X139898761Y-71588380D01*
X139803523Y-71636000D01*
X139755904Y-71683619D01*
X139708285Y-71778857D01*
X139708285Y-71874095D01*
X139755904Y-72016952D01*
X140327333Y-72588380D01*
X139708285Y-72588380D01*
X114117380Y-72112333D02*
X113641190Y-71779000D01*
X114117380Y-71540904D02*
X113117380Y-71540904D01*
X113117380Y-71921857D01*
X113165000Y-72017095D01*
X113212619Y-72064714D01*
X113307857Y-72112333D01*
X113450714Y-72112333D01*
X113545952Y-72064714D01*
X113593571Y-72017095D01*
X113641190Y-71921857D01*
X113641190Y-71540904D01*
X114117380Y-72540904D02*
X113117380Y-72540904D01*
X113831666Y-72874238D01*
X113117380Y-73207571D01*
X114117380Y-73207571D01*
X113831666Y-73636142D02*
X113831666Y-74112333D01*
X114117380Y-73540904D02*
X113117380Y-73874238D01*
X114117380Y-74207571D01*
X114117380Y-75064714D02*
X114117380Y-74493285D01*
X114117380Y-74779000D02*
X113117380Y-74779000D01*
X113260238Y-74683761D01*
X113355476Y-74588523D01*
X113403095Y-74493285D01*
M02*
