M48
; DRILL file {KiCad 5.1.5+dfsg1-2build2} date jeu. 08 juil. 2021 11:28:00
; FORMAT={-:-/ absolute / metric / decimal}
; #@! TF.CreationDate,2021-07-08T11:28:00+02:00
; #@! TF.GenerationSoftware,Kicad,Pcbnew,5.1.5+dfsg1-2build2
; #@! TF.FileFunction,Plated,1,2,PTH
FMAT,2
METRIC
T1C0.400
T2C0.750
T3C0.762
T4C0.800
T5C1.000
T6C1.100
T7C1.300
T8C3.000
%
G90
G05
T1
X68.199Y-114.046
X84.582Y-122.936
X87.503Y-117.475
X88.265Y-79.883
X88.265Y-82.169
X91.567Y-67.818
X92.837Y-93.726
X93.599Y-66.802
X101.219Y-71.247
X101.219Y-72.771
X102.108Y-107.569
X103.403Y-70.333
X105.219Y-110.426
X106.045Y-58.293
X109.347Y-65.532
X109.347Y-66.548
X109.347Y-67.564
X115.697Y-72.136
X115.697Y-75.946
X118.11Y-78.613
X141.605Y-93.853
X101.282Y-127.762
X103.822Y-127.762
X106.362Y-127.762
X108.902Y-127.762
X111.442Y-127.762
X113.983Y-127.762
X116.522Y-127.762
X119.062Y-127.762
X121.602Y-127.762
X124.142Y-127.762
X126.682Y-127.762
X129.222Y-127.762
X131.762Y-127.762
X134.302Y-127.762
X136.843Y-127.762
X139.382Y-127.762
X141.922Y-127.762
T2
X100.203Y-100.711
X107.823Y-100.711
T3
X136.652Y-59.436
X137.287Y-67.056
X143.002Y-59.436
X143.002Y-67.056
T4
X107.823Y-108.839
X110.363Y-106.299
X110.363Y-111.379
X122.595Y-96.393
X125.095Y-96.393
X135.255Y-69.723
X135.255Y-72.263
X135.255Y-74.803
X135.255Y-77.343
X135.255Y-79.883
X135.255Y-82.423
X135.255Y-84.963
X135.255Y-87.503
X135.255Y-90.043
X135.255Y-92.583
X135.255Y-95.123
X135.255Y-97.663
X135.255Y-100.203
X135.255Y-102.743
X135.255Y-105.283
X135.255Y-107.823
X135.255Y-110.363
X135.255Y-112.903
X135.255Y-115.443
X135.255Y-117.983
X150.495Y-69.723
X150.495Y-72.263
X150.495Y-74.803
X150.495Y-77.343
X150.495Y-79.883
X150.495Y-82.423
X150.495Y-84.963
X150.495Y-87.503
X150.495Y-90.043
X150.495Y-92.583
X150.495Y-95.123
X150.495Y-97.663
X150.495Y-100.203
X150.495Y-102.743
X150.495Y-105.283
X150.495Y-107.823
X150.495Y-110.363
X150.495Y-112.903
X150.495Y-115.443
X150.495Y-117.983
X63.627Y-83.185
X63.627Y-85.725
X63.627Y-88.265
X63.627Y-90.805
X63.627Y-93.345
X63.627Y-95.885
X63.627Y-98.425
X71.247Y-83.185
X71.247Y-85.725
X71.247Y-88.265
X71.247Y-90.805
X71.247Y-93.345
X71.247Y-95.885
X71.247Y-98.425
X65.405Y-71.755
X65.405Y-79.375
X67.945Y-71.755
X67.945Y-79.375
X70.485Y-71.755
X70.485Y-79.375
X73.025Y-71.755
X73.025Y-79.375
X75.565Y-71.755
X75.565Y-79.375
X78.105Y-71.755
X78.105Y-79.375
X80.645Y-71.755
X80.645Y-79.375
X122.595Y-101.473
X125.095Y-101.473
X93.599Y-60.071
X93.599Y-62.571
X74.295Y-83.185
X74.295Y-85.725
X74.295Y-88.265
X74.295Y-90.805
X74.295Y-93.345
X74.295Y-95.885
X74.295Y-98.425
X81.915Y-83.185
X81.915Y-85.725
X81.915Y-88.265
X81.915Y-90.805
X81.915Y-93.345
X81.915Y-95.885
X81.915Y-98.425
X110.236Y-97.917
X110.236Y-100.457
X117.856Y-97.917
X117.856Y-100.457
X72.517Y-107.673
X72.517Y-110.213
X72.517Y-112.753
X72.517Y-115.293
X72.517Y-117.833
X72.517Y-120.373
X72.517Y-122.913
X80.137Y-107.673
X80.137Y-110.213
X80.137Y-112.753
X80.137Y-115.293
X80.137Y-117.833
X80.137Y-120.373
X80.137Y-122.913
X63.754Y-103.759
X65.754Y-103.759
X65.405Y-59.817
X65.405Y-67.437
X67.945Y-59.817
X67.945Y-67.437
X70.485Y-59.817
X70.485Y-67.437
X73.025Y-59.817
X73.025Y-67.437
X75.565Y-59.817
X75.565Y-67.437
X78.105Y-59.817
X78.105Y-67.437
X80.645Y-59.817
X80.645Y-67.437
X99.187Y-104.013
X99.187Y-109.013
X96.139Y-98.044
X96.139Y-100.044
X130.175Y-96.473
X130.175Y-101.473
X92.837Y-82.169
X92.837Y-89.789
X95.377Y-82.169
X95.377Y-89.789
X97.917Y-82.169
X97.917Y-89.789
X100.457Y-82.169
X100.457Y-89.789
X102.997Y-82.169
X102.997Y-89.789
X105.537Y-82.169
X105.537Y-89.789
X108.077Y-82.169
X108.077Y-89.789
X110.617Y-82.169
X110.617Y-89.789
X113.157Y-82.169
X113.157Y-89.789
X115.697Y-82.169
X115.697Y-89.789
X147.034Y-64.834
X149.034Y-64.834
T5
X125.857Y-75.819
X125.857Y-78.359
X125.857Y-80.899
X128.397Y-75.819
X128.397Y-78.359
X128.397Y-80.899
T6
X124.532Y-85.09
X124.532Y-91.59
X129.032Y-85.09
X129.032Y-91.59
T7
X109.347Y-58.627
X109.347Y-63.627
X119.347Y-61.127
X96.139Y-58.627
X96.139Y-63.627
X106.139Y-61.127
X109.347Y-69.803
X109.347Y-74.803
X119.347Y-72.303
X123.571Y-58.627
X123.571Y-63.627
X133.571Y-61.127
X96.139Y-69.803
X96.139Y-74.803
X106.139Y-72.303
T8
X64.706Y-128.46
X148.844Y-58.61
T0
M30
